<svg viewBox="0 0 1501 400" xmlns="http://www.w3.org/2000/svg"><g><g><g><g><g><line x1="61.77000045776367" y1="377.95999908447266" x2="56.77000045776367" y2="377.95999908447266" style="visibility: inherit;" fill="rgb(0, 0, 0)" stroke="rgb(204, 204, 204)" stroke-width="1px"></line><line x1="61.77000045776367" y1="343.59999916770244" x2="56.77000045776367" y2="343.59999916770244" style="visibility: inherit;" fill="rgb(0, 0, 0)" stroke="rgb(204, 204, 204)" stroke-width="1px"></line><line x1="61.77000045776367" y1="309.23999925093216" x2="56.77000045776367" y2="309.23999925093216" style="visibility: inherit;" fill="rgb(0, 0, 0)" stroke="rgb(204, 204, 204)" stroke-width="1px"></line><line x1="61.77000045776367" y1="274.87999933416194" x2="56.77000045776367" y2="274.87999933416194" style="visibility: inherit;" fill="rgb(0, 0, 0)" stroke="rgb(204, 204, 204)" stroke-width="1px"></line><line x1="61.77000045776367" y1="240.5199994173917" x2="56.77000045776367" y2="240.5199994173917" style="visibility: inherit;" fill="rgb(0, 0, 0)" stroke="rgb(204, 204, 204)" stroke-width="1px"></line><line x1="61.77000045776367" y1="206.15999950062144" x2="56.77000045776367" y2="206.15999950062144" style="visibility: inherit;" fill="rgb(0, 0, 0)" stroke="rgb(204, 204, 204)" stroke-width="1px"></line><line x1="61.77000045776367" y1="171.7999995838512" x2="56.77000045776367" y2="171.7999995838512" style="visibility: inherit;" fill="rgb(0, 0, 0)" stroke="rgb(204, 204, 204)" stroke-width="1px"></line><line x1="61.77000045776367" y1="137.43999966708103" x2="56.77000045776367" y2="137.43999966708103" style="visibility: inherit;" fill="rgb(0, 0, 0)" stroke="rgb(204, 204, 204)" stroke-width="1px"></line><line x1="61.77000045776367" y1="103.07999975031072" x2="56.77000045776367" y2="103.07999975031072" style="visibility: inherit;" fill="rgb(0, 0, 0)" stroke="rgb(204, 204, 204)" stroke-width="1px"></line><line x1="61.77000045776367" y1="68.7199998335405" x2="56.77000045776367" y2="68.7199998335405" style="visibility: inherit;" fill="rgb(0, 0, 0)" stroke="rgb(204, 204, 204)" stroke-width="1px"></line><line x1="61.77000045776367" y1="34.35999991677028" x2="56.77000045776367" y2="34.35999991677028" style="visibility: inherit;" fill="rgb(0, 0, 0)" stroke="rgb(204, 204, 204)" stroke-width="1px"></line><line x1="61.77000045776367" y1="0" x2="56.77000045776367" y2="0" style="visibility: inherit;" fill="rgb(0, 0, 0)" stroke="rgb(204, 204, 204)" stroke-width="1px"></line></g><g transform="translate(51.77000045776367, 0)"><text style="text-anchor: end; visibility: hidden; font-family: &quot;Helvetica Neue&quot;, sans-serif; font-size: 12px; font-weight: 200;" x="0" y="377.95999908447266" dx="0em" dy="0.3em" fill="rgb(50, 49, 63)" stroke="none" stroke-width="1px">-0.02</text><text style="text-anchor: end; visibility: inherit; font-family: &quot;Helvetica Neue&quot;, sans-serif; font-size: 12px; font-weight: 200;" x="0" y="343.59999916770244" dx="0em" dy="0.3em" fill="rgb(50, 49, 63)" stroke="none" stroke-width="1px">0</text><text style="text-anchor: end; visibility: inherit; font-family: &quot;Helvetica Neue&quot;, sans-serif; font-size: 12px; font-weight: 200;" x="0" y="309.23999925093216" dx="0em" dy="0.3em" fill="rgb(50, 49, 63)" stroke="none" stroke-width="1px">0.02</text><text style="text-anchor: end; visibility: inherit; font-family: &quot;Helvetica Neue&quot;, sans-serif; font-size: 12px; font-weight: 200;" x="0" y="274.87999933416194" dx="0em" dy="0.3em" fill="rgb(50, 49, 63)" stroke="none" stroke-width="1px">0.04</text><text style="text-anchor: end; visibility: inherit; font-family: &quot;Helvetica Neue&quot;, sans-serif; font-size: 12px; font-weight: 200;" x="0" y="240.5199994173917" dx="0em" dy="0.3em" fill="rgb(50, 49, 63)" stroke="none" stroke-width="1px">0.06</text><text style="text-anchor: end; visibility: inherit; font-family: &quot;Helvetica Neue&quot;, sans-serif; font-size: 12px; font-weight: 200;" x="0" y="206.15999950062144" dx="0em" dy="0.3em" fill="rgb(50, 49, 63)" stroke="none" stroke-width="1px">0.08</text><text style="text-anchor: end; visibility: inherit; font-family: &quot;Helvetica Neue&quot;, sans-serif; font-size: 12px; font-weight: 200;" x="0" y="171.7999995838512" dx="0em" dy="0.3em" fill="rgb(50, 49, 63)" stroke="none" stroke-width="1px">0.1</text><text style="text-anchor: end; visibility: inherit; font-family: &quot;Helvetica Neue&quot;, sans-serif; font-size: 12px; font-weight: 200;" x="0" y="137.43999966708103" dx="0em" dy="0.3em" fill="rgb(50, 49, 63)" stroke="none" stroke-width="1px">0.12</text><text style="text-anchor: end; visibility: inherit; font-family: &quot;Helvetica Neue&quot;, sans-serif; font-size: 12px; font-weight: 200;" x="0" y="103.07999975031072" dx="0em" dy="0.3em" fill="rgb(50, 49, 63)" stroke="none" stroke-width="1px">0.14</text><text style="text-anchor: end; visibility: inherit; font-family: &quot;Helvetica Neue&quot;, sans-serif; font-size: 12px; font-weight: 200;" x="0" y="68.7199998335405" dx="0em" dy="0.3em" fill="rgb(50, 49, 63)" stroke="none" stroke-width="1px">0.16</text><text style="text-anchor: end; visibility: inherit; font-family: &quot;Helvetica Neue&quot;, sans-serif; font-size: 12px; font-weight: 200;" x="0" y="34.35999991677028" dx="0em" dy="0.3em" fill="rgb(50, 49, 63)" stroke="none" stroke-width="1px">0.18</text><text style="text-anchor: end; visibility: hidden; font-family: &quot;Helvetica Neue&quot;, sans-serif; font-size: 12px; font-weight: 200;" x="0" y="0" dx="0em" dy="0.3em" fill="rgb(50, 49, 63)" stroke="none" stroke-width="1px">0.2</text></g><line x1="61.77000045776367" y1="0" x2="61.77000045776367" y2="377.95999908447266" fill="rgb(0, 0, 0)" stroke="rgb(204, 204, 204)" stroke-width="1px"></line></g></g><g transform="translate(61, 0)" clip-path="url(#clip_0)"><clipPath id="clip_0"><rect width="1439" height="377"></rect></clipPath><g><g><g><line x1="0" y1="0" x2="0" y2="377.95999908447266" fill="rgb(0, 0, 0)" stroke="rgb(60, 60, 60)" stroke-width="1px" opacity="0.25"></line><line x1="119.93583329518636" y1="0" x2="119.93583329518636" y2="377.95999908447266" fill="rgb(0, 0, 0)" stroke="rgb(60, 60, 60)" stroke-width="1px" opacity="0.25"></line><line x1="239.8716665903727" y1="0" x2="239.8716665903727" y2="377.95999908447266" fill="rgb(0, 0, 0)" stroke="rgb(60, 60, 60)" stroke-width="1px" opacity="0.25"></line><line x1="359.8074998855591" y1="0" x2="359.8074998855591" y2="377.95999908447266" fill="rgb(0, 0, 0)" stroke="rgb(60, 60, 60)" stroke-width="1px" opacity="0.25"></line><line x1="479.7433331807454" y1="0" x2="479.7433331807454" y2="377.95999908447266" fill="rgb(0, 0, 0)" stroke="rgb(60, 60, 60)" stroke-width="1px" opacity="0.25"></line><line x1="599.6791664759319" y1="0" x2="599.6791664759319" y2="377.95999908447266" fill="rgb(0, 0, 0)" stroke="rgb(60, 60, 60)" stroke-width="1px" opacity="0.25"></line><line x1="719.6149997711182" y1="0" x2="719.6149997711182" y2="377.95999908447266" fill="rgb(0, 0, 0)" stroke="rgb(60, 60, 60)" stroke-width="1px" opacity="0.25"></line><line x1="839.5508330663046" y1="0" x2="839.5508330663046" y2="377.95999908447266" fill="rgb(0, 0, 0)" stroke="rgb(60, 60, 60)" stroke-width="1px" opacity="0.25"></line><line x1="959.4866663614908" y1="0" x2="959.4866663614908" y2="377.95999908447266" fill="rgb(0, 0, 0)" stroke="rgb(60, 60, 60)" stroke-width="1px" opacity="0.25"></line><line x1="1079.4224996566772" y1="0" x2="1079.4224996566772" y2="377.95999908447266" fill="rgb(0, 0, 0)" stroke="rgb(60, 60, 60)" stroke-width="1px" opacity="0.25"></line><line x1="1199.3583329518638" y1="0" x2="1199.3583329518638" y2="377.95999908447266" fill="rgb(0, 0, 0)" stroke="rgb(60, 60, 60)" stroke-width="1px" opacity="0.25"></line><line x1="1319.2941662470498" y1="0" x2="1319.2941662470498" y2="377.95999908447266" fill="rgb(0, 0, 0)" stroke="rgb(60, 60, 60)" stroke-width="1px" opacity="0.25"></line><line x1="1439.2299995422363" y1="0" x2="1439.2299995422363" y2="377.95999908447266" fill="rgb(0, 0, 0)" stroke="rgb(60, 60, 60)" stroke-width="1px" opacity="0.25"></line></g><g><line x1="0" y1="377.95999908447266" x2="1439.2299995422363" y2="377.95999908447266" fill="rgb(0, 0, 0)" stroke="rgb(60, 60, 60)" stroke-width="1px" opacity="0.25"></line><line x1="0" y1="343.59999916770244" x2="1439.2299995422363" y2="343.59999916770244" fill="rgb(0, 0, 0)" stroke="rgb(60, 60, 60)" stroke-width="1px" opacity="0.25"></line><line x1="0" y1="309.23999925093216" x2="1439.2299995422363" y2="309.23999925093216" fill="rgb(0, 0, 0)" stroke="rgb(60, 60, 60)" stroke-width="1px" opacity="0.25"></line><line x1="0" y1="274.87999933416194" x2="1439.2299995422363" y2="274.87999933416194" fill="rgb(0, 0, 0)" stroke="rgb(60, 60, 60)" stroke-width="1px" opacity="0.25"></line><line x1="0" y1="240.5199994173917" x2="1439.2299995422363" y2="240.5199994173917" fill="rgb(0, 0, 0)" stroke="rgb(60, 60, 60)" stroke-width="1px" opacity="0.25"></line><line x1="0" y1="206.15999950062144" x2="1439.2299995422363" y2="206.15999950062144" fill="rgb(0, 0, 0)" stroke="rgb(60, 60, 60)" stroke-width="1px" opacity="0.25"></line><line x1="0" y1="171.7999995838512" x2="1439.2299995422363" y2="171.7999995838512" fill="rgb(0, 0, 0)" stroke="rgb(60, 60, 60)" stroke-width="1px" opacity="0.25"></line><line x1="0" y1="137.43999966708103" x2="1439.2299995422363" y2="137.43999966708103" fill="rgb(0, 0, 0)" stroke="rgb(60, 60, 60)" stroke-width="1px" opacity="0.25"></line><line x1="0" y1="103.07999975031072" x2="1439.2299995422363" y2="103.07999975031072" fill="rgb(0, 0, 0)" stroke="rgb(60, 60, 60)" stroke-width="1px" opacity="0.25"></line><line x1="0" y1="68.7199998335405" x2="1439.2299995422363" y2="68.7199998335405" fill="rgb(0, 0, 0)" stroke="rgb(60, 60, 60)" stroke-width="1px" opacity="0.25"></line><line x1="0" y1="34.35999991677028" x2="1439.2299995422363" y2="34.35999991677028" fill="rgb(0, 0, 0)" stroke="rgb(60, 60, 60)" stroke-width="1px" opacity="0.25"></line><line x1="0" y1="0" x2="1439.2299995422363" y2="0" fill="rgb(0, 0, 0)" stroke="rgb(60, 60, 60)" stroke-width="1px" opacity="0.25"></line></g></g></g><g><g><line x1="0" y1="343.59999916770244" x2="1439.2299995422363" y2="343.59999916770244" fill="rgb(0, 0, 0)" stroke="rgb(153, 153, 153)" stroke-width="1.5px"></line></g></g><g><g><line x1="119.93583329518636" y1="0" x2="119.93583329518636" y2="377.95999908447266" fill="rgb(0, 0, 0)" stroke="rgb(153, 153, 153)" stroke-width="1.5px"></line></g></g><g><g><g><g><g><path style="fill: none;" stroke="rgb(0, 119, 187)" stroke-width="2px" d="M119.93583329518636,76.30388450617016L143.92299995422363,216.11175472551278L167.9101666132609,265.194508956327L191.89733327229817,285.5048476525291L215.88449993133545,298.22652485708664L239.8716665903727,304.9448705591575L263.85883324941,307.81830197523084L287.84599990844725,308.64238607997453L311.83316656748457,309.94757989748484L335.8203332265218,310.4494599343907L359.8074998855591,311.7442429054281L383.79466654459634,313.58083975711656L407.7818332036336,314.4625675394913L431.7689998626709,309.8276836518061L455.75616652170817,312.22238207918934L479.7433331807454,313.8876808076352L503.7304998397827,315.86377088895506L527.71766649882,314.82113848361314L551.7048331578573,314.48416499252454L575.6919998168945,313.9789496135108L599.6791664759319,311.84304717151304L623.6663331349691,311.8788968209983L647.6534997940064,313.79428272130986L671.6406664530437,312.73529938844126L695.6278331120809,313.6074304412937L719.6149997711182,312.51111735508135L743.6021664301555,313.5022818997364L767.5893330891927,313.46318404361233L791.57649974823,313.70437769735344L815.5636664072672,315.11560167338575L839.5508330663046,312.9093029346436L863.5379997253418,313.4772248289017L887.5251663843791,311.7535486834868L911.5123330434163,311.27753355386176L935.4994997024536,314.7933582867281L959.4866663614908,317.03129886682245L983.4738330205282,316.2255015519298L1007.4609996795654,317.1920335690681L1031.4481663386027,316.30687154157255L1055.43533299764,314.09616601889167L1079.4224996566772,313.8421963115655L1103.4096663157145,311.5371056198161L1127.3968329747518,312.23389167784984L1151.383999633789,313.7816359118197L1175.3711662928263,314.04417690155657L1199.3583329518638,315.2639751814887L1223.3454996109008,315.83072137240026L1247.3326662699383,314.9927556398534L1271.3198329289753,312.47027698633315L1295.3069995880128,313.35279139265776L1319.2941662470498,315.01902932925174" fill="none"></path></g><g><path style="fill: none;" stroke="rgb(255, 112, 67)" stroke-width="2px" d="M119.93583329518636,88.24353379093719L143.92299995422363,73.08161037817723L167.9101666132609,198.91331596587332L191.89733327229817,256.35667208799896L215.88449993133545,280.8424437370054L239.8716665903727,297.33175532703626L263.85883324941,308.29687229391834L287.84599990844725,309.6065457184788L311.83316656748457,232.45816884945816L335.8203332265218,270.1648270426508L359.8074998855591,292.6562927766124L383.79466654459634,305.8273315437988L407.7818332036336,313.4606908292794L431.7689998626709,321.32182506061775L455.75616652170817,319.7637666006721L479.7433331807454,324.9325299893539L503.7304998397827,324.84972457548554L527.71766649882,326.5760099420771L551.7048331578573,328.76610264302593L575.6919998168945,329.83747045244274L599.6791664759319,328.35517959441563L623.6663331349691,330.82511423685173L647.6534997940064,330.8485074349664L671.6406664530437,332.3133285133171L695.6278331120809,332.95068971298144L719.6149997711182,330.4112214074945L743.6021664301555,329.01208827210974L767.5893330891927,331.2556413886974L791.57649974823,331.6965254725949L815.5636664072672,330.02780035561244L839.5508330663046,332.69962500811033L863.5379997253418,333.76619608606785L887.5251663843791,333.7255008249903L911.5123330434163,333.5713469983132L935.4994997024536,333.6853644406384L959.4866663614908,335.3654329493645L983.4738330205282,336.0543631324583L1007.4609996795654,334.9794487853103L1031.4481663386027,334.92499331573305L1055.43533299764,336.44159150921007L1079.4224996566772,336.0821534003139L1103.4096663157145,336.8429701286061L1127.3968329747518,336.6147802333568L1151.383999633789,335.83446747857766L1175.3711662928263,335.39353635327655L1199.3583329518638,336.4366469922028L1223.3454996109008,338.1133283343735L1247.3326662699383,338.4237093644923L1271.3198329289753,338.11029833928893L1295.3069995880128,334.53938661372865L1319.2941662470498,336.26958169779357" fill="none"></path></g></g></g></g><g opacity="0.2"><g><g><g><path style="fill: none;" stroke="rgb(0, 119, 187)" stroke-width="2px" d="M119.93583329518636,76.30388450617016L143.92299995422363,299.9964768571184L167.9101666132609,312.3139530179086L191.89733327229817,309.3898059592628L215.88449993133545,314.83594661535693L239.8716665903727,314.23876126957424L263.85883324941,311.92735487511845L287.84599990844725,309.84390861589816L311.83316656748457,311.8724872574654L335.8203332265218,311.1946932980889L359.8074998855591,313.67467377573286L383.79466654459634,316.32574035568643L407.7818332036336,315.78228021886076L431.7689998626709,302.8844380403168L455.75616652170817,315.8116148421563L479.7433331807454,316.38445440261853L503.7304998397827,318.82706979583895L527.71766649882,313.257454599855L551.7048331578573,313.9787560904114L575.6919998168945,313.2211727236769L599.6791664759319,308.6393106464826L623.6663331349691,311.9326701155781L647.6534997940064,316.66732375582376L671.6406664530437,311.1468369338056L695.6278331120809,314.91562082183805L719.6149997711182,310.8666524010373L743.6021664301555,314.9890261806006L767.5893330891927,313.4045373194506L791.57649974823,314.0661679557917L815.5636664072672,317.2324368574721L839.5508330663046,309.5998555581631L863.5379997253418,314.32910755729137L887.5251663843791,309.16803467113687L911.5123330434163,310.5635108935202L935.4994997024536,320.06709523492884L959.4866663614908,320.38820967925625L983.4738330205282,315.01680559205784L1007.4609996795654,318.6418315858033L1031.4481663386027,314.9791285052594L1055.43533299764,310.7801077422582L1079.4224996566772,313.4612417510855L1103.4096663157145,308.0794695849651L1127.3968329747518,313.27907076439755L1151.383999633789,316.10325226210415L1175.3711662928263,314.43798838609365L1199.3583329518638,317.0936726011968L1223.3454996109008,316.6808406587146L1247.3326662699383,313.7358070410801L1271.3198329289753,308.68655900613777L1295.3069995880128,314.6765630021268L1319.2941662470498,317.51838623412254" fill="none"></path></g><g><path style="fill: none;" stroke="rgb(255, 112, 67)" stroke-width="2px" d="M119.93583329518636,88.24353379093719L143.92299995422363,63.9844563305212L167.9101666132609,319.71175333006164L191.89733327229817,323.9100588876186L215.88449993133545,312.8110672019483L239.8716665903727,320.14240940822134L263.85883324941,323.97716499843125L287.84599990844725,311.51606214435276L311.83316656748457,118.67929826837576L335.8203332265218,326.15481997476945L359.8074998855591,326.1894954387196L383.79466654459634,325.51221348324043L407.7818332036336,324.88580551501474L431.7689998626709,333.0981256273032L455.75616652170817,317.4285103499861L479.7433331807454,332.6820296599752L503.7304998397827,324.72555149515904L527.71766649882,329.164999688297L551.7048331578573,332.05090805586934L575.6919998168945,331.44442423930656L599.6791664759319,326.13182459972836L623.6663331349691,334.5299349262544L647.6534997940064,330.8835967702805L671.6406664530437,334.51054277864114L695.6278331120809,333.90672698238734L719.6149997711182,326.60202977893636L743.6021664301555,326.9133921490308L767.5893330891927,334.62096761919645L791.57649974823,332.3578511923245L815.5636664072672,327.52471360241776L839.5508330663046,336.707361100851L863.5379997253418,335.36605249079224L887.5251663843791,333.6644579382322L911.5123330434163,333.34011626933915L935.4994997024536,333.85639059922613L959.4866663614908,337.8855356691313L983.4738330205282,337.0877583964402L1007.4609996795654,333.36707727456667L1031.4481663386027,334.8433101116704L1055.43533299764,338.71648879435736L1079.4224996566772,335.5429962376904L1103.4096663157145,337.9841952201291L1127.3968329747518,336.2724953906475L1151.383999633789,334.6639983467469L1175.3711662928263,334.7321396654395L1199.3583329518638,338.00131295042945L1223.3454996109008,340.6283503474726L1247.3326662699383,338.8892809096532L1271.3198329289753,337.6401818014944L1295.3069995880128,329.1830190254604L1319.2941662470498,338.86487432386997" fill="none"></path></g></g></g></g></g></g><g transform="translate(61, 377)" clip-path="url(#clip_1)"><clipPath id="clip_1"><rect width="1439" height="22"></rect></clipPath><g><g><line x1="0" y1="0" x2="0" y2="5" style="visibility: inherit;" fill="rgb(0, 0, 0)" stroke="rgb(204, 204, 204)" stroke-width="1px"></line><line x1="119.93583329518636" y1="0" x2="119.93583329518636" y2="5" style="visibility: inherit;" fill="rgb(0, 0, 0)" stroke="rgb(204, 204, 204)" stroke-width="1px"></line><line x1="239.8716665903727" y1="0" x2="239.8716665903727" y2="5" style="visibility: inherit;" fill="rgb(0, 0, 0)" stroke="rgb(204, 204, 204)" stroke-width="1px"></line><line x1="359.8074998855591" y1="0" x2="359.8074998855591" y2="5" style="visibility: inherit;" fill="rgb(0, 0, 0)" stroke="rgb(204, 204, 204)" stroke-width="1px"></line><line x1="479.7433331807454" y1="0" x2="479.7433331807454" y2="5" style="visibility: inherit;" fill="rgb(0, 0, 0)" stroke="rgb(204, 204, 204)" stroke-width="1px"></line><line x1="599.6791664759319" y1="0" x2="599.6791664759319" y2="5" style="visibility: inherit;" fill="rgb(0, 0, 0)" stroke="rgb(204, 204, 204)" stroke-width="1px"></line><line x1="719.6149997711182" y1="0" x2="719.6149997711182" y2="5" style="visibility: inherit;" fill="rgb(0, 0, 0)" stroke="rgb(204, 204, 204)" stroke-width="1px"></line><line x1="839.5508330663046" y1="0" x2="839.5508330663046" y2="5" style="visibility: inherit;" fill="rgb(0, 0, 0)" stroke="rgb(204, 204, 204)" stroke-width="1px"></line><line x1="959.4866663614908" y1="0" x2="959.4866663614908" y2="5" style="visibility: inherit;" fill="rgb(0, 0, 0)" stroke="rgb(204, 204, 204)" stroke-width="1px"></line><line x1="1079.4224996566772" y1="0" x2="1079.4224996566772" y2="5" style="visibility: inherit;" fill="rgb(0, 0, 0)" stroke="rgb(204, 204, 204)" stroke-width="1px"></line><line x1="1199.3583329518638" y1="0" x2="1199.3583329518638" y2="5" style="visibility: inherit;" fill="rgb(0, 0, 0)" stroke="rgb(204, 204, 204)" stroke-width="1px"></line><line x1="1319.2941662470498" y1="0" x2="1319.2941662470498" y2="5" style="visibility: inherit;" fill="rgb(0, 0, 0)" stroke="rgb(204, 204, 204)" stroke-width="1px"></line><line x1="1439.2299995422363" y1="0" x2="1439.2299995422363" y2="5" style="visibility: inherit;" fill="rgb(0, 0, 0)" stroke="rgb(204, 204, 204)" stroke-width="1px"></line></g><g transform="translate(0, 8)"><text style="text-anchor: middle; visibility: hidden; font-family: &quot;Helvetica Neue&quot;, sans-serif; font-size: 12px; font-weight: 200;" x="0" y="0" dx="0em" dy="0.95em" fill="rgb(50, 49, 63)" stroke="none" stroke-width="1px">-5</text><text style="text-anchor: middle; visibility: inherit; font-family: &quot;Helvetica Neue&quot;, sans-serif; font-size: 12px; font-weight: 200;" x="119.93583329518636" y="0" dx="0em" dy="0.95em" fill="rgb(50, 49, 63)" stroke="none" stroke-width="1px">0</text><text style="text-anchor: middle; visibility: inherit; font-family: &quot;Helvetica Neue&quot;, sans-serif; font-size: 12px; font-weight: 200;" x="239.8716665903727" y="0" dx="0em" dy="0.95em" fill="rgb(50, 49, 63)" stroke="none" stroke-width="1px">5</text><text style="text-anchor: middle; visibility: inherit; font-family: &quot;Helvetica Neue&quot;, sans-serif; font-size: 12px; font-weight: 200;" x="359.8074998855591" y="0" dx="0em" dy="0.95em" fill="rgb(50, 49, 63)" stroke="none" stroke-width="1px">10</text><text style="text-anchor: middle; visibility: inherit; font-family: &quot;Helvetica Neue&quot;, sans-serif; font-size: 12px; font-weight: 200;" x="479.7433331807454" y="0" dx="0em" dy="0.95em" fill="rgb(50, 49, 63)" stroke="none" stroke-width="1px">15</text><text style="text-anchor: middle; visibility: inherit; font-family: &quot;Helvetica Neue&quot;, sans-serif; font-size: 12px; font-weight: 200;" x="599.6791664759319" y="0" dx="0em" dy="0.95em" fill="rgb(50, 49, 63)" stroke="none" stroke-width="1px">20</text><text style="text-anchor: middle; visibility: inherit; font-family: &quot;Helvetica Neue&quot;, sans-serif; font-size: 12px; font-weight: 200;" x="719.6149997711182" y="0" dx="0em" dy="0.95em" fill="rgb(50, 49, 63)" stroke="none" stroke-width="1px">25</text><text style="text-anchor: middle; visibility: inherit; font-family: &quot;Helvetica Neue&quot;, sans-serif; font-size: 12px; font-weight: 200;" x="839.5508330663046" y="0" dx="0em" dy="0.95em" fill="rgb(50, 49, 63)" stroke="none" stroke-width="1px">30</text><text style="text-anchor: middle; visibility: inherit; font-family: &quot;Helvetica Neue&quot;, sans-serif; font-size: 12px; font-weight: 200;" x="959.4866663614908" y="0" dx="0em" dy="0.95em" fill="rgb(50, 49, 63)" stroke="none" stroke-width="1px">35</text><text style="text-anchor: middle; visibility: inherit; font-family: &quot;Helvetica Neue&quot;, sans-serif; font-size: 12px; font-weight: 200;" x="1079.4224996566772" y="0" dx="0em" dy="0.95em" fill="rgb(50, 49, 63)" stroke="none" stroke-width="1px">40</text><text style="text-anchor: middle; visibility: inherit; font-family: &quot;Helvetica Neue&quot;, sans-serif; font-size: 12px; font-weight: 200;" x="1199.3583329518638" y="0" dx="0em" dy="0.95em" fill="rgb(50, 49, 63)" stroke="none" stroke-width="1px">45</text><text style="text-anchor: middle; visibility: inherit; font-family: &quot;Helvetica Neue&quot;, sans-serif; font-size: 12px; font-weight: 200;" x="1319.2941662470498" y="0" dx="0em" dy="0.95em" fill="rgb(50, 49, 63)" stroke="none" stroke-width="1px">50</text><text style="text-anchor: middle; visibility: hidden; font-family: &quot;Helvetica Neue&quot;, sans-serif; font-size: 12px; font-weight: 200;" x="1439.2299995422363" y="0" dx="0em" dy="0.95em" fill="rgb(50, 49, 63)" stroke="none" stroke-width="1px">55</text></g><line x1="0" y1="0" x2="1439.2299995422363" y2="0" fill="rgb(0, 0, 0)" stroke="rgb(204, 204, 204)" stroke-width="1px"></line></g></g></g></g></svg>