<svg viewBox="0 0 1501 400" xmlns="http://www.w3.org/2000/svg"><g><g><g><g><g><line x1="61.77000045776367" y1="377.95999908447266" x2="56.77000045776367" y2="377.95999908447266" style="visibility: inherit;" fill="rgb(0, 0, 0)" stroke="rgb(204, 204, 204)" stroke-width="1px"></line><line x1="61.77000045776367" y1="343.59999916770244" x2="56.77000045776367" y2="343.59999916770244" style="visibility: inherit;" fill="rgb(0, 0, 0)" stroke="rgb(204, 204, 204)" stroke-width="1px"></line><line x1="61.77000045776367" y1="309.23999925093216" x2="56.77000045776367" y2="309.23999925093216" style="visibility: inherit;" fill="rgb(0, 0, 0)" stroke="rgb(204, 204, 204)" stroke-width="1px"></line><line x1="61.77000045776367" y1="274.87999933416194" x2="56.77000045776367" y2="274.87999933416194" style="visibility: inherit;" fill="rgb(0, 0, 0)" stroke="rgb(204, 204, 204)" stroke-width="1px"></line><line x1="61.77000045776367" y1="240.5199994173917" x2="56.77000045776367" y2="240.5199994173917" style="visibility: inherit;" fill="rgb(0, 0, 0)" stroke="rgb(204, 204, 204)" stroke-width="1px"></line><line x1="61.77000045776367" y1="206.15999950062144" x2="56.77000045776367" y2="206.15999950062144" style="visibility: inherit;" fill="rgb(0, 0, 0)" stroke="rgb(204, 204, 204)" stroke-width="1px"></line><line x1="61.77000045776367" y1="171.7999995838512" x2="56.77000045776367" y2="171.7999995838512" style="visibility: inherit;" fill="rgb(0, 0, 0)" stroke="rgb(204, 204, 204)" stroke-width="1px"></line><line x1="61.77000045776367" y1="137.43999966708103" x2="56.77000045776367" y2="137.43999966708103" style="visibility: inherit;" fill="rgb(0, 0, 0)" stroke="rgb(204, 204, 204)" stroke-width="1px"></line><line x1="61.77000045776367" y1="103.07999975031072" x2="56.77000045776367" y2="103.07999975031072" style="visibility: inherit;" fill="rgb(0, 0, 0)" stroke="rgb(204, 204, 204)" stroke-width="1px"></line><line x1="61.77000045776367" y1="68.7199998335405" x2="56.77000045776367" y2="68.7199998335405" style="visibility: inherit;" fill="rgb(0, 0, 0)" stroke="rgb(204, 204, 204)" stroke-width="1px"></line><line x1="61.77000045776367" y1="34.35999991677028" x2="56.77000045776367" y2="34.35999991677028" style="visibility: inherit;" fill="rgb(0, 0, 0)" stroke="rgb(204, 204, 204)" stroke-width="1px"></line><line x1="61.77000045776367" y1="0" x2="56.77000045776367" y2="0" style="visibility: inherit;" fill="rgb(0, 0, 0)" stroke="rgb(204, 204, 204)" stroke-width="1px"></line></g><g transform="translate(51.77000045776367, 0)"><text style="text-anchor: end; visibility: hidden; font-family: &quot;Helvetica Neue&quot;, sans-serif; font-size: 12px; font-weight: 200;" x="0" y="377.95999908447266" dx="0em" dy="0.3em" fill="rgb(50, 49, 63)" stroke="none" stroke-width="1px">-5e-3</text><text style="text-anchor: end; visibility: inherit; font-family: &quot;Helvetica Neue&quot;, sans-serif; font-size: 12px; font-weight: 200;" x="0" y="343.59999916770244" dx="0em" dy="0.3em" fill="rgb(50, 49, 63)" stroke="none" stroke-width="1px">0</text><text style="text-anchor: end; visibility: inherit; font-family: &quot;Helvetica Neue&quot;, sans-serif; font-size: 12px; font-weight: 200;" x="0" y="309.23999925093216" dx="0em" dy="0.3em" fill="rgb(50, 49, 63)" stroke="none" stroke-width="1px">5e-3</text><text style="text-anchor: end; visibility: inherit; font-family: &quot;Helvetica Neue&quot;, sans-serif; font-size: 12px; font-weight: 200;" x="0" y="274.87999933416194" dx="0em" dy="0.3em" fill="rgb(50, 49, 63)" stroke="none" stroke-width="1px">0.01</text><text style="text-anchor: end; visibility: inherit; font-family: &quot;Helvetica Neue&quot;, sans-serif; font-size: 12px; font-weight: 200;" x="0" y="240.5199994173917" dx="0em" dy="0.3em" fill="rgb(50, 49, 63)" stroke="none" stroke-width="1px">0.015</text><text style="text-anchor: end; visibility: inherit; font-family: &quot;Helvetica Neue&quot;, sans-serif; font-size: 12px; font-weight: 200;" x="0" y="206.15999950062144" dx="0em" dy="0.3em" fill="rgb(50, 49, 63)" stroke="none" stroke-width="1px">0.02</text><text style="text-anchor: end; visibility: inherit; font-family: &quot;Helvetica Neue&quot;, sans-serif; font-size: 12px; font-weight: 200;" x="0" y="171.7999995838512" dx="0em" dy="0.3em" fill="rgb(50, 49, 63)" stroke="none" stroke-width="1px">0.025</text><text style="text-anchor: end; visibility: inherit; font-family: &quot;Helvetica Neue&quot;, sans-serif; font-size: 12px; font-weight: 200;" x="0" y="137.43999966708103" dx="0em" dy="0.3em" fill="rgb(50, 49, 63)" stroke="none" stroke-width="1px">0.03</text><text style="text-anchor: end; visibility: inherit; font-family: &quot;Helvetica Neue&quot;, sans-serif; font-size: 12px; font-weight: 200;" x="0" y="103.07999975031072" dx="0em" dy="0.3em" fill="rgb(50, 49, 63)" stroke="none" stroke-width="1px">0.035</text><text style="text-anchor: end; visibility: inherit; font-family: &quot;Helvetica Neue&quot;, sans-serif; font-size: 12px; font-weight: 200;" x="0" y="68.7199998335405" dx="0em" dy="0.3em" fill="rgb(50, 49, 63)" stroke="none" stroke-width="1px">0.04</text><text style="text-anchor: end; visibility: inherit; font-family: &quot;Helvetica Neue&quot;, sans-serif; font-size: 12px; font-weight: 200;" x="0" y="34.35999991677028" dx="0em" dy="0.3em" fill="rgb(50, 49, 63)" stroke="none" stroke-width="1px">0.045</text><text style="text-anchor: end; visibility: hidden; font-family: &quot;Helvetica Neue&quot;, sans-serif; font-size: 12px; font-weight: 200;" x="0" y="0" dx="0em" dy="0.3em" fill="rgb(50, 49, 63)" stroke="none" stroke-width="1px">0.05</text></g><line x1="61.77000045776367" y1="0" x2="61.77000045776367" y2="377.95999908447266" fill="rgb(0, 0, 0)" stroke="rgb(204, 204, 204)" stroke-width="1px"></line></g></g><g transform="translate(61, 0)" clip-path="url(#clip_0)"><clipPath id="clip_0"><rect width="1439" height="377"></rect></clipPath><g><g><g><line x1="0" y1="0" x2="0" y2="377.95999908447266" fill="rgb(0, 0, 0)" stroke="rgb(60, 60, 60)" stroke-width="1px" opacity="0.25"></line><line x1="119.93583329518636" y1="0" x2="119.93583329518636" y2="377.95999908447266" fill="rgb(0, 0, 0)" stroke="rgb(60, 60, 60)" stroke-width="1px" opacity="0.25"></line><line x1="239.8716665903727" y1="0" x2="239.8716665903727" y2="377.95999908447266" fill="rgb(0, 0, 0)" stroke="rgb(60, 60, 60)" stroke-width="1px" opacity="0.25"></line><line x1="359.8074998855591" y1="0" x2="359.8074998855591" y2="377.95999908447266" fill="rgb(0, 0, 0)" stroke="rgb(60, 60, 60)" stroke-width="1px" opacity="0.25"></line><line x1="479.7433331807454" y1="0" x2="479.7433331807454" y2="377.95999908447266" fill="rgb(0, 0, 0)" stroke="rgb(60, 60, 60)" stroke-width="1px" opacity="0.25"></line><line x1="599.6791664759319" y1="0" x2="599.6791664759319" y2="377.95999908447266" fill="rgb(0, 0, 0)" stroke="rgb(60, 60, 60)" stroke-width="1px" opacity="0.25"></line><line x1="719.6149997711182" y1="0" x2="719.6149997711182" y2="377.95999908447266" fill="rgb(0, 0, 0)" stroke="rgb(60, 60, 60)" stroke-width="1px" opacity="0.25"></line><line x1="839.5508330663046" y1="0" x2="839.5508330663046" y2="377.95999908447266" fill="rgb(0, 0, 0)" stroke="rgb(60, 60, 60)" stroke-width="1px" opacity="0.25"></line><line x1="959.4866663614908" y1="0" x2="959.4866663614908" y2="377.95999908447266" fill="rgb(0, 0, 0)" stroke="rgb(60, 60, 60)" stroke-width="1px" opacity="0.25"></line><line x1="1079.4224996566772" y1="0" x2="1079.4224996566772" y2="377.95999908447266" fill="rgb(0, 0, 0)" stroke="rgb(60, 60, 60)" stroke-width="1px" opacity="0.25"></line><line x1="1199.3583329518638" y1="0" x2="1199.3583329518638" y2="377.95999908447266" fill="rgb(0, 0, 0)" stroke="rgb(60, 60, 60)" stroke-width="1px" opacity="0.25"></line><line x1="1319.2941662470498" y1="0" x2="1319.2941662470498" y2="377.95999908447266" fill="rgb(0, 0, 0)" stroke="rgb(60, 60, 60)" stroke-width="1px" opacity="0.25"></line><line x1="1439.2299995422363" y1="0" x2="1439.2299995422363" y2="377.95999908447266" fill="rgb(0, 0, 0)" stroke="rgb(60, 60, 60)" stroke-width="1px" opacity="0.25"></line></g><g><line x1="0" y1="377.95999908447266" x2="1439.2299995422363" y2="377.95999908447266" fill="rgb(0, 0, 0)" stroke="rgb(60, 60, 60)" stroke-width="1px" opacity="0.25"></line><line x1="0" y1="343.59999916770244" x2="1439.2299995422363" y2="343.59999916770244" fill="rgb(0, 0, 0)" stroke="rgb(60, 60, 60)" stroke-width="1px" opacity="0.25"></line><line x1="0" y1="309.23999925093216" x2="1439.2299995422363" y2="309.23999925093216" fill="rgb(0, 0, 0)" stroke="rgb(60, 60, 60)" stroke-width="1px" opacity="0.25"></line><line x1="0" y1="274.87999933416194" x2="1439.2299995422363" y2="274.87999933416194" fill="rgb(0, 0, 0)" stroke="rgb(60, 60, 60)" stroke-width="1px" opacity="0.25"></line><line x1="0" y1="240.5199994173917" x2="1439.2299995422363" y2="240.5199994173917" fill="rgb(0, 0, 0)" stroke="rgb(60, 60, 60)" stroke-width="1px" opacity="0.25"></line><line x1="0" y1="206.15999950062144" x2="1439.2299995422363" y2="206.15999950062144" fill="rgb(0, 0, 0)" stroke="rgb(60, 60, 60)" stroke-width="1px" opacity="0.25"></line><line x1="0" y1="171.7999995838512" x2="1439.2299995422363" y2="171.7999995838512" fill="rgb(0, 0, 0)" stroke="rgb(60, 60, 60)" stroke-width="1px" opacity="0.25"></line><line x1="0" y1="137.43999966708103" x2="1439.2299995422363" y2="137.43999966708103" fill="rgb(0, 0, 0)" stroke="rgb(60, 60, 60)" stroke-width="1px" opacity="0.25"></line><line x1="0" y1="103.07999975031072" x2="1439.2299995422363" y2="103.07999975031072" fill="rgb(0, 0, 0)" stroke="rgb(60, 60, 60)" stroke-width="1px" opacity="0.25"></line><line x1="0" y1="68.7199998335405" x2="1439.2299995422363" y2="68.7199998335405" fill="rgb(0, 0, 0)" stroke="rgb(60, 60, 60)" stroke-width="1px" opacity="0.25"></line><line x1="0" y1="34.35999991677028" x2="1439.2299995422363" y2="34.35999991677028" fill="rgb(0, 0, 0)" stroke="rgb(60, 60, 60)" stroke-width="1px" opacity="0.25"></line><line x1="0" y1="0" x2="1439.2299995422363" y2="0" fill="rgb(0, 0, 0)" stroke="rgb(60, 60, 60)" stroke-width="1px" opacity="0.25"></line></g></g></g><g><g><line x1="0" y1="343.59999916770244" x2="1439.2299995422363" y2="343.59999916770244" fill="rgb(0, 0, 0)" stroke="rgb(153, 153, 153)" stroke-width="1.5px"></line></g></g><g><g><line x1="119.93583329518636" y1="0" x2="119.93583329518636" y2="377.95999908447266" fill="rgb(0, 0, 0)" stroke="rgb(153, 153, 153)" stroke-width="1.5px"></line></g></g><g><g><g><g><g><path style="fill: none;" stroke="rgb(0, 119, 187)" stroke-width="2px" d="M119.93583329518636,64.15789765075885L131.929416624705,145.63622986489275L143.92299995422363,185.47164656199516L155.91658328374228,206.62273997736096L167.9101666132609,217.17899474082205L179.90374994277954,224.5110419043912L191.89733327229817,232.354381469776L203.8909166018168,234.25293744676205L215.88449993133545,235.7361593506025L227.87808326085408,236.44233979913722L239.8716665903727,230.70295831555705L251.86524991989134,233.45021338985134L263.85883324941,203.3630087338899L275.8524165789286,212.79306982713743L287.84599990844725,221.5869114814054L299.83958323796594,219.46885996613543L311.83316656748457,228.33426642094457L323.8267498970032,209.8115854546922L335.8203332265218,219.847351827161L347.81391655604045,225.08577831935298L359.8074998855591,227.93221903486932L371.80108321507777,229.50367458768704L383.79466654459634,236.76022236225685L395.788249874115,232.88294197231946L407.7818332036336,220.49898274405083L419.7754165331523,232.21850929529916L431.7689998626709,239.02903676159613L443.76258319218954,240.18578356134134L455.75616652170817,241.29378905014036L467.7497498512268,242.67086646144452L479.7433331807454,245.40030825298368L491.7369165102641,245.76948077946392L503.7304998397827,250.69784144996663L515.7240831693014,251.2940716636783L527.71766649882,249.1814805343273L539.7112498283386,245.65400977413896L551.7048331578573,246.70648076303803L563.6984164873759,235.77240967211776L575.6919998168945,241.74849001965725L587.6855831464131,245.85025094900666L599.6791664759319,249.58380615040417L611.6727498054504,247.82966118290682L623.6663331349691,243.19380996529844L635.6599164644877,238.38152025692204L647.6534997940064,248.50137504497667L659.6470831235249,250.22417833138576L671.6406664530437,250.59178419295742L683.6342497825623,254.68572631418732L695.6278331120809,254.76741495076476L707.6214164415995,254.43084055760968L719.6149997711182,247.95151309816757L731.6085831006368,241.48825797656747L743.6021664301555,249.18040513539444L755.595749759674,247.1396504447885L767.5893330891927,249.2601523722678L779.5829164187113,249.70436658534553L791.57649974823,248.63029994856376L803.5700830777487,247.02999989047532L815.5636664072672,250.84890007404408L827.5572497367858,247.16055178671832L839.5508330663046,250.60103864880762L851.5444163958232,257.84125496526417L863.5379997253418,258.671962810924L875.5315830548603,260.6934941522276L887.5251663843791,258.3332811182833L899.5187497138977,261.1941676146058L911.5123330434163,259.1901284713638L923.5059163729351,262.4183076712243L935.4994997024536,261.04805913702535L947.4930830319722,256.5186664369192L959.4866663614908,259.7132191805109L971.4802496910096,258.4973804214989L983.4738330205282,258.26274173300726L995.4674163500467,257.24910963577514L1007.4609996795654,256.9859749239195L1019.4545830090841,257.813862880491L1031.4481663386027,256.4692069177587L1043.4417496681212,258.43648373637956L1055.43533299764,256.3838754581087L1067.4289163271587,254.9668037990669L1079.4224996566772,258.1213503281522L1091.4160829861958,261.67212862670465L1103.4096663157145,260.19948337889855L1115.4032496452332,259.69943834974254L1127.3968329747518,260.57498252071224L1139.3904163042703,261.6142636555235L1151.383999633789,265.3561767132885L1163.3775829633078,265.7272085221518L1175.3711662928263,265.1937616922861L1187.364749622345,262.4827173142238L1199.3583329518638,258.0054219480586L1211.3519162813823,255.68596720137816L1223.3454996109008,258.43353354131295L1235.3390829404195,256.05765359133784L1247.3326662699383,256.68839471370006L1259.3262495994568,255.51819143878888L1271.3198329289753,252.9009265757493L1283.313416258494,257.9541931170495L1295.3069995880128,262.96884461410383L1307.3005829175313,260.3544323884405L1319.2941662470498,260.0627355732066" fill="none"></path></g><g><path style="fill: none;" stroke="rgb(255, 112, 67)" stroke-width="2px" d="M119.93583329518636,80.28525241239493L131.929416624705,67.01391939083379L143.92299995422363,166.83820905055492L155.91658328374228,209.2181300864457L167.9101666132609,248.61447220157962L179.90374994277954,266.6009144713564L191.89733327229817,282.36043263381043L203.8909166018168,287.4154617757356L215.88449993133545,294.638521489466L227.87808326085408,294.3783741025565L239.8716665903727,296.8359214467818L251.86524991989134,296.92587672394933L263.85883324941,306.33409681818614L275.8524165789286,307.70201289100896L287.84599990844725,309.4286277045037L299.83958323796594,314.0125314971446L311.83316656748457,310.2068167726731L323.8267498970032,316.1084224202989L335.8203332265218,306.081818113871L347.81391655604045,307.9909051105583L359.8074998855591,310.7769831959146L371.80108321507777,310.9613549150919L383.79466654459634,317.3094939327291L395.788249874115,320.949608453969L407.7818332036336,324.84451473475804L419.7754165331523,325.7660993482955L431.7689998626709,327.9882491246713L443.76258319218954,327.92945216347545L455.75616652170817,328.29787067155416L467.7497498512268,328.75117822880907L479.7433331807454,328.96780419029216L491.7369165102641,330.4201912002508L503.7304998397827,329.45044442925087L515.7240831693014,329.1725583987591L527.71766649882,328.6226072218995L539.7112498283386,325.65018886023296L551.7048331578573,329.15538327282223L563.6984164873759,327.8022799848677L575.6919998168945,323.8983938318932L587.6855831464131,328.1312213246622L599.6791664759319,330.925886797734L611.6727498054504,328.6659514717726L623.6663331349691,325.07595343072893L635.6599164644877,328.8384790044525L647.6534997940064,330.2220366556012L659.6470831235249,331.26568423147535L671.6406664530437,332.0049315575673L683.6342497825623,332.87988675708874L695.6278331120809,332.69019843676716L707.6214164415995,332.48662732133505L719.6149997711182,331.6110565169684L731.6085831006368,332.9453029095714L743.6021664301555,333.5074777306318L755.595749759674,334.155150745794L767.5893330891927,334.276885643481L779.5829164187113,335.57985162429924L791.57649974823,335.6882896073045L803.5700830777487,334.0731344872667L815.5636664072672,334.2145711486111L827.5572497367858,326.56033167527545L839.5508330663046,330.98987970755513L851.5444163958232,332.04173390298405L863.5379997253418,333.9719503890379L875.5315830548603,335.39856328436633L887.5251663843791,335.73949222108126L899.5187497138977,336.19631582336416L911.5123330434163,336.249072619911L923.5059163729351,335.03580682149266L935.4994997024536,335.8693449885822L947.4930830319722,336.1909186897171L959.4866663614908,336.15784486994573L971.4802496910096,336.56177084382773L983.4738330205282,336.5708318523156L995.4674163500467,337.06743427616897L1007.4609996795654,336.67459543210003L1019.4545830090841,336.60319225631343L1031.4481663386027,336.7936458866901L1043.4417496681212,335.96371087759866L1055.43533299764,336.2072819166955L1067.4289163271587,337.0994350187951L1079.4224996566772,337.44794497826854L1091.4160829861958,337.7162694847249L1103.4096663157145,337.03730947485235L1115.4032496452332,337.3899680543221L1127.3968329747518,335.2115120489032L1139.3904163042703,336.59418692005255L1151.383999633789,337.4803221930519L1163.3775829633078,337.68567943286956L1175.3711662928263,338.32885373470214L1187.364749622345,338.0471031536018L1199.3583329518638,338.2449312776254L1211.3519162813823,337.69592770949504L1223.3454996109008,337.78078952199945L1235.3390829404195,337.8923541111517L1247.3326662699383,337.48997217216777L1259.3262495994568,334.0948358027168L1271.3198329289753,336.24230775392436L1283.313416258494,337.863363136193L1295.3069995880128,338.26659963129873L1307.3005829175313,338.2959373500164L1319.2941662470498,338.5812770592652" fill="none"></path></g></g></g></g><g opacity="0.2"><g><g><g><path style="fill: none;" stroke="rgb(0, 119, 187)" stroke-width="2px" d="M119.93583329518636,64.15789765075885L131.929416624705,194.52322919337317L143.92299995422363,223.71364659121343L155.91658328374228,231.49642583383115L167.9101666132609,230.96124095999687L179.90374994277954,234.65390266858626L191.89733327229817,243.57048254170925L203.8909166018168,237.021050287345L215.88449993133545,237.92362355774458L227.87808326085408,237.49093546411711L239.8716665903727,222.14594185782443L251.86524991989134,237.55614556049724L263.85883324941,158.33044169339982L275.8524165789286,226.91968699563506L287.84599990844725,234.76733713205087L299.83958323796594,216.293276507259L311.83316656748457,241.62862456026082L323.8267498970032,182.0322669120044L335.8203332265218,234.89947253786733L347.81391655604045,232.94293924471023L359.8074998855591,232.20172400257007L371.80108321507777,231.86080620749937L383.79466654459634,247.64490075623416L395.788249874115,227.067067317496L407.7818332036336,201.92313192152983L419.7754165331523,249.79774914374434L431.7689998626709,249.24481053476842L443.76258319218954,241.92090198508043L455.75616652170817,242.95579626270924L467.7497498512268,244.73648181731105L479.7433331807454,249.49447003517977L491.7369165102641,246.32323949573131L503.7304998397827,258.0903818673735L515.7240831693014,252.188416941539L527.71766649882,246.0125939310932L539.7112498283386,240.36280372481602L551.7048331578573,248.28518723010322L563.6984164873759,219.37130313723807L575.6919998168945,250.71261050768106L587.6855831464131,252.00289232932323L599.6791664759319,255.18413894501418L611.6727498054504,245.1984437337712L623.6663331349691,236.24003314223222L635.6599164644877,231.16308569644164L647.6534997940064,263.68115722442883L659.6470831235249,252.80838326073075L671.6406664530437,251.1431929852805L683.6342497825623,260.8266394958024L695.6278331120809,254.88994790562816L707.6214164415995,253.92597896788394L719.6149997711182,238.23252190908286L731.6085831006368,231.79337529421434L743.6021664301555,260.71862587360135L755.595749759674,244.07851840888495L767.5893330891927,252.44090526348342L779.5829164187113,250.3706879049617L791.57649974823,247.01919999339174L803.5700830777487,244.62954980334314L815.5636664072672,256.5772503493965L827.5572497367858,241.62802935573012L839.5508330663046,255.7617689419413L851.5444163958232,268.7015794399486L863.5379997253418,259.9180245794138L875.5315830548603,263.72579116418297L887.5251663843791,254.79296156736686L899.5187497138977,265.4854973590896L911.5123330434163,256.18406975650066L923.5059163729351,267.2605764710151L935.4994997024536,258.99268633572694L947.4930830319722,249.72457738675996L959.4866663614908,264.5050482958985L971.4802496910096,256.6736222829809L983.4738330205282,257.91078370026986L995.4674163500467,255.72866148992694L1007.4609996795654,256.591272856136L1019.4545830090841,259.05569481534826L1031.4481663386027,254.4522229736602L1043.4417496681212,261.3873989643109L1055.43533299764,253.30496304070255L1067.4289163271587,252.84119631050413L1079.4224996566772,262.8531701217802L1091.4160829861958,266.9982960745333L1103.4096663157145,257.9905155071894L1115.4032496452332,258.9493708060085L1127.3968329747518,261.8882987771668L1139.3904163042703,263.1731853577403L1151.383999633789,270.9690462999361L1163.3775829633078,266.2837562354467L1175.3711662928263,264.3935914474875L1187.364749622345,258.4161507471305L1199.3583329518638,251.2894788988108L1211.3519162813823,252.2067850813575L1223.3454996109008,262.55488305121503L1235.3390829404195,252.4938336663751L1247.3326662699383,257.6345063972434L1259.3262495994568,253.76288652642214L1271.3198329289753,248.97502928118996L1283.313416258494,265.5340929289997L1295.3069995880128,270.4908218596854L1307.3005829175313,256.4328140499455L1319.2941662470498,259.62519035035575" fill="none"></path></g><g><path style="fill: none;" stroke="rgb(255, 112, 67)" stroke-width="2px" d="M119.93583329518636,80.28525241239493L131.929416624705,59.05111957789711L143.92299995422363,262.66952712388724L155.91658328374228,259.05691722465326L167.9101666132609,300.0503364670985L179.90374994277954,291.48263924967483L191.89733327229817,304.8967957584102L203.8909166018168,294.78574279294236L215.88449993133545,305.2911315600995L227.87808326085408,293.992085551613L239.8716665903727,300.49995268958304L251.86524991989134,297.0603201070547L263.85883324941,320.4157074885699L275.8524165789286,309.7512071102531L287.84599990844725,312.0165203538472L299.83958323796594,320.8851542620049L311.83316656748457,304.49985513689296L323.8267498970032,324.95933247470293L335.8203332265218,291.04343910647754L347.81391655604045,310.8543611074758L359.8074998855591,314.9559475288055L371.80108321507777,311.23790642702784L383.79466654459634,326.8315771262538L395.788249874115,326.4097371152021L407.7818332036336,330.68684647261466L419.7754165331523,327.14847233846433L431.7689998626709,331.3214681033628L443.76258319218954,327.8412568119488L455.75616652170817,328.8504980943067L467.7497498512268,329.4311393141553L479.7433331807454,329.2927430606812L491.7369165102641,332.59877142621247L503.7304998397827,327.9958243885192L515.7240831693014,328.75572937292594L527.71766649882,327.7976804802452L539.7112498283386,321.19156139438L551.7048331578573,334.4131748374751L563.6984164873759,325.7726250654968L575.6919998168945,318.04256462417527L587.6855831464131,334.48046254967L599.6791664759319,335.1178850017381L611.6727498054504,325.2760484855494L623.6663331349691,319.6909563717549L635.6599164644877,334.48226736340825L647.6534997940064,332.2973731319647L659.6470831235249,332.83115559512385L671.6406664530437,333.1138025466361L683.6342497825623,334.19231955632176L695.6278331120809,332.4056659562911L707.6214164415995,332.1812706481911L719.6149997711182,330.297700310429L731.6085831006368,334.9466724984663L743.6021664301555,334.35073996221996L755.595749759674,335.12666026853555L767.5893330891927,334.4594879900114L779.5829164187113,337.5343005955253L791.57649974823,335.8509465818124L803.5700830777487,331.6504018072105L815.5636664072672,334.42672614062775L827.5572497367858,315.0789724652729L839.5508330663046,337.63420175597423L851.5444163958232,333.61951519612745L863.5379997253418,336.8672751181186L875.5315830548603,337.538482627359L887.5251663843791,336.2508856261537L899.5187497138977,336.88155122678853L911.5123330434163,336.32820781473123L923.5059163729351,333.2159081238651L935.4994997024536,337.1196522392166L947.4930830319722,336.67327924141944L959.4866663614908,336.10823414028874L971.4802496910096,337.1676598046508L983.4738330205282,336.58442336504737L995.4674163500467,337.812337911949L1007.4609996795654,336.08533716599663L1019.4545830090841,336.49608749263354L1031.4481663386027,337.0793263322552L1043.4417496681212,334.71880836396144L1055.43533299764,336.5726384753406L1067.4289163271587,338.4376646719445L1079.4224996566772,337.97070991747876L1091.4160829861958,338.1187562444094L1103.4096663157145,336.0188694600436L1115.4032496452332,337.9189559235267L1127.3968329747518,331.94382804077486L1139.3904163042703,338.66819922677655L1151.383999633789,338.809525102551L1163.3775829633078,337.993715292596L1175.3711662928263,339.29361518745105L1187.364749622345,337.6244772819514L1199.3583329518638,338.5416734636608L1211.3519162813823,336.87242235729946L1223.3454996109008,337.9080822407561L1235.3390829404195,338.05970099488L1247.3326662699383,336.8863992636918L1259.3262495994568,329.00213124854025L1271.3198329289753,339.46351568073584L1283.313416258494,340.29494620959593L1295.3069995880128,338.87145437395736L1307.3005829175313,338.3399439280929L1319.2941662470498,339.0092866231383" fill="none"></path></g></g></g></g></g></g><g transform="translate(61, 377)" clip-path="url(#clip_1)"><clipPath id="clip_1"><rect width="1439" height="22"></rect></clipPath><g><g><line x1="0" y1="0" x2="0" y2="5" style="visibility: inherit;" fill="rgb(0, 0, 0)" stroke="rgb(204, 204, 204)" stroke-width="1px"></line><line x1="119.93583329518636" y1="0" x2="119.93583329518636" y2="5" style="visibility: inherit;" fill="rgb(0, 0, 0)" stroke="rgb(204, 204, 204)" stroke-width="1px"></line><line x1="239.8716665903727" y1="0" x2="239.8716665903727" y2="5" style="visibility: inherit;" fill="rgb(0, 0, 0)" stroke="rgb(204, 204, 204)" stroke-width="1px"></line><line x1="359.8074998855591" y1="0" x2="359.8074998855591" y2="5" style="visibility: inherit;" fill="rgb(0, 0, 0)" stroke="rgb(204, 204, 204)" stroke-width="1px"></line><line x1="479.7433331807454" y1="0" x2="479.7433331807454" y2="5" style="visibility: inherit;" fill="rgb(0, 0, 0)" stroke="rgb(204, 204, 204)" stroke-width="1px"></line><line x1="599.6791664759319" y1="0" x2="599.6791664759319" y2="5" style="visibility: inherit;" fill="rgb(0, 0, 0)" stroke="rgb(204, 204, 204)" stroke-width="1px"></line><line x1="719.6149997711182" y1="0" x2="719.6149997711182" y2="5" style="visibility: inherit;" fill="rgb(0, 0, 0)" stroke="rgb(204, 204, 204)" stroke-width="1px"></line><line x1="839.5508330663046" y1="0" x2="839.5508330663046" y2="5" style="visibility: inherit;" fill="rgb(0, 0, 0)" stroke="rgb(204, 204, 204)" stroke-width="1px"></line><line x1="959.4866663614908" y1="0" x2="959.4866663614908" y2="5" style="visibility: inherit;" fill="rgb(0, 0, 0)" stroke="rgb(204, 204, 204)" stroke-width="1px"></line><line x1="1079.4224996566772" y1="0" x2="1079.4224996566772" y2="5" style="visibility: inherit;" fill="rgb(0, 0, 0)" stroke="rgb(204, 204, 204)" stroke-width="1px"></line><line x1="1199.3583329518638" y1="0" x2="1199.3583329518638" y2="5" style="visibility: inherit;" fill="rgb(0, 0, 0)" stroke="rgb(204, 204, 204)" stroke-width="1px"></line><line x1="1319.2941662470498" y1="0" x2="1319.2941662470498" y2="5" style="visibility: inherit;" fill="rgb(0, 0, 0)" stroke="rgb(204, 204, 204)" stroke-width="1px"></line><line x1="1439.2299995422363" y1="0" x2="1439.2299995422363" y2="5" style="visibility: inherit;" fill="rgb(0, 0, 0)" stroke="rgb(204, 204, 204)" stroke-width="1px"></line></g><g transform="translate(0, 8)"><text style="text-anchor: middle; visibility: hidden; font-family: &quot;Helvetica Neue&quot;, sans-serif; font-size: 12px; font-weight: 200;" x="0" y="0" dx="0em" dy="0.95em" fill="rgb(50, 49, 63)" stroke="none" stroke-width="1px">-10</text><text style="text-anchor: middle; visibility: inherit; font-family: &quot;Helvetica Neue&quot;, sans-serif; font-size: 12px; font-weight: 200;" x="119.93583329518636" y="0" dx="0em" dy="0.95em" fill="rgb(50, 49, 63)" stroke="none" stroke-width="1px">0</text><text style="text-anchor: middle; visibility: inherit; font-family: &quot;Helvetica Neue&quot;, sans-serif; font-size: 12px; font-weight: 200;" x="239.8716665903727" y="0" dx="0em" dy="0.95em" fill="rgb(50, 49, 63)" stroke="none" stroke-width="1px">10</text><text style="text-anchor: middle; visibility: inherit; font-family: &quot;Helvetica Neue&quot;, sans-serif; font-size: 12px; font-weight: 200;" x="359.8074998855591" y="0" dx="0em" dy="0.95em" fill="rgb(50, 49, 63)" stroke="none" stroke-width="1px">20</text><text style="text-anchor: middle; visibility: inherit; font-family: &quot;Helvetica Neue&quot;, sans-serif; font-size: 12px; font-weight: 200;" x="479.7433331807454" y="0" dx="0em" dy="0.95em" fill="rgb(50, 49, 63)" stroke="none" stroke-width="1px">30</text><text style="text-anchor: middle; visibility: inherit; font-family: &quot;Helvetica Neue&quot;, sans-serif; font-size: 12px; font-weight: 200;" x="599.6791664759319" y="0" dx="0em" dy="0.95em" fill="rgb(50, 49, 63)" stroke="none" stroke-width="1px">40</text><text style="text-anchor: middle; visibility: inherit; font-family: &quot;Helvetica Neue&quot;, sans-serif; font-size: 12px; font-weight: 200;" x="719.6149997711182" y="0" dx="0em" dy="0.95em" fill="rgb(50, 49, 63)" stroke="none" stroke-width="1px">50</text><text style="text-anchor: middle; visibility: inherit; font-family: &quot;Helvetica Neue&quot;, sans-serif; font-size: 12px; font-weight: 200;" x="839.5508330663046" y="0" dx="0em" dy="0.95em" fill="rgb(50, 49, 63)" stroke="none" stroke-width="1px">60</text><text style="text-anchor: middle; visibility: inherit; font-family: &quot;Helvetica Neue&quot;, sans-serif; font-size: 12px; font-weight: 200;" x="959.4866663614908" y="0" dx="0em" dy="0.95em" fill="rgb(50, 49, 63)" stroke="none" stroke-width="1px">70</text><text style="text-anchor: middle; visibility: inherit; font-family: &quot;Helvetica Neue&quot;, sans-serif; font-size: 12px; font-weight: 200;" x="1079.4224996566772" y="0" dx="0em" dy="0.95em" fill="rgb(50, 49, 63)" stroke="none" stroke-width="1px">80</text><text style="text-anchor: middle; visibility: inherit; font-family: &quot;Helvetica Neue&quot;, sans-serif; font-size: 12px; font-weight: 200;" x="1199.3583329518638" y="0" dx="0em" dy="0.95em" fill="rgb(50, 49, 63)" stroke="none" stroke-width="1px">90</text><text style="text-anchor: middle; visibility: inherit; font-family: &quot;Helvetica Neue&quot;, sans-serif; font-size: 12px; font-weight: 200;" x="1319.2941662470498" y="0" dx="0em" dy="0.95em" fill="rgb(50, 49, 63)" stroke="none" stroke-width="1px">100</text><text style="text-anchor: middle; visibility: hidden; font-family: &quot;Helvetica Neue&quot;, sans-serif; font-size: 12px; font-weight: 200;" x="1439.2299995422363" y="0" dx="0em" dy="0.95em" fill="rgb(50, 49, 63)" stroke="none" stroke-width="1px">110</text></g><line x1="0" y1="0" x2="1439.2299995422363" y2="0" fill="rgb(0, 0, 0)" stroke="rgb(204, 204, 204)" stroke-width="1px"></line></g></g></g></g></svg>