<svg viewBox="0 0 330 200" xmlns="http://www.w3.org/2000/svg"><g><g><g><g><g><line x1="61.77000045776367" y1="177.95999908447266" x2="56.77000045776367" y2="177.95999908447266" style="visibility: inherit;" fill="rgb(0, 0, 0)" stroke="rgb(204, 204, 204)" stroke-width="1px"></line><line x1="61.77000045776367" y1="161.7818173495206" x2="56.77000045776367" y2="161.7818173495206" style="visibility: inherit;" fill="rgb(0, 0, 0)" stroke="rgb(204, 204, 204)" stroke-width="1px"></line><line x1="61.77000045776367" y1="145.60363561456853" x2="56.77000045776367" y2="145.60363561456853" style="visibility: inherit;" fill="rgb(0, 0, 0)" stroke="rgb(204, 204, 204)" stroke-width="1px"></line><line x1="61.77000045776367" y1="129.4254538796165" x2="56.77000045776367" y2="129.4254538796165" style="visibility: inherit;" fill="rgb(0, 0, 0)" stroke="rgb(204, 204, 204)" stroke-width="1px"></line><line x1="61.77000045776367" y1="113.24727214466442" x2="56.77000045776367" y2="113.24727214466442" style="visibility: inherit;" fill="rgb(0, 0, 0)" stroke="rgb(204, 204, 204)" stroke-width="1px"></line><line x1="61.77000045776367" y1="97.06909040971235" x2="56.77000045776367" y2="97.06909040971235" style="visibility: inherit;" fill="rgb(0, 0, 0)" stroke="rgb(204, 204, 204)" stroke-width="1px"></line><line x1="61.77000045776367" y1="80.89090867476028" x2="56.77000045776367" y2="80.89090867476028" style="visibility: inherit;" fill="rgb(0, 0, 0)" stroke="rgb(204, 204, 204)" stroke-width="1px"></line><line x1="61.77000045776367" y1="64.71272693980826" x2="56.77000045776367" y2="64.71272693980826" style="visibility: inherit;" fill="rgb(0, 0, 0)" stroke="rgb(204, 204, 204)" stroke-width="1px"></line><line x1="61.77000045776367" y1="48.53454520485619" x2="56.77000045776367" y2="48.53454520485619" style="visibility: inherit;" fill="rgb(0, 0, 0)" stroke="rgb(204, 204, 204)" stroke-width="1px"></line><line x1="61.77000045776367" y1="32.356363469904124" x2="56.77000045776367" y2="32.356363469904124" style="visibility: inherit;" fill="rgb(0, 0, 0)" stroke="rgb(204, 204, 204)" stroke-width="1px"></line><line x1="61.77000045776367" y1="16.178181734952062" x2="56.77000045776367" y2="16.178181734952062" style="visibility: inherit;" fill="rgb(0, 0, 0)" stroke="rgb(204, 204, 204)" stroke-width="1px"></line><line x1="61.77000045776367" y1="0" x2="56.77000045776367" y2="0" style="visibility: inherit;" fill="rgb(0, 0, 0)" stroke="rgb(204, 204, 204)" stroke-width="1px"></line></g><g transform="translate(51.77000045776367, 0)"><text style="text-anchor: end; visibility: hidden; font-family: &quot;Helvetica Neue&quot;, sans-serif; font-size: 12px; font-weight: 200;" x="0" y="177.95999908447266" dx="0em" dy="0.3em" fill="rgb(50, 49, 63)" stroke="none" stroke-width="1px">-0.01</text><text style="text-anchor: end; visibility: inherit; font-family: &quot;Helvetica Neue&quot;, sans-serif; font-size: 12px; font-weight: 200;" x="0" y="161.7818173495206" dx="0em" dy="0.3em" fill="rgb(50, 49, 63)" stroke="none" stroke-width="1px">0</text><text style="text-anchor: end; visibility: hidden; font-family: &quot;Helvetica Neue&quot;, sans-serif; font-size: 12px; font-weight: 200;" x="0" y="145.60363561456853" dx="0em" dy="0.3em" fill="rgb(50, 49, 63)" stroke="none" stroke-width="1px">0.01</text><text style="text-anchor: end; visibility: inherit; font-family: &quot;Helvetica Neue&quot;, sans-serif; font-size: 12px; font-weight: 200;" x="0" y="129.4254538796165" dx="0em" dy="0.3em" fill="rgb(50, 49, 63)" stroke="none" stroke-width="1px">0.02</text><text style="text-anchor: end; visibility: hidden; font-family: &quot;Helvetica Neue&quot;, sans-serif; font-size: 12px; font-weight: 200;" x="0" y="113.24727214466442" dx="0em" dy="0.3em" fill="rgb(50, 49, 63)" stroke="none" stroke-width="1px">0.03</text><text style="text-anchor: end; visibility: inherit; font-family: &quot;Helvetica Neue&quot;, sans-serif; font-size: 12px; font-weight: 200;" x="0" y="97.06909040971235" dx="0em" dy="0.3em" fill="rgb(50, 49, 63)" stroke="none" stroke-width="1px">0.04</text><text style="text-anchor: end; visibility: hidden; font-family: &quot;Helvetica Neue&quot;, sans-serif; font-size: 12px; font-weight: 200;" x="0" y="80.89090867476028" dx="0em" dy="0.3em" fill="rgb(50, 49, 63)" stroke="none" stroke-width="1px">0.05</text><text style="text-anchor: end; visibility: inherit; font-family: &quot;Helvetica Neue&quot;, sans-serif; font-size: 12px; font-weight: 200;" x="0" y="64.71272693980826" dx="0em" dy="0.3em" fill="rgb(50, 49, 63)" stroke="none" stroke-width="1px">0.06</text><text style="text-anchor: end; visibility: hidden; font-family: &quot;Helvetica Neue&quot;, sans-serif; font-size: 12px; font-weight: 200;" x="0" y="48.53454520485619" dx="0em" dy="0.3em" fill="rgb(50, 49, 63)" stroke="none" stroke-width="1px">0.07</text><text style="text-anchor: end; visibility: inherit; font-family: &quot;Helvetica Neue&quot;, sans-serif; font-size: 12px; font-weight: 200;" x="0" y="32.356363469904124" dx="0em" dy="0.3em" fill="rgb(50, 49, 63)" stroke="none" stroke-width="1px">0.08</text><text style="text-anchor: end; visibility: hidden; font-family: &quot;Helvetica Neue&quot;, sans-serif; font-size: 12px; font-weight: 200;" x="0" y="16.178181734952062" dx="0em" dy="0.3em" fill="rgb(50, 49, 63)" stroke="none" stroke-width="1px">0.09</text><text style="text-anchor: end; visibility: hidden; font-family: &quot;Helvetica Neue&quot;, sans-serif; font-size: 12px; font-weight: 200;" x="0" y="0" dx="0em" dy="0.3em" fill="rgb(50, 49, 63)" stroke="none" stroke-width="1px">0.1</text></g><line x1="61.77000045776367" y1="0" x2="61.77000045776367" y2="177.95999908447266" fill="rgb(0, 0, 0)" stroke="rgb(204, 204, 204)" stroke-width="1px"></line></g></g><g transform="translate(61, 0)" clip-path="url(#clip_0)"><clipPath id="clip_0"><rect width="268" height="177"></rect></clipPath><g><g><g><line x1="0" y1="0" x2="0" y2="177.95999908447266" fill="rgb(0, 0, 0)" stroke="rgb(60, 60, 60)" stroke-width="1px" opacity="0.25"></line><line x1="22.352499961853027" y1="0" x2="22.352499961853027" y2="177.95999908447266" fill="rgb(0, 0, 0)" stroke="rgb(60, 60, 60)" stroke-width="1px" opacity="0.25"></line><line x1="44.704999923706055" y1="0" x2="44.704999923706055" y2="177.95999908447266" fill="rgb(0, 0, 0)" stroke="rgb(60, 60, 60)" stroke-width="1px" opacity="0.25"></line><line x1="67.05749988555908" y1="0" x2="67.05749988555908" y2="177.95999908447266" fill="rgb(0, 0, 0)" stroke="rgb(60, 60, 60)" stroke-width="1px" opacity="0.25"></line><line x1="89.40999984741211" y1="0" x2="89.40999984741211" y2="177.95999908447266" fill="rgb(0, 0, 0)" stroke="rgb(60, 60, 60)" stroke-width="1px" opacity="0.25"></line><line x1="111.76249980926514" y1="0" x2="111.76249980926514" y2="177.95999908447266" fill="rgb(0, 0, 0)" stroke="rgb(60, 60, 60)" stroke-width="1px" opacity="0.25"></line><line x1="134.11499977111816" y1="0" x2="134.11499977111816" y2="177.95999908447266" fill="rgb(0, 0, 0)" stroke="rgb(60, 60, 60)" stroke-width="1px" opacity="0.25"></line><line x1="156.4674997329712" y1="0" x2="156.4674997329712" y2="177.95999908447266" fill="rgb(0, 0, 0)" stroke="rgb(60, 60, 60)" stroke-width="1px" opacity="0.25"></line><line x1="178.81999969482422" y1="0" x2="178.81999969482422" y2="177.95999908447266" fill="rgb(0, 0, 0)" stroke="rgb(60, 60, 60)" stroke-width="1px" opacity="0.25"></line><line x1="201.17249965667725" y1="0" x2="201.17249965667725" y2="177.95999908447266" fill="rgb(0, 0, 0)" stroke="rgb(60, 60, 60)" stroke-width="1px" opacity="0.25"></line><line x1="223.52499961853027" y1="0" x2="223.52499961853027" y2="177.95999908447266" fill="rgb(0, 0, 0)" stroke="rgb(60, 60, 60)" stroke-width="1px" opacity="0.25"></line><line x1="245.8774995803833" y1="0" x2="245.8774995803833" y2="177.95999908447266" fill="rgb(0, 0, 0)" stroke="rgb(60, 60, 60)" stroke-width="1px" opacity="0.25"></line><line x1="268.2299995422363" y1="0" x2="268.2299995422363" y2="177.95999908447266" fill="rgb(0, 0, 0)" stroke="rgb(60, 60, 60)" stroke-width="1px" opacity="0.25"></line></g><g><line x1="0" y1="177.95999908447266" x2="268.2299995422363" y2="177.95999908447266" fill="rgb(0, 0, 0)" stroke="rgb(60, 60, 60)" stroke-width="1px" opacity="0.25"></line><line x1="0" y1="161.7818173495206" x2="268.2299995422363" y2="161.7818173495206" fill="rgb(0, 0, 0)" stroke="rgb(60, 60, 60)" stroke-width="1px" opacity="0.25"></line><line x1="0" y1="145.60363561456853" x2="268.2299995422363" y2="145.60363561456853" fill="rgb(0, 0, 0)" stroke="rgb(60, 60, 60)" stroke-width="1px" opacity="0.25"></line><line x1="0" y1="129.4254538796165" x2="268.2299995422363" y2="129.4254538796165" fill="rgb(0, 0, 0)" stroke="rgb(60, 60, 60)" stroke-width="1px" opacity="0.25"></line><line x1="0" y1="113.24727214466442" x2="268.2299995422363" y2="113.24727214466442" fill="rgb(0, 0, 0)" stroke="rgb(60, 60, 60)" stroke-width="1px" opacity="0.25"></line><line x1="0" y1="97.06909040971235" x2="268.2299995422363" y2="97.06909040971235" fill="rgb(0, 0, 0)" stroke="rgb(60, 60, 60)" stroke-width="1px" opacity="0.25"></line><line x1="0" y1="80.89090867476028" x2="268.2299995422363" y2="80.89090867476028" fill="rgb(0, 0, 0)" stroke="rgb(60, 60, 60)" stroke-width="1px" opacity="0.25"></line><line x1="0" y1="64.71272693980826" x2="268.2299995422363" y2="64.71272693980826" fill="rgb(0, 0, 0)" stroke="rgb(60, 60, 60)" stroke-width="1px" opacity="0.25"></line><line x1="0" y1="48.53454520485619" x2="268.2299995422363" y2="48.53454520485619" fill="rgb(0, 0, 0)" stroke="rgb(60, 60, 60)" stroke-width="1px" opacity="0.25"></line><line x1="0" y1="32.356363469904124" x2="268.2299995422363" y2="32.356363469904124" fill="rgb(0, 0, 0)" stroke="rgb(60, 60, 60)" stroke-width="1px" opacity="0.25"></line><line x1="0" y1="16.178181734952062" x2="268.2299995422363" y2="16.178181734952062" fill="rgb(0, 0, 0)" stroke="rgb(60, 60, 60)" stroke-width="1px" opacity="0.25"></line><line x1="0" y1="0" x2="268.2299995422363" y2="0" fill="rgb(0, 0, 0)" stroke="rgb(60, 60, 60)" stroke-width="1px" opacity="0.25"></line></g></g></g><g><g><line x1="0" y1="161.7818173495206" x2="268.2299995422363" y2="161.7818173495206" fill="rgb(0, 0, 0)" stroke="rgb(153, 153, 153)" stroke-width="1.5px"></line></g></g><g><g><line x1="22.352499961853027" y1="0" x2="22.352499961853027" y2="177.95999908447266" fill="rgb(0, 0, 0)" stroke="rgb(153, 153, 153)" stroke-width="1.5px"></line></g></g><g><g><g><g><g><path style="fill: none;" stroke="rgb(0, 119, 187)" stroke-width="2px" d="M22.352499961853027,44.16889298593384L24.58774995803833,71.20985425106613L26.822999954223633,81.47214807596627L29.058249950408936,85.86302683540444L31.29349994659424,88.08103406204259L33.52874994277954,90.71459089483307L35.763999938964844,92.71697139775168L37.99924993515015,94.98717653281656L40.23449993133545,95.66885368079402L42.46974992752075,96.41901520560849L44.704999923706055,98.7137449402964L46.94024991989136,101.59293568430193L49.17549991607666,103.30204215719236L51.41074991226196,104.3271644000942L53.645999908447266,104.31097087923644L55.88124990463257,105.26598809632384L58.11649990081787,108.58695990061317L60.351749897003174,110.28766173061446L62.58699989318848,111.21608264659918L64.82224988937378,113.86915589806318L67.05749988555908,115.05464976898213L69.29274988174438,116.24297114633495L71.52799987792969,115.11236569578496L73.76324987411499,116.85192847785076L75.9984998703003,114.9076403708452L78.2337498664856,115.84327340180533L80.4689998626709,116.27229055184576L82.7042498588562,115.82665932646057L84.9394998550415,116.20847197186029L87.1747498512268,115.23328882422729L89.40999984741211,116.0235360190849L91.64524984359741,115.23681209738064L93.88049983978271,116.15573087650294L96.11574983596802,116.63595814195693L98.35099983215332,117.44791268249155L100.58624982833862,116.81994477386561L102.82149982452393,117.89430593661305L105.05674982070923,120.39112316635877L107.29199981689453,120.71034987363782L109.52724981307983,121.60814865106752L111.76249980926514,121.78220154377087L113.99774980545044,122.62847007186772L116.23299980163574,122.3731859378207L118.46824979782104,122.23980278623478L120.70349979400635,122.50542556295296L122.93874979019165,123.01772991142477L125.17399978637695,123.17522374595843L127.40924978256226,123.22616526240493L129.64449977874756,123.81220253471454L131.87974977493286,124.39706490227118L134.11499977111816,123.16153058511001L136.35024976730347,123.08057954829309L138.58549976348877,121.97834210562297L140.82074975967407,123.23376693692452L143.05599975585938,123.81545089315574L145.29124975204468,123.48593404279873L147.52649974822998,124.70440170419357L149.76174974441528,123.82983145436694L151.9969997406006,123.1697517381088L154.2322497367859,123.40080047060201L156.4674997329712,124.29953627219402L158.7027497291565,123.37394046180421L160.9379997253418,122.94669797406465L163.1732497215271,122.48369928957376L165.4084997177124,122.14725890284879L167.6437497138977,123.66281210342241L169.878999710083,124.15216110412095L172.1142497062683,124.69329050896968L174.3494997024536,124.99048936688474L176.58474969863892,125.88063541506133L178.81999969482422,124.79850834803939L181.05524969100952,125.76285285080823L183.29049968719482,124.8169143339988L185.52574968338013,124.42008564074425L187.76099967956543,124.57101748214602L189.99624967575073,125.92063940009902L192.23149967193604,125.25457868298062L194.46674966812134,126.2131876049477L196.70199966430664,125.86574223510904L198.93724966049194,125.35085467852491L201.17249965667725,123.87230731483078L203.40774965286255,124.79200935690558L205.64299964904785,124.19180569447902L207.87824964523315,124.53298133687144L210.11349964141846,124.2827445009468L212.34874963760376,125.16012839397699L214.58399963378906,124.7402890344612L216.81924962997437,124.40584178597544L219.05449962615967,125.91030454868522L221.28974962234497,125.61127444107291L223.52499961853027,125.81798411195446L225.76024961471558,125.7247060868417L227.99549961090088,125.66540160648262L230.23074960708618,125.09737994191165L232.46599960327148,125.34377304129475L234.7012495994568,124.48093395754016L236.9364995956421,125.27275366062878L239.1717495918274,124.86261805716927L241.4069995880127,125.47442997962838L243.642249584198,126.30491260353907L245.8774995803833,125.30863085714032" fill="none"></path></g><g><path style="fill: none;" stroke="rgb(255, 112, 67)" stroke-width="2px" d="M22.352499961853027,36.08387192455751L24.58774995803833,45.929374316502276L26.822999954223633,68.8774659708931L29.058249950408936,82.21742637132807L31.29349994659424,92.0144517281892L33.52874994277954,99.81265753246046L35.763999938964844,102.973945199L37.99924993515015,103.80936072587191L40.23449993133545,106.92637933698462L42.46974992752075,110.95196602465647L44.704999923706055,113.52847206864547L46.94024991989136,116.72642880352103L49.17549991607666,117.20118975731663L51.41074991226196,120.14685459127577L53.645999908447266,121.09755462809704L55.88124990463257,116.67775367223754L58.11649990081787,120.77786777051563L60.351749897003174,123.74195258742867L62.58699989318848,126.08768705620044L64.82224988937378,126.59332981224168L67.05749988555908,129.1506800175162L69.29274988174438,129.32014090060557L71.52799987792969,128.75936798415182L73.76324987411499,130.0248662301169L75.9984998703003,130.5281114203051L78.2337498664856,131.6313108003289L80.4689998626709,129.79976650068167L82.7042498588562,132.33879124453176L84.9394998550415,132.78275745382444L87.1747498512268,132.24664114224123L89.40999984741211,133.50144413238246L91.64524984359741,134.7766071977755L93.88049983978271,135.57122203654552L96.11574983596802,137.61427567822395L98.35099983215332,138.48849400233968L100.58624982833862,138.90964716204113L102.82149982452393,140.8442367000464L105.05674982070923,142.31148849727248L107.29199981689453,141.55775769573262L109.52724981307983,142.01661927392288L111.76249980926514,141.6208690212674L113.99774980545044,143.37485814172356L116.23299980163574,142.96329062456655L118.46824979782104,143.7039223631375L120.70349979400635,140.47900549816598L122.93874979019165,142.92246353095598L125.17399978637695,140.4364605891041L127.40924978256226,141.56823180091462L129.64449977874756,141.4400646882555L131.87974977493286,142.9126812577224L134.11499977111816,143.01602462680592L136.35024976730347,143.99421434659905L138.58549976348877,144.1699408325471L140.82074975967407,144.22319873381753L143.05599975585938,144.6548090603597L145.29124975204468,145.88328987986492L147.52649974822998,145.43008725378604L149.76174974441528,145.87387369803753L151.9969997406006,146.14179631670706L154.2322497367859,144.93528476341496L156.4674997329712,145.64283907255464L158.7027497291565,145.91552898122634L160.9379997253418,146.0821286241278L163.1732497215271,145.39168189787605L165.4084997177124,144.15063174046654L167.6437497138977,145.3264001154349L169.878999710083,144.47853112021457L172.1142497062683,145.9404148026631L174.3494997024536,147.18946989090767L176.58474969863892,147.4322407722144L178.81999969482422,147.6376419650202L181.05524969100952,147.46806733993552L183.29049968719482,146.8574105729968L185.52574968338013,147.19405008327774L187.76099967956543,146.03957780670083L189.99624967575073,147.04380192617427L192.23149967193604,147.712863697099L194.46674966812134,146.21564050789902L196.70199966430664,147.20328335641588L198.93724966049194,146.3577680521981L201.17249965667725,147.46270669796294L203.40774965286255,144.6047192779697L205.64299964904785,145.16935755301586L207.87824964523315,146.48425995815072L210.11349964141846,147.785443524858L212.34874963760376,148.16913030249748L214.58399963378906,149.27982787483572L216.81924962997437,149.41453216967528L219.05449962615967,148.52710365049722L221.28974962234497,147.79041915118765L223.52499961853027,147.78681301756353L225.76024961471558,148.6420975396166L227.99549961090088,149.54189229876462L230.23074960708618,150.19523048826673L232.46599960327148,149.44877493641826L234.7012495994568,149.86773510778067L236.9364995956421,150.00976982601284L239.1717495918274,149.99471183520313L241.4069995880127,149.9823342526099L243.642249584198,149.47882836523212L245.8774995803833,150.43960866396503" fill="none"></path></g></g></g></g><g opacity="0.2"><g><g><g><path style="fill: none;" stroke="rgb(0, 119, 187)" stroke-width="2px" d="M22.352499961853027,44.16889298593384L24.58774995803833,87.43443101014552L26.822999954223633,91.3239501478704L29.058249950408936,91.02670025650374L31.29349994659424,90.97686429714139L33.52874994277954,94.3577480750421L35.763999938964844,95.58040755501332L37.99924993515015,98.29715741371047L40.23449993133545,96.67419506509154L42.46974992752075,97.53291764313323L44.704999923706055,102.13502651252674L46.94024991989136,105.89605337142643L49.17549991607666,105.86012133735721L51.41074991226196,105.86283944325544L53.645999908447266,104.28669963282567L55.88124990463257,106.6978403698217L58.11649990081787,113.56701228307827L60.351749897003174,112.83828266760601L62.58699989318848,112.60857258499426L64.82224988937378,117.84852327385516L67.05749988555908,116.8328255600592L69.29274988174438,118.02541411014309L71.52799987792969,113.41647984179231L73.76324987411499,119.4612520441699L75.9984998703003,111.9912220295046L78.2337498664856,117.24671895819803L80.4689998626709,116.9158151791691L82.7042498588562,115.15821317253167L84.9394998550415,116.78119058825646L87.1747498512268,113.7705146417467L89.40999984741211,117.20890654931674L91.64524984359741,114.05672637135594L93.88049983978271,117.53410893548597L96.11574983596802,117.35629900574023L98.35099983215332,118.66584445839828L100.58624982833862,115.87799292711952L102.82149982452393,119.50584766411208L105.05674982070923,124.13634898779944L107.29199981689453,121.18918993277836L109.52724981307983,122.95484681421175L111.76249980926514,122.04328088247685L113.99774980545044,123.89787286299486L116.23299980163574,121.99025973693443L118.46824979782104,122.03972805891365L120.70349979400635,122.90385972796123L122.93874979019165,123.7861864340526L125.17399978637695,123.41146449774419L127.40924978256226,123.30257753707184L129.64449977874756,124.69125844315926L131.87974977493286,125.27435845359435L134.11499977111816,121.30822910938323L136.35024976730347,122.95915299306826L138.58549976348877,120.32498594162263L140.82074975967407,125.11690418387354L143.05599975585938,124.68797682750164L145.29124975204468,122.99165876726354L147.52649974822998,126.53210319628512L149.76174974441528,122.51797607962729L151.9969997406006,122.17963216372175L154.2322497367859,123.74737356934179L156.4674997329712,125.64763997458198L158.7027497291565,121.98554674621954L160.9379997253418,122.30583424245529L163.1732497215271,121.78920126283745L165.4084997177124,121.64259832276133L167.6437497138977,125.93614190428282L169.878999710083,124.88618460516878L172.1142497062683,125.50498461624275L174.3494997024536,125.43628765375735L176.58474969863892,127.21585448732623L178.81999969482422,123.17531774750648L181.05524969100952,127.2093696049615L183.29049968719482,123.39800655878469L185.52574968338013,123.82484260086238L187.76099967956543,124.7974152442487L189.99624967575073,127.94507227702852L192.23149967193604,124.25548760730301L194.46674966812134,127.65110098789832L196.70199966430664,125.34457418035103L198.93724966049194,124.57852334364873L201.17249965667725,121.6544862692896L203.40774965286255,126.17156242001778L205.64299964904785,123.29150020083915L207.87824964523315,125.04474480046014L210.11349964141846,123.90738924705983L212.34874963760376,126.47620423352228L214.58399963378906,124.11052999518748L216.81924962997437,123.90417091324684L219.05449962615967,128.1669986927499L221.28974962234497,125.16272927965437L223.52499961853027,126.12804861827681L225.76024961471558,125.58478904917257L227.99549961090088,125.57644488594397L230.23074960708618,124.2453474450552L232.46599960327148,125.71336269036942L234.7012495994568,123.18667533190826L236.9364995956421,126.46048321526172L239.1717495918274,124.24741465198002L241.4069995880127,126.39214786331709L243.642249584198,127.55063653940505L245.8774995803833,123.81420823754218" fill="none"></path></g><g><path style="fill: none;" stroke="rgb(255, 112, 67)" stroke-width="2px" d="M22.352499961853027,36.08387192455751L24.58774995803833,51.836675751669134L26.822999954223633,90.90763395910832L29.058249950408936,97.90521980223957L31.29349994659424,104.80544803410712L33.52874994277954,110.60038351385717L35.763999938964844,107.49463714275417L37.99924993515015,105.02740458404023L40.23449993133545,111.52337633868083L42.46974992752075,116.92949309787426L44.704999923706055,117.36986241444079L46.94024991989136,121.505960766505L49.17549991607666,117.91178101112294L51.41074991226196,124.559580978154L53.645999908447266,122.52248717112357L55.88124990463257,110.0511694245147L58.11649990081787,126.92630388705709L60.351749897003174,128.18732723198428L62.58699989318848,129.6059314103216L64.82224988937378,127.35174772855277L67.05749988555908,132.98656507426492L69.29274988174438,129.57432664905707L71.52799987792969,127.91821968095417L73.76324987411499,131.9230986080314L75.9984998703003,131.2829756287359L78.2337498664856,133.2861051657232L80.4689998626709,127.0524547376307L82.7042498588562,136.14732446230582L84.9394998550415,133.4487063588078L87.1747498512268,131.44246697116978L89.40999984741211,135.38364820148797L91.64524984359741,136.68935154215023L93.88049983978271,136.7631441998395L96.11574983596802,140.67885599440183L98.35099983215332,139.7998214509422L100.58624982833862,139.5413768907334L102.82149982452393,143.74612097712307L105.05674982070923,144.51236617949107L107.29199981689453,140.427161497621L109.52724981307983,142.70491163967483L111.76249980926514,141.02724364307767L113.99774980545044,146.00584182029763L116.23299980163574,142.34593934912814L118.46824979782104,144.8148699706732L120.70349979400635,135.6416302015467L122.93874979019165,146.58765057976L125.17399978637695,136.7074561765588L127.40924978256226,143.26588861856686L129.64449977874756,141.24781401927112L131.87974977493286,145.12160611189307L134.11499977111816,143.17103968042989L136.35024976730347,145.46149892628165L138.58549976348877,144.43353056146844L140.82074975967407,144.303085585723L143.05599975585938,145.30222455017224L145.29124975204468,147.7260111091216L147.52649974822998,144.75028331466802L149.76174974441528,146.5395533644146L151.9969997406006,146.54368024471128L154.2322497367859,143.12551743347694L156.4674997329712,146.7041705362641L158.7027497291565,146.32456384423392L160.9379997253418,146.33202808847994L163.1732497215271,144.3560118084985L165.4084997177124,142.28905650435226L167.6437497138977,147.09005267788743L169.878999710083,143.20672762738405L172.1142497062683,148.13324032633588L174.3494997024536,149.0630525232745L176.58474969863892,147.79639709417458L178.81999969482422,147.9457437542289L181.05524969100952,147.21370540230845L183.29049968719482,145.94142542258876L185.52574968338013,147.69900934869915L187.76099967956543,144.30786939183548L189.99624967575073,148.55013810538438L192.23149967193604,148.71645635348614L194.46674966812134,143.96980572409902L196.70199966430664,148.68474762919118L198.93724966049194,145.08949509587146L201.17249965667725,149.1201146666102L203.40774965286255,140.3177381479798L205.64299964904785,146.01631496558508L207.87824964523315,148.456613565853L210.11349964141846,149.73721887491894L212.34874963760376,148.7446604689567L214.58399963378906,150.94587423334303L216.81924962997437,149.61658861193465L219.05449962615967,147.19596087173008L221.28974962234497,146.6853924022233L223.52499961853027,147.78140381712734L225.76024961471558,149.9250243226962L227.99549961090088,150.8915844374867L230.23074960708618,151.17523777251986L232.46599960327148,148.32909160864557L234.7012495994568,150.49617536482427L236.9364995956421,150.22282190336108L239.1717495918274,149.97212484898859L241.4069995880127,149.96376787872L243.642249584198,148.72356953416548L245.8774995803833,151.88077911206435" fill="none"></path></g></g></g></g></g></g><g transform="translate(61, 177)" clip-path="url(#clip_1)"><clipPath id="clip_1"><rect width="268" height="22"></rect></clipPath><g><g><line x1="0" y1="0" x2="0" y2="5" style="visibility: inherit;" fill="rgb(0, 0, 0)" stroke="rgb(204, 204, 204)" stroke-width="1px"></line><line x1="22.352499961853027" y1="0" x2="22.352499961853027" y2="5" style="visibility: inherit;" fill="rgb(0, 0, 0)" stroke="rgb(204, 204, 204)" stroke-width="1px"></line><line x1="44.704999923706055" y1="0" x2="44.704999923706055" y2="5" style="visibility: inherit;" fill="rgb(0, 0, 0)" stroke="rgb(204, 204, 204)" stroke-width="1px"></line><line x1="67.05749988555908" y1="0" x2="67.05749988555908" y2="5" style="visibility: inherit;" fill="rgb(0, 0, 0)" stroke="rgb(204, 204, 204)" stroke-width="1px"></line><line x1="89.40999984741211" y1="0" x2="89.40999984741211" y2="5" style="visibility: inherit;" fill="rgb(0, 0, 0)" stroke="rgb(204, 204, 204)" stroke-width="1px"></line><line x1="111.76249980926514" y1="0" x2="111.76249980926514" y2="5" style="visibility: inherit;" fill="rgb(0, 0, 0)" stroke="rgb(204, 204, 204)" stroke-width="1px"></line><line x1="134.11499977111816" y1="0" x2="134.11499977111816" y2="5" style="visibility: inherit;" fill="rgb(0, 0, 0)" stroke="rgb(204, 204, 204)" stroke-width="1px"></line><line x1="156.4674997329712" y1="0" x2="156.4674997329712" y2="5" style="visibility: inherit;" fill="rgb(0, 0, 0)" stroke="rgb(204, 204, 204)" stroke-width="1px"></line><line x1="178.81999969482422" y1="0" x2="178.81999969482422" y2="5" style="visibility: inherit;" fill="rgb(0, 0, 0)" stroke="rgb(204, 204, 204)" stroke-width="1px"></line><line x1="201.17249965667725" y1="0" x2="201.17249965667725" y2="5" style="visibility: inherit;" fill="rgb(0, 0, 0)" stroke="rgb(204, 204, 204)" stroke-width="1px"></line><line x1="223.52499961853027" y1="0" x2="223.52499961853027" y2="5" style="visibility: inherit;" fill="rgb(0, 0, 0)" stroke="rgb(204, 204, 204)" stroke-width="1px"></line><line x1="245.8774995803833" y1="0" x2="245.8774995803833" y2="5" style="visibility: inherit;" fill="rgb(0, 0, 0)" stroke="rgb(204, 204, 204)" stroke-width="1px"></line><line x1="268.2299995422363" y1="0" x2="268.2299995422363" y2="5" style="visibility: inherit;" fill="rgb(0, 0, 0)" stroke="rgb(204, 204, 204)" stroke-width="1px"></line></g><g transform="translate(0, 8)"><text style="text-anchor: middle; visibility: hidden; font-family: &quot;Helvetica Neue&quot;, sans-serif; font-size: 12px; font-weight: 200;" x="0" y="0" dx="0em" dy="0.95em" fill="rgb(50, 49, 63)" stroke="none" stroke-width="1px">-10</text><text style="text-anchor: middle; visibility: inherit; font-family: &quot;Helvetica Neue&quot;, sans-serif; font-size: 12px; font-weight: 200;" x="22.352499961853027" y="0" dx="0em" dy="0.95em" fill="rgb(50, 49, 63)" stroke="none" stroke-width="1px">0</text><text style="text-anchor: middle; visibility: hidden; font-family: &quot;Helvetica Neue&quot;, sans-serif; font-size: 12px; font-weight: 200;" x="44.704999923706055" y="0" dx="0em" dy="0.95em" fill="rgb(50, 49, 63)" stroke="none" stroke-width="1px">10</text><text style="text-anchor: middle; visibility: inherit; font-family: &quot;Helvetica Neue&quot;, sans-serif; font-size: 12px; font-weight: 200;" x="67.05749988555908" y="0" dx="0em" dy="0.95em" fill="rgb(50, 49, 63)" stroke="none" stroke-width="1px">20</text><text style="text-anchor: middle; visibility: hidden; font-family: &quot;Helvetica Neue&quot;, sans-serif; font-size: 12px; font-weight: 200;" x="89.40999984741211" y="0" dx="0em" dy="0.95em" fill="rgb(50, 49, 63)" stroke="none" stroke-width="1px">30</text><text style="text-anchor: middle; visibility: inherit; font-family: &quot;Helvetica Neue&quot;, sans-serif; font-size: 12px; font-weight: 200;" x="111.76249980926514" y="0" dx="0em" dy="0.95em" fill="rgb(50, 49, 63)" stroke="none" stroke-width="1px">40</text><text style="text-anchor: middle; visibility: hidden; font-family: &quot;Helvetica Neue&quot;, sans-serif; font-size: 12px; font-weight: 200;" x="134.11499977111816" y="0" dx="0em" dy="0.95em" fill="rgb(50, 49, 63)" stroke="none" stroke-width="1px">50</text><text style="text-anchor: middle; visibility: inherit; font-family: &quot;Helvetica Neue&quot;, sans-serif; font-size: 12px; font-weight: 200;" x="156.4674997329712" y="0" dx="0em" dy="0.95em" fill="rgb(50, 49, 63)" stroke="none" stroke-width="1px">60</text><text style="text-anchor: middle; visibility: hidden; font-family: &quot;Helvetica Neue&quot;, sans-serif; font-size: 12px; font-weight: 200;" x="178.81999969482422" y="0" dx="0em" dy="0.95em" fill="rgb(50, 49, 63)" stroke="none" stroke-width="1px">70</text><text style="text-anchor: middle; visibility: inherit; font-family: &quot;Helvetica Neue&quot;, sans-serif; font-size: 12px; font-weight: 200;" x="201.17249965667725" y="0" dx="0em" dy="0.95em" fill="rgb(50, 49, 63)" stroke="none" stroke-width="1px">80</text><text style="text-anchor: middle; visibility: hidden; font-family: &quot;Helvetica Neue&quot;, sans-serif; font-size: 12px; font-weight: 200;" x="223.52499961853027" y="0" dx="0em" dy="0.95em" fill="rgb(50, 49, 63)" stroke="none" stroke-width="1px">90</text><text style="text-anchor: middle; visibility: inherit; font-family: &quot;Helvetica Neue&quot;, sans-serif; font-size: 12px; font-weight: 200;" x="245.8774995803833" y="0" dx="0em" dy="0.95em" fill="rgb(50, 49, 63)" stroke="none" stroke-width="1px">100</text><text style="text-anchor: middle; visibility: hidden; font-family: &quot;Helvetica Neue&quot;, sans-serif; font-size: 12px; font-weight: 200;" x="268.2299995422363" y="0" dx="0em" dy="0.95em" fill="rgb(50, 49, 63)" stroke="none" stroke-width="1px">110</text></g><line x1="0" y1="0" x2="268.2299995422363" y2="0" fill="rgb(0, 0, 0)" stroke="rgb(204, 204, 204)" stroke-width="1px"></line></g></g></g></g></svg>