<svg viewBox="0 0 1501 400" xmlns="http://www.w3.org/2000/svg"><g><g><g><g><g><line x1="61.77000045776367" y1="377.95999908447266" x2="56.77000045776367" y2="377.95999908447266" style="visibility: inherit;" fill="rgb(0, 0, 0)" stroke="rgb(204, 204, 204)" stroke-width="1px"></line><line x1="61.77000045776367" y1="340.1639991760254" x2="56.77000045776367" y2="340.1639991760254" style="visibility: inherit;" fill="rgb(0, 0, 0)" stroke="rgb(204, 204, 204)" stroke-width="1px"></line><line x1="61.77000045776367" y1="302.3679992675781" x2="56.77000045776367" y2="302.3679992675781" style="visibility: inherit;" fill="rgb(0, 0, 0)" stroke="rgb(204, 204, 204)" stroke-width="1px"></line><line x1="61.77000045776367" y1="264.57199935913087" x2="56.77000045776367" y2="264.57199935913087" style="visibility: inherit;" fill="rgb(0, 0, 0)" stroke="rgb(204, 204, 204)" stroke-width="1px"></line><line x1="61.77000045776367" y1="226.7759994506836" x2="56.77000045776367" y2="226.7759994506836" style="visibility: inherit;" fill="rgb(0, 0, 0)" stroke="rgb(204, 204, 204)" stroke-width="1px"></line><line x1="61.77000045776367" y1="188.9799995422363" x2="56.77000045776367" y2="188.9799995422363" style="visibility: inherit;" fill="rgb(0, 0, 0)" stroke="rgb(204, 204, 204)" stroke-width="1px"></line><line x1="61.77000045776367" y1="151.18399963378903" x2="56.77000045776367" y2="151.18399963378903" style="visibility: inherit;" fill="rgb(0, 0, 0)" stroke="rgb(204, 204, 204)" stroke-width="1px"></line><line x1="61.77000045776367" y1="113.38799972534179" x2="56.77000045776367" y2="113.38799972534179" style="visibility: inherit;" fill="rgb(0, 0, 0)" stroke="rgb(204, 204, 204)" stroke-width="1px"></line><line x1="61.77000045776367" y1="75.59199981689454" x2="56.77000045776367" y2="75.59199981689454" style="visibility: inherit;" fill="rgb(0, 0, 0)" stroke="rgb(204, 204, 204)" stroke-width="1px"></line><line x1="61.77000045776367" y1="37.79599990844724" x2="56.77000045776367" y2="37.79599990844724" style="visibility: inherit;" fill="rgb(0, 0, 0)" stroke="rgb(204, 204, 204)" stroke-width="1px"></line><line x1="61.77000045776367" y1="0" x2="56.77000045776367" y2="0" style="visibility: inherit;" fill="rgb(0, 0, 0)" stroke="rgb(204, 204, 204)" stroke-width="1px"></line></g><g transform="translate(51.77000045776367, 0)"><text style="text-anchor: end; visibility: hidden; font-family: &quot;Helvetica Neue&quot;, sans-serif; font-size: 12px; font-weight: 200;" x="0" y="377.95999908447266" dx="0em" dy="0.3em" fill="rgb(50, 49, 63)" stroke="none" stroke-width="1px">-5e-3</text><text style="text-anchor: end; visibility: inherit; font-family: &quot;Helvetica Neue&quot;, sans-serif; font-size: 12px; font-weight: 200;" x="0" y="340.1639991760254" dx="0em" dy="0.3em" fill="rgb(50, 49, 63)" stroke="none" stroke-width="1px">0</text><text style="text-anchor: end; visibility: inherit; font-family: &quot;Helvetica Neue&quot;, sans-serif; font-size: 12px; font-weight: 200;" x="0" y="302.3679992675781" dx="0em" dy="0.3em" fill="rgb(50, 49, 63)" stroke="none" stroke-width="1px">5e-3</text><text style="text-anchor: end; visibility: inherit; font-family: &quot;Helvetica Neue&quot;, sans-serif; font-size: 12px; font-weight: 200;" x="0" y="264.57199935913087" dx="0em" dy="0.3em" fill="rgb(50, 49, 63)" stroke="none" stroke-width="1px">0.01</text><text style="text-anchor: end; visibility: inherit; font-family: &quot;Helvetica Neue&quot;, sans-serif; font-size: 12px; font-weight: 200;" x="0" y="226.7759994506836" dx="0em" dy="0.3em" fill="rgb(50, 49, 63)" stroke="none" stroke-width="1px">0.015</text><text style="text-anchor: end; visibility: inherit; font-family: &quot;Helvetica Neue&quot;, sans-serif; font-size: 12px; font-weight: 200;" x="0" y="188.9799995422363" dx="0em" dy="0.3em" fill="rgb(50, 49, 63)" stroke="none" stroke-width="1px">0.02</text><text style="text-anchor: end; visibility: inherit; font-family: &quot;Helvetica Neue&quot;, sans-serif; font-size: 12px; font-weight: 200;" x="0" y="151.18399963378903" dx="0em" dy="0.3em" fill="rgb(50, 49, 63)" stroke="none" stroke-width="1px">0.025</text><text style="text-anchor: end; visibility: inherit; font-family: &quot;Helvetica Neue&quot;, sans-serif; font-size: 12px; font-weight: 200;" x="0" y="113.38799972534179" dx="0em" dy="0.3em" fill="rgb(50, 49, 63)" stroke="none" stroke-width="1px">0.03</text><text style="text-anchor: end; visibility: inherit; font-family: &quot;Helvetica Neue&quot;, sans-serif; font-size: 12px; font-weight: 200;" x="0" y="75.59199981689454" dx="0em" dy="0.3em" fill="rgb(50, 49, 63)" stroke="none" stroke-width="1px">0.035</text><text style="text-anchor: end; visibility: inherit; font-family: &quot;Helvetica Neue&quot;, sans-serif; font-size: 12px; font-weight: 200;" x="0" y="37.79599990844724" dx="0em" dy="0.3em" fill="rgb(50, 49, 63)" stroke="none" stroke-width="1px">0.04</text><text style="text-anchor: end; visibility: hidden; font-family: &quot;Helvetica Neue&quot;, sans-serif; font-size: 12px; font-weight: 200;" x="0" y="0" dx="0em" dy="0.3em" fill="rgb(50, 49, 63)" stroke="none" stroke-width="1px">0.045</text></g><line x1="61.77000045776367" y1="0" x2="61.77000045776367" y2="377.95999908447266" fill="rgb(0, 0, 0)" stroke="rgb(204, 204, 204)" stroke-width="1px"></line></g></g><g transform="translate(61, 0)" clip-path="url(#clip_0)"><clipPath id="clip_0"><rect width="1439" height="377"></rect></clipPath><g><g><g><line x1="0" y1="0" x2="0" y2="377.95999908447266" fill="rgb(0, 0, 0)" stroke="rgb(60, 60, 60)" stroke-width="1px" opacity="0.25"></line><line x1="119.93583329518636" y1="0" x2="119.93583329518636" y2="377.95999908447266" fill="rgb(0, 0, 0)" stroke="rgb(60, 60, 60)" stroke-width="1px" opacity="0.25"></line><line x1="239.8716665903727" y1="0" x2="239.8716665903727" y2="377.95999908447266" fill="rgb(0, 0, 0)" stroke="rgb(60, 60, 60)" stroke-width="1px" opacity="0.25"></line><line x1="359.8074998855591" y1="0" x2="359.8074998855591" y2="377.95999908447266" fill="rgb(0, 0, 0)" stroke="rgb(60, 60, 60)" stroke-width="1px" opacity="0.25"></line><line x1="479.7433331807454" y1="0" x2="479.7433331807454" y2="377.95999908447266" fill="rgb(0, 0, 0)" stroke="rgb(60, 60, 60)" stroke-width="1px" opacity="0.25"></line><line x1="599.6791664759319" y1="0" x2="599.6791664759319" y2="377.95999908447266" fill="rgb(0, 0, 0)" stroke="rgb(60, 60, 60)" stroke-width="1px" opacity="0.25"></line><line x1="719.6149997711182" y1="0" x2="719.6149997711182" y2="377.95999908447266" fill="rgb(0, 0, 0)" stroke="rgb(60, 60, 60)" stroke-width="1px" opacity="0.25"></line><line x1="839.5508330663046" y1="0" x2="839.5508330663046" y2="377.95999908447266" fill="rgb(0, 0, 0)" stroke="rgb(60, 60, 60)" stroke-width="1px" opacity="0.25"></line><line x1="959.4866663614908" y1="0" x2="959.4866663614908" y2="377.95999908447266" fill="rgb(0, 0, 0)" stroke="rgb(60, 60, 60)" stroke-width="1px" opacity="0.25"></line><line x1="1079.4224996566772" y1="0" x2="1079.4224996566772" y2="377.95999908447266" fill="rgb(0, 0, 0)" stroke="rgb(60, 60, 60)" stroke-width="1px" opacity="0.25"></line><line x1="1199.3583329518638" y1="0" x2="1199.3583329518638" y2="377.95999908447266" fill="rgb(0, 0, 0)" stroke="rgb(60, 60, 60)" stroke-width="1px" opacity="0.25"></line><line x1="1319.2941662470498" y1="0" x2="1319.2941662470498" y2="377.95999908447266" fill="rgb(0, 0, 0)" stroke="rgb(60, 60, 60)" stroke-width="1px" opacity="0.25"></line><line x1="1439.2299995422363" y1="0" x2="1439.2299995422363" y2="377.95999908447266" fill="rgb(0, 0, 0)" stroke="rgb(60, 60, 60)" stroke-width="1px" opacity="0.25"></line></g><g><line x1="0" y1="377.95999908447266" x2="1439.2299995422363" y2="377.95999908447266" fill="rgb(0, 0, 0)" stroke="rgb(60, 60, 60)" stroke-width="1px" opacity="0.25"></line><line x1="0" y1="340.1639991760254" x2="1439.2299995422363" y2="340.1639991760254" fill="rgb(0, 0, 0)" stroke="rgb(60, 60, 60)" stroke-width="1px" opacity="0.25"></line><line x1="0" y1="302.3679992675781" x2="1439.2299995422363" y2="302.3679992675781" fill="rgb(0, 0, 0)" stroke="rgb(60, 60, 60)" stroke-width="1px" opacity="0.25"></line><line x1="0" y1="264.57199935913087" x2="1439.2299995422363" y2="264.57199935913087" fill="rgb(0, 0, 0)" stroke="rgb(60, 60, 60)" stroke-width="1px" opacity="0.25"></line><line x1="0" y1="226.7759994506836" x2="1439.2299995422363" y2="226.7759994506836" fill="rgb(0, 0, 0)" stroke="rgb(60, 60, 60)" stroke-width="1px" opacity="0.25"></line><line x1="0" y1="188.9799995422363" x2="1439.2299995422363" y2="188.9799995422363" fill="rgb(0, 0, 0)" stroke="rgb(60, 60, 60)" stroke-width="1px" opacity="0.25"></line><line x1="0" y1="151.18399963378903" x2="1439.2299995422363" y2="151.18399963378903" fill="rgb(0, 0, 0)" stroke="rgb(60, 60, 60)" stroke-width="1px" opacity="0.25"></line><line x1="0" y1="113.38799972534179" x2="1439.2299995422363" y2="113.38799972534179" fill="rgb(0, 0, 0)" stroke="rgb(60, 60, 60)" stroke-width="1px" opacity="0.25"></line><line x1="0" y1="75.59199981689454" x2="1439.2299995422363" y2="75.59199981689454" fill="rgb(0, 0, 0)" stroke="rgb(60, 60, 60)" stroke-width="1px" opacity="0.25"></line><line x1="0" y1="37.79599990844724" x2="1439.2299995422363" y2="37.79599990844724" fill="rgb(0, 0, 0)" stroke="rgb(60, 60, 60)" stroke-width="1px" opacity="0.25"></line><line x1="0" y1="0" x2="1439.2299995422363" y2="0" fill="rgb(0, 0, 0)" stroke="rgb(60, 60, 60)" stroke-width="1px" opacity="0.25"></line></g></g></g><g><g><line x1="0" y1="340.1639991760254" x2="1439.2299995422363" y2="340.1639991760254" fill="rgb(0, 0, 0)" stroke="rgb(153, 153, 153)" stroke-width="1.5px"></line></g></g><g><g><line x1="119.93583329518636" y1="0" x2="119.93583329518636" y2="377.95999908447266" fill="rgb(0, 0, 0)" stroke="rgb(153, 153, 153)" stroke-width="1.5px"></line></g></g><g><g><g><g><g><path style="fill: none;" stroke="rgb(0, 119, 187)" stroke-width="2px" d="M119.93583329518636,76.71835094429412L131.929416624705,172.80173713229053L143.92299995422363,193.2306207596698L155.91658328374228,212.5307647854645L167.9101666132609,232.61622696005597L179.90374994277954,241.5822135602119L191.89733327229817,245.34552027960495L203.8909166018168,250.87143785496772L215.88449993133545,248.77020781799067L227.87808326085408,248.5708695262952L239.8716665903727,251.4918183167997L251.86524991989134,252.8687167853876L263.85883324941,254.57513880643847L275.8524165789286,254.65542181260503L287.84599990844725,259.2345256746966L299.83958323796594,258.5558091744167L311.83316656748457,257.25992485747105L323.8267498970032,255.57010174212039L335.8203332265218,259.51119816013795L347.81391655604045,261.29685638487183L359.8074998855591,263.5386328560403L371.80108321507777,262.2703030223271L383.79466654459634,259.2157270824737L395.788249874115,254.59522953536992L407.7818332036336,258.417398860251L419.7754165331523,260.3402480648408L431.7689998626709,259.3209506113995L443.76258319218954,262.04971132497707L455.75616652170817,260.07010684043473L467.7497498512268,257.7374260802797L479.7433331807454,257.16720396154113L491.7369165102641,258.0834550736934L503.7304998397827,258.9832765997759L515.7240831693014,262.0598444858072L527.71766649882,256.84556028911805L539.7112498283386,257.45322233926004L551.7048331578573,257.8291906599612L563.6984164873759,261.3792877214973L575.6919998168945,260.5240309310742L587.6855831464131,261.81047507101067L599.6791664759319,262.66447363512833L611.6727498054504,259.4347491822658L623.6663331349691,252.55085446064095L635.6599164644877,256.9822872507241L647.6534997940064,259.79903561414983L659.6470831235249,259.15740198707357L671.6406664530437,260.60749625953287L683.6342497825623,264.3090764566324L695.6278331120809,263.9852451399101L707.6214164415995,256.6324903235605L719.6149997711182,253.7135315482032L731.6085831006368,256.7043110363559L743.6021664301555,254.22537327201604L755.595749759674,254.11728101644078L767.5893330891927,251.15338791558048L779.5829164187113,249.72314891278347L791.57649974823,254.80341180233359L803.5700830777487,255.36840746620032L815.5636664072672,261.18554090016414L827.5572497367858,263.76049572107434L839.5508330663046,260.21802457592946L851.5444163958232,261.8025656495922L863.5379997253418,259.85388364746836L875.5315830548603,260.7539405014745L887.5251663843791,257.9630718190024L899.5187497138977,259.9092079300101L911.5123330434163,257.84914048294615L923.5059163729351,257.57148785396856L935.4994997024536,257.61189074822664L947.4930830319722,258.6675932642745L959.4866663614908,256.99740786281717L971.4802496910096,258.90246422334076L983.4738330205282,260.0239104193296L995.4674163500467,264.1766203055272L1007.4609996795654,262.640941341348L1019.4545830090841,263.03540164324255L1031.4481663386027,262.1849893574476L1043.4417496681212,261.84981967066426L1055.43533299764,251.0552901492835L1067.4289163271587,257.26476026788333L1079.4224996566772,260.149291104189L1091.4160829861958,263.77352213141455L1103.4096663157145,262.9504031135407L1115.4032496452332,254.77098686434815L1127.3968329747518,252.60477059066025L1139.3904163042703,253.5505870075745L1151.383999633789,256.7563284921291L1163.3775829633078,256.6873650006231L1175.3711662928263,259.8319181010696L1187.364749622345,261.8331719210801L1199.3583329518638,262.22750578661885L1211.3519162813823,257.24527214010936L1223.3454996109008,260.9680739251165L1235.3390829404195,261.1320214812821L1247.3326662699383,259.8905692562483L1259.3262495994568,260.35980866705495L1271.3198329289753,259.8546854614205L1283.313416258494,259.5213533877144L1295.3069995880128,261.73503933249407L1307.3005829175313,262.9500243094796L1319.2941662470498,266.6228108878816" fill="none"></path></g><g><path style="fill: none;" stroke="rgb(255, 112, 67)" stroke-width="2px" d="M119.93583329518636,106.82038104134222L131.929416624705,106.0170229261696L143.92299995422363,161.2238175283615L155.91658328374228,207.51581918339747L167.9101666132609,223.07541119753128L179.90374994277954,252.01360558704795L191.89733327229817,270.05398746339245L203.8909166018168,281.74791095022726L215.88449993133545,291.6764617704457L227.87808326085408,295.6143675983967L239.8716665903727,299.4556894732797L251.86524991989134,304.39155484815L263.85883324941,309.3185471163639L275.8524165789286,309.6600064087101L287.84599990844725,309.75376637881556L299.83958323796594,311.24543094279807L311.83316656748457,313.6332747160857L323.8267498970032,315.0470086181944L335.8203332265218,318.6136056783771L347.81391655604045,319.82962336822277L359.8074998855591,317.6524585165279L371.80108321507777,321.63953181686264L383.79466654459634,321.4800560437818L395.788249874115,320.4062350816374L407.7818332036336,321.4773392472646L419.7754165331523,323.2590517872008L431.7689998626709,322.5219001367882L443.76258319218954,323.56594467214484L455.75616652170817,324.9519120845206L467.7497498512268,325.9497402913534L479.7433331807454,324.1503621820068L491.7369165102641,323.25342980236394L503.7304998397827,324.05976865480403L515.7240831693014,326.3320856390577L527.71766649882,327.76961424156036L539.7112498283386,324.01194093864166L551.7048331578573,324.9639666584474L563.6984164873759,324.1203889758831L575.6919998168945,325.36464433633165L587.6855831464131,324.958021635295L599.6791664759319,325.7178589848482L611.6727498054504,327.353837001509L623.6663331349691,328.576122539273L635.6599164644877,329.1351638306728L647.6534997940064,328.54157468568803L659.6470831235249,328.3047743952622L671.6406664530437,328.86997918890506L683.6342497825623,327.30241126327905L695.6278331120809,327.16730790293684L707.6214164415995,329.51806836581693L719.6149997711182,328.91679025817456L731.6085831006368,324.2301188487362L743.6021664301555,327.29913177746147L755.595749759674,324.1261212688703L767.5893330891927,327.3493980231445L779.5829164187113,328.33957061953913L791.57649974823,328.46885499116587L803.5700830777487,329.5224677957879L815.5636664072672,330.6641656931118L827.5572497367858,330.676849809686L839.5508330663046,330.2210181279028L851.5444163958232,330.93477328982465L863.5379997253418,330.9818127651746L875.5315830548603,331.4652114671828L887.5251663843791,329.02106213170856L899.5187497138977,329.767615488136L911.5123330434163,327.66609206350427L923.5059163729351,328.98162923670577L935.4994997024536,329.90403952969416L947.4930830319722,331.05976739406333L959.4866663614908,331.2897846651299L971.4802496910096,331.99225684446066L983.4738330205282,328.79224840921637L995.4674163500467,330.4395747266431L1007.4609996795654,331.1619332280198L1019.4545830090841,331.29697220160284L1031.4481663386027,332.0577789362724L1043.4417496681212,332.6204523293889L1055.43533299764,331.82441659997806L1067.4289163271587,331.7930215670128L1079.4224996566772,332.5739448430195L1091.4160829861958,332.55950079603633L1103.4096663157145,333.0459972410327L1115.4032496452332,333.3274147562539L1127.3968329747518,332.94808850065795L1139.3904163042703,324.58053920186717L1151.383999633789,327.45443989109947L1163.3775829633078,328.28686605937594L1175.3711662928263,330.4045013099458L1187.364749622345,331.9941716571988L1199.3583329518638,332.5937100968902L1211.3519162813823,332.1586294146485L1223.3454996109008,332.4368355581162L1235.3390829404195,333.3504271518427L1247.3326662699383,334.0415721085204L1259.3262495994568,333.058668876052L1271.3198329289753,333.22686896203567L1283.313416258494,333.9310746138437L1295.3069995880128,333.84849228805723L1307.3005829175313,333.5963885827392L1319.2941662470498,333.39104818790474" fill="none"></path></g></g></g></g><g opacity="0.2"><g><g><g><path style="fill: none;" stroke="rgb(0, 119, 187)" stroke-width="2px" d="M119.93583329518636,76.71835094429412L131.929416624705,230.45176884508845L143.92299995422363,212.84234904195384L155.91658328374228,235.2277341597991L167.9101666132609,258.83980637520267L179.90374994277954,253.98540078340358L191.89733327229817,250.72710910124454L203.8909166018168,258.92827872865536L215.88449993133545,245.67130165637192L227.87808326085408,248.27487539480938L239.8716665903727,255.84674871200843L251.86524991989134,254.92657146760718L263.85883324941,257.129200074045L275.8524165789286,254.77568903908815L287.84599990844725,266.097798903137L299.83958323796594,257.53821310745764L311.83316656748457,255.3166467568654L323.8267498970032,253.03579611500038L335.8203332265218,265.422242400792L347.81391655604045,263.9751805057379L359.8074998855591,266.9011746184435L371.80108321507777,260.3678500066908L383.79466654459634,254.63392347996685L395.788249874115,247.66453794891274L407.7818332036336,264.1506256812289L419.7754165331523,263.2245136716521L431.7689998626709,257.7920070393403L443.76258319218954,266.1428482060529L455.75616652170817,257.1007019371168L467.7497498512268,254.23840622928435L479.7433331807454,256.3118709725252L491.7369165102641,259.45783155961846L503.7304998397827,260.33300878147895L515.7240831693014,266.67469609448597L527.71766649882,249.02413421817738L539.7112498283386,258.3647153988039L551.7048331578573,258.39314313519617L563.6984164873759,266.7044332808458L575.6919998168945,259.24114575020326L587.6855831464131,263.7401412766162L599.6791664759319,263.9454714795924L611.6727498054504,254.59016250685775L623.6663331349691,242.22501238317275L635.6599164644877,263.6294364339295L647.6534997940064,264.0241581585565L659.6470831235249,258.1949515465592L671.6406664530437,262.7826376680862L683.6342497825623,269.8614467520738L695.6278331120809,263.4994981648377L707.6214164415995,245.60335809918467L719.6149997711182,249.33509338520264L731.6085831006368,261.1904802685632L743.6021664301555,250.50696662551712L755.595749759674,253.95514263307814L767.5893330891927,246.7075482642947L779.5829164187113,247.57779040858932L791.57649974823,262.42380613665586L803.5700830777487,256.2159009620002L815.5636664072672,269.9112410511087L827.5572497367858,267.62292795243934L839.5508330663046,254.9043178582124L851.5444163958232,264.1793772600863L863.5379997253418,256.9308606442827L875.5315830548603,262.10402578248363L887.5251663843791,253.77676879529415L899.5187497138977,262.82841209652173L911.5123330434163,254.7590393123502L923.5059163729351,257.15500891050226L935.4994997024536,257.6724950896138L947.4930830319722,260.2511470383463L959.4866663614908,254.4921297606312L971.4802496910096,261.76004876412605L983.4738330205282,261.7060797133129L995.4674163500467,270.40568513482356L1007.4609996795654,260.33742289507927L1019.4545830090841,263.62709209608437L1031.4481663386027,260.90937092875515L1043.4417496681212,261.34706514048924L1055.43533299764,234.86349586721244L1067.4289163271587,266.57896544578307L1079.4224996566772,264.4760873586474L1091.4160829861958,269.2098686722529L1103.4096663157145,261.71572458672983L1115.4032496452332,242.5018624905594L1127.3968329747518,249.35544618012838L1139.3904163042703,254.96931163294587L1151.383999633789,261.564940718961L1163.3775829633078,256.5839197633642L1175.3711662928263,264.5487477517393L1187.364749622345,264.83505265109596L1199.3583329518638,262.81900658492685L1211.3519162813823,249.77192167034528L1223.3454996109008,266.5522766026272L1235.3390829404195,261.37794281553056L1247.3326662699383,258.02839091869754L1259.3262495994568,261.06366778326486L1271.3198329289753,259.09700065296886L1283.313416258494,259.0213552771553L1295.3069995880128,265.05556824966357L1307.3005829175313,264.77250177495785L1319.2941662470498,272.1319907554846" fill="none"></path></g><g><path style="fill: none;" stroke="rgb(255, 112, 67)" stroke-width="2px" d="M119.93583329518636,106.82038104134222L131.929416624705,105.5350080570662L143.92299995422363,214.22234034646576L155.91658328374228,261.9552131297197L167.9101666132609,243.3900145311844L179.90374994277954,292.04554617772976L191.89733327229817,295.8520221926751L203.8909166018168,298.7977636556978L215.88449993133545,306.3191457085567L227.87808326085408,301.4616988136072L239.8716665903727,305.1828317789201L251.86524991989134,311.76849214905326L263.85883324941,316.6929480340761L275.8524165789286,310.17152639292897L287.84599990844725,309.89429612264854L299.83958323796594,313.48187575135177L311.83316656748457,317.21402992055823L323.8267498970032,317.1672505244729L335.8203332265218,323.96295793348685L347.81391655604045,321.65353875415775L359.8074998855591,314.38683063988026L371.80108321507777,327.6200105710195L383.79466654459634,321.24084553273156L395.788249874115,318.7955163588538L407.7818332036336,323.0839878827553L419.7754165331523,325.93161299891506L431.7689998626709,321.4161745473383L443.76258319218954,325.13200987232557L455.75616652170817,327.0308619264123L467.7497498512268,327.44648205011816L479.7433331807454,321.45129561468036L491.7369165102641,321.9080314113592L503.7304998397827,325.2692768372035L515.7240831693014,329.74056095267684L527.71766649882,329.925907083534L539.7112498283386,318.37543108115915L551.7048331578573,326.39200522342674L563.6984164873759,322.8550224598675L575.6919998168945,327.2310273700743L587.6855831464131,324.3480875850988L599.6791664759319,326.8576150076545L611.6727498054504,329.807804024532L623.6663331349691,330.4095508450367L635.6599164644877,329.9737257675305L647.6534997940064,327.65119096836514L659.6470831235249,327.94957395966037L671.6406664530437,329.7177863793165L683.6342497825623,324.951059374928L695.6278331120809,326.96465286242807L707.6214164415995,333.0442090600896L719.6149997711182,328.01487309671825L731.6085831006368,317.20011173461285L743.6021664301555,331.902651170536L755.595749759674,319.36660550599186L767.5893330891927,332.1843131545507L779.5829164187113,329.8248295141303L791.57649974823,328.6627815486059L803.5700830777487,331.10288700272065L815.5636664072672,332.3767125390973L827.5572497367858,330.6958759845474L839.5508330663046,329.53727060522806L851.5444163958232,332.00540603270736L863.5379997253418,331.0523719781996L875.5315830548603,332.1903095201951L887.5251663843791,325.3548381284972L899.5187497138977,330.8874455227773L911.5123330434163,324.51380692655664L923.5059163729351,330.95493499650803L935.4994997024536,331.2876549691768L947.4930830319722,332.7933591906171L959.4866663614908,331.6348105717298L971.4802496910096,333.0459651134567L983.4738330205282,323.99223575635006L995.4674163500467,332.9105642027832L1007.4609996795654,332.24547098008486L1019.4545830090841,331.49953066197736L1031.4481663386027,333.1989890382768L1043.4417496681212,333.4644624190637L1055.43533299764,330.63036300586174L1067.4289163271587,331.7459290175649L1079.4224996566772,333.74532975702954L1091.4160829861958,332.53783472556154L1103.4096663157145,333.77574190852727L1115.4032496452332,333.7495410290858L1127.3968329747518,332.379099117264L1139.3904163042703,312.02921525368095L1151.383999633789,331.765290924948L1163.3775829633078,329.53550531179064L1175.3711662928263,333.5809541858005L1187.364749622345,334.3786771780784L1199.3583329518638,333.49301775642726L1211.3519162813823,331.50600839128595L1223.3454996109008,332.8541447733178L1235.3390829404195,334.72081454243255L1247.3326662699383,335.0782895435369L1259.3262495994568,331.5843140273495L1271.3198329289753,333.47916909101104L1283.313416258494,334.98738309155584L1295.3069995880128,333.7246187993775L1307.3005829175313,333.2182330247623L1319.2941662470498,333.0830375956529" fill="none"></path></g></g></g></g></g><g><g opacity="0.216041"><span style="white-space: normal;" fill="rgb(0, 0, 0)" stroke="none" stroke-width="1px">Alt + Scroll to Zoom</span></g></g></g><g transform="translate(61, 377)" clip-path="url(#clip_1)"><clipPath id="clip_1"><rect width="1439" height="22"></rect></clipPath><g><g><line x1="0" y1="0" x2="0" y2="5" style="visibility: inherit;" fill="rgb(0, 0, 0)" stroke="rgb(204, 204, 204)" stroke-width="1px"></line><line x1="119.93583329518636" y1="0" x2="119.93583329518636" y2="5" style="visibility: inherit;" fill="rgb(0, 0, 0)" stroke="rgb(204, 204, 204)" stroke-width="1px"></line><line x1="239.8716665903727" y1="0" x2="239.8716665903727" y2="5" style="visibility: inherit;" fill="rgb(0, 0, 0)" stroke="rgb(204, 204, 204)" stroke-width="1px"></line><line x1="359.8074998855591" y1="0" x2="359.8074998855591" y2="5" style="visibility: inherit;" fill="rgb(0, 0, 0)" stroke="rgb(204, 204, 204)" stroke-width="1px"></line><line x1="479.7433331807454" y1="0" x2="479.7433331807454" y2="5" style="visibility: inherit;" fill="rgb(0, 0, 0)" stroke="rgb(204, 204, 204)" stroke-width="1px"></line><line x1="599.6791664759319" y1="0" x2="599.6791664759319" y2="5" style="visibility: inherit;" fill="rgb(0, 0, 0)" stroke="rgb(204, 204, 204)" stroke-width="1px"></line><line x1="719.6149997711182" y1="0" x2="719.6149997711182" y2="5" style="visibility: inherit;" fill="rgb(0, 0, 0)" stroke="rgb(204, 204, 204)" stroke-width="1px"></line><line x1="839.5508330663046" y1="0" x2="839.5508330663046" y2="5" style="visibility: inherit;" fill="rgb(0, 0, 0)" stroke="rgb(204, 204, 204)" stroke-width="1px"></line><line x1="959.4866663614908" y1="0" x2="959.4866663614908" y2="5" style="visibility: inherit;" fill="rgb(0, 0, 0)" stroke="rgb(204, 204, 204)" stroke-width="1px"></line><line x1="1079.4224996566772" y1="0" x2="1079.4224996566772" y2="5" style="visibility: inherit;" fill="rgb(0, 0, 0)" stroke="rgb(204, 204, 204)" stroke-width="1px"></line><line x1="1199.3583329518638" y1="0" x2="1199.3583329518638" y2="5" style="visibility: inherit;" fill="rgb(0, 0, 0)" stroke="rgb(204, 204, 204)" stroke-width="1px"></line><line x1="1319.2941662470498" y1="0" x2="1319.2941662470498" y2="5" style="visibility: inherit;" fill="rgb(0, 0, 0)" stroke="rgb(204, 204, 204)" stroke-width="1px"></line><line x1="1439.2299995422363" y1="0" x2="1439.2299995422363" y2="5" style="visibility: inherit;" fill="rgb(0, 0, 0)" stroke="rgb(204, 204, 204)" stroke-width="1px"></line></g><g transform="translate(0, 8)"><text style="text-anchor: middle; visibility: hidden; font-family: &quot;Helvetica Neue&quot;, sans-serif; font-size: 12px; font-weight: 200;" x="0" y="0" dx="0em" dy="0.95em" fill="rgb(50, 49, 63)" stroke="none" stroke-width="1px">-10</text><text style="text-anchor: middle; visibility: inherit; font-family: &quot;Helvetica Neue&quot;, sans-serif; font-size: 12px; font-weight: 200;" x="119.93583329518636" y="0" dx="0em" dy="0.95em" fill="rgb(50, 49, 63)" stroke="none" stroke-width="1px">0</text><text style="text-anchor: middle; visibility: inherit; font-family: &quot;Helvetica Neue&quot;, sans-serif; font-size: 12px; font-weight: 200;" x="239.8716665903727" y="0" dx="0em" dy="0.95em" fill="rgb(50, 49, 63)" stroke="none" stroke-width="1px">10</text><text style="text-anchor: middle; visibility: inherit; font-family: &quot;Helvetica Neue&quot;, sans-serif; font-size: 12px; font-weight: 200;" x="359.8074998855591" y="0" dx="0em" dy="0.95em" fill="rgb(50, 49, 63)" stroke="none" stroke-width="1px">20</text><text style="text-anchor: middle; visibility: inherit; font-family: &quot;Helvetica Neue&quot;, sans-serif; font-size: 12px; font-weight: 200;" x="479.7433331807454" y="0" dx="0em" dy="0.95em" fill="rgb(50, 49, 63)" stroke="none" stroke-width="1px">30</text><text style="text-anchor: middle; visibility: inherit; font-family: &quot;Helvetica Neue&quot;, sans-serif; font-size: 12px; font-weight: 200;" x="599.6791664759319" y="0" dx="0em" dy="0.95em" fill="rgb(50, 49, 63)" stroke="none" stroke-width="1px">40</text><text style="text-anchor: middle; visibility: inherit; font-family: &quot;Helvetica Neue&quot;, sans-serif; font-size: 12px; font-weight: 200;" x="719.6149997711182" y="0" dx="0em" dy="0.95em" fill="rgb(50, 49, 63)" stroke="none" stroke-width="1px">50</text><text style="text-anchor: middle; visibility: inherit; font-family: &quot;Helvetica Neue&quot;, sans-serif; font-size: 12px; font-weight: 200;" x="839.5508330663046" y="0" dx="0em" dy="0.95em" fill="rgb(50, 49, 63)" stroke="none" stroke-width="1px">60</text><text style="text-anchor: middle; visibility: inherit; font-family: &quot;Helvetica Neue&quot;, sans-serif; font-size: 12px; font-weight: 200;" x="959.4866663614908" y="0" dx="0em" dy="0.95em" fill="rgb(50, 49, 63)" stroke="none" stroke-width="1px">70</text><text style="text-anchor: middle; visibility: inherit; font-family: &quot;Helvetica Neue&quot;, sans-serif; font-size: 12px; font-weight: 200;" x="1079.4224996566772" y="0" dx="0em" dy="0.95em" fill="rgb(50, 49, 63)" stroke="none" stroke-width="1px">80</text><text style="text-anchor: middle; visibility: inherit; font-family: &quot;Helvetica Neue&quot;, sans-serif; font-size: 12px; font-weight: 200;" x="1199.3583329518638" y="0" dx="0em" dy="0.95em" fill="rgb(50, 49, 63)" stroke="none" stroke-width="1px">90</text><text style="text-anchor: middle; visibility: inherit; font-family: &quot;Helvetica Neue&quot;, sans-serif; font-size: 12px; font-weight: 200;" x="1319.2941662470498" y="0" dx="0em" dy="0.95em" fill="rgb(50, 49, 63)" stroke="none" stroke-width="1px">100</text><text style="text-anchor: middle; visibility: hidden; font-family: &quot;Helvetica Neue&quot;, sans-serif; font-size: 12px; font-weight: 200;" x="1439.2299995422363" y="0" dx="0em" dy="0.95em" fill="rgb(50, 49, 63)" stroke="none" stroke-width="1px">110</text></g><line x1="0" y1="0" x2="1439.2299995422363" y2="0" fill="rgb(0, 0, 0)" stroke="rgb(204, 204, 204)" stroke-width="1px"></line></g></g></g></g></svg>