<svg viewBox="0 0 1501 400" xmlns="http://www.w3.org/2000/svg"><g><g><g><g><g><line x1="61.77000045776367" y1="377.95999908447266" x2="56.77000045776367" y2="377.95999908447266" style="visibility: inherit;" fill="rgb(0, 0, 0)" stroke="rgb(204, 204, 204)" stroke-width="1px"></line><line x1="61.77000045776367" y1="343.59999916770244" x2="56.77000045776367" y2="343.59999916770244" style="visibility: inherit;" fill="rgb(0, 0, 0)" stroke="rgb(204, 204, 204)" stroke-width="1px"></line><line x1="61.77000045776367" y1="309.23999925093216" x2="56.77000045776367" y2="309.23999925093216" style="visibility: inherit;" fill="rgb(0, 0, 0)" stroke="rgb(204, 204, 204)" stroke-width="1px"></line><line x1="61.77000045776367" y1="274.87999933416194" x2="56.77000045776367" y2="274.87999933416194" style="visibility: inherit;" fill="rgb(0, 0, 0)" stroke="rgb(204, 204, 204)" stroke-width="1px"></line><line x1="61.77000045776367" y1="240.5199994173917" x2="56.77000045776367" y2="240.5199994173917" style="visibility: inherit;" fill="rgb(0, 0, 0)" stroke="rgb(204, 204, 204)" stroke-width="1px"></line><line x1="61.77000045776367" y1="206.15999950062144" x2="56.77000045776367" y2="206.15999950062144" style="visibility: inherit;" fill="rgb(0, 0, 0)" stroke="rgb(204, 204, 204)" stroke-width="1px"></line><line x1="61.77000045776367" y1="171.7999995838512" x2="56.77000045776367" y2="171.7999995838512" style="visibility: inherit;" fill="rgb(0, 0, 0)" stroke="rgb(204, 204, 204)" stroke-width="1px"></line><line x1="61.77000045776367" y1="137.43999966708103" x2="56.77000045776367" y2="137.43999966708103" style="visibility: inherit;" fill="rgb(0, 0, 0)" stroke="rgb(204, 204, 204)" stroke-width="1px"></line><line x1="61.77000045776367" y1="103.07999975031072" x2="56.77000045776367" y2="103.07999975031072" style="visibility: inherit;" fill="rgb(0, 0, 0)" stroke="rgb(204, 204, 204)" stroke-width="1px"></line><line x1="61.77000045776367" y1="68.7199998335405" x2="56.77000045776367" y2="68.7199998335405" style="visibility: inherit;" fill="rgb(0, 0, 0)" stroke="rgb(204, 204, 204)" stroke-width="1px"></line><line x1="61.77000045776367" y1="34.35999991677028" x2="56.77000045776367" y2="34.35999991677028" style="visibility: inherit;" fill="rgb(0, 0, 0)" stroke="rgb(204, 204, 204)" stroke-width="1px"></line><line x1="61.77000045776367" y1="0" x2="56.77000045776367" y2="0" style="visibility: inherit;" fill="rgb(0, 0, 0)" stroke="rgb(204, 204, 204)" stroke-width="1px"></line></g><g transform="translate(51.77000045776367, 0)"><text style="text-anchor: end; visibility: hidden; font-family: &quot;Helvetica Neue&quot;, sans-serif; font-size: 12px; font-weight: 200;" x="0" y="377.95999908447266" dx="0em" dy="0.3em" fill="rgb(50, 49, 63)" stroke="none" stroke-width="1px">-5e-3</text><text style="text-anchor: end; visibility: inherit; font-family: &quot;Helvetica Neue&quot;, sans-serif; font-size: 12px; font-weight: 200;" x="0" y="343.59999916770244" dx="0em" dy="0.3em" fill="rgb(50, 49, 63)" stroke="none" stroke-width="1px">0</text><text style="text-anchor: end; visibility: inherit; font-family: &quot;Helvetica Neue&quot;, sans-serif; font-size: 12px; font-weight: 200;" x="0" y="309.23999925093216" dx="0em" dy="0.3em" fill="rgb(50, 49, 63)" stroke="none" stroke-width="1px">5e-3</text><text style="text-anchor: end; visibility: inherit; font-family: &quot;Helvetica Neue&quot;, sans-serif; font-size: 12px; font-weight: 200;" x="0" y="274.87999933416194" dx="0em" dy="0.3em" fill="rgb(50, 49, 63)" stroke="none" stroke-width="1px">0.01</text><text style="text-anchor: end; visibility: inherit; font-family: &quot;Helvetica Neue&quot;, sans-serif; font-size: 12px; font-weight: 200;" x="0" y="240.5199994173917" dx="0em" dy="0.3em" fill="rgb(50, 49, 63)" stroke="none" stroke-width="1px">0.015</text><text style="text-anchor: end; visibility: inherit; font-family: &quot;Helvetica Neue&quot;, sans-serif; font-size: 12px; font-weight: 200;" x="0" y="206.15999950062144" dx="0em" dy="0.3em" fill="rgb(50, 49, 63)" stroke="none" stroke-width="1px">0.02</text><text style="text-anchor: end; visibility: inherit; font-family: &quot;Helvetica Neue&quot;, sans-serif; font-size: 12px; font-weight: 200;" x="0" y="171.7999995838512" dx="0em" dy="0.3em" fill="rgb(50, 49, 63)" stroke="none" stroke-width="1px">0.025</text><text style="text-anchor: end; visibility: inherit; font-family: &quot;Helvetica Neue&quot;, sans-serif; font-size: 12px; font-weight: 200;" x="0" y="137.43999966708103" dx="0em" dy="0.3em" fill="rgb(50, 49, 63)" stroke="none" stroke-width="1px">0.03</text><text style="text-anchor: end; visibility: inherit; font-family: &quot;Helvetica Neue&quot;, sans-serif; font-size: 12px; font-weight: 200;" x="0" y="103.07999975031072" dx="0em" dy="0.3em" fill="rgb(50, 49, 63)" stroke="none" stroke-width="1px">0.035</text><text style="text-anchor: end; visibility: inherit; font-family: &quot;Helvetica Neue&quot;, sans-serif; font-size: 12px; font-weight: 200;" x="0" y="68.7199998335405" dx="0em" dy="0.3em" fill="rgb(50, 49, 63)" stroke="none" stroke-width="1px">0.04</text><text style="text-anchor: end; visibility: inherit; font-family: &quot;Helvetica Neue&quot;, sans-serif; font-size: 12px; font-weight: 200;" x="0" y="34.35999991677028" dx="0em" dy="0.3em" fill="rgb(50, 49, 63)" stroke="none" stroke-width="1px">0.045</text><text style="text-anchor: end; visibility: hidden; font-family: &quot;Helvetica Neue&quot;, sans-serif; font-size: 12px; font-weight: 200;" x="0" y="0" dx="0em" dy="0.3em" fill="rgb(50, 49, 63)" stroke="none" stroke-width="1px">0.05</text></g><line x1="61.77000045776367" y1="0" x2="61.77000045776367" y2="377.95999908447266" fill="rgb(0, 0, 0)" stroke="rgb(204, 204, 204)" stroke-width="1px"></line></g></g><g transform="translate(61, 0)" clip-path="url(#clip_0)"><clipPath id="clip_0"><rect width="1439" height="377"></rect></clipPath><g><g><g><line x1="0" y1="0" x2="0" y2="377.95999908447266" fill="rgb(0, 0, 0)" stroke="rgb(60, 60, 60)" stroke-width="1px" opacity="0.25"></line><line x1="119.93583329518636" y1="0" x2="119.93583329518636" y2="377.95999908447266" fill="rgb(0, 0, 0)" stroke="rgb(60, 60, 60)" stroke-width="1px" opacity="0.25"></line><line x1="239.8716665903727" y1="0" x2="239.8716665903727" y2="377.95999908447266" fill="rgb(0, 0, 0)" stroke="rgb(60, 60, 60)" stroke-width="1px" opacity="0.25"></line><line x1="359.8074998855591" y1="0" x2="359.8074998855591" y2="377.95999908447266" fill="rgb(0, 0, 0)" stroke="rgb(60, 60, 60)" stroke-width="1px" opacity="0.25"></line><line x1="479.7433331807454" y1="0" x2="479.7433331807454" y2="377.95999908447266" fill="rgb(0, 0, 0)" stroke="rgb(60, 60, 60)" stroke-width="1px" opacity="0.25"></line><line x1="599.6791664759319" y1="0" x2="599.6791664759319" y2="377.95999908447266" fill="rgb(0, 0, 0)" stroke="rgb(60, 60, 60)" stroke-width="1px" opacity="0.25"></line><line x1="719.6149997711182" y1="0" x2="719.6149997711182" y2="377.95999908447266" fill="rgb(0, 0, 0)" stroke="rgb(60, 60, 60)" stroke-width="1px" opacity="0.25"></line><line x1="839.5508330663046" y1="0" x2="839.5508330663046" y2="377.95999908447266" fill="rgb(0, 0, 0)" stroke="rgb(60, 60, 60)" stroke-width="1px" opacity="0.25"></line><line x1="959.4866663614908" y1="0" x2="959.4866663614908" y2="377.95999908447266" fill="rgb(0, 0, 0)" stroke="rgb(60, 60, 60)" stroke-width="1px" opacity="0.25"></line><line x1="1079.4224996566772" y1="0" x2="1079.4224996566772" y2="377.95999908447266" fill="rgb(0, 0, 0)" stroke="rgb(60, 60, 60)" stroke-width="1px" opacity="0.25"></line><line x1="1199.3583329518638" y1="0" x2="1199.3583329518638" y2="377.95999908447266" fill="rgb(0, 0, 0)" stroke="rgb(60, 60, 60)" stroke-width="1px" opacity="0.25"></line><line x1="1319.2941662470498" y1="0" x2="1319.2941662470498" y2="377.95999908447266" fill="rgb(0, 0, 0)" stroke="rgb(60, 60, 60)" stroke-width="1px" opacity="0.25"></line><line x1="1439.2299995422363" y1="0" x2="1439.2299995422363" y2="377.95999908447266" fill="rgb(0, 0, 0)" stroke="rgb(60, 60, 60)" stroke-width="1px" opacity="0.25"></line></g><g><line x1="0" y1="377.95999908447266" x2="1439.2299995422363" y2="377.95999908447266" fill="rgb(0, 0, 0)" stroke="rgb(60, 60, 60)" stroke-width="1px" opacity="0.25"></line><line x1="0" y1="343.59999916770244" x2="1439.2299995422363" y2="343.59999916770244" fill="rgb(0, 0, 0)" stroke="rgb(60, 60, 60)" stroke-width="1px" opacity="0.25"></line><line x1="0" y1="309.23999925093216" x2="1439.2299995422363" y2="309.23999925093216" fill="rgb(0, 0, 0)" stroke="rgb(60, 60, 60)" stroke-width="1px" opacity="0.25"></line><line x1="0" y1="274.87999933416194" x2="1439.2299995422363" y2="274.87999933416194" fill="rgb(0, 0, 0)" stroke="rgb(60, 60, 60)" stroke-width="1px" opacity="0.25"></line><line x1="0" y1="240.5199994173917" x2="1439.2299995422363" y2="240.5199994173917" fill="rgb(0, 0, 0)" stroke="rgb(60, 60, 60)" stroke-width="1px" opacity="0.25"></line><line x1="0" y1="206.15999950062144" x2="1439.2299995422363" y2="206.15999950062144" fill="rgb(0, 0, 0)" stroke="rgb(60, 60, 60)" stroke-width="1px" opacity="0.25"></line><line x1="0" y1="171.7999995838512" x2="1439.2299995422363" y2="171.7999995838512" fill="rgb(0, 0, 0)" stroke="rgb(60, 60, 60)" stroke-width="1px" opacity="0.25"></line><line x1="0" y1="137.43999966708103" x2="1439.2299995422363" y2="137.43999966708103" fill="rgb(0, 0, 0)" stroke="rgb(60, 60, 60)" stroke-width="1px" opacity="0.25"></line><line x1="0" y1="103.07999975031072" x2="1439.2299995422363" y2="103.07999975031072" fill="rgb(0, 0, 0)" stroke="rgb(60, 60, 60)" stroke-width="1px" opacity="0.25"></line><line x1="0" y1="68.7199998335405" x2="1439.2299995422363" y2="68.7199998335405" fill="rgb(0, 0, 0)" stroke="rgb(60, 60, 60)" stroke-width="1px" opacity="0.25"></line><line x1="0" y1="34.35999991677028" x2="1439.2299995422363" y2="34.35999991677028" fill="rgb(0, 0, 0)" stroke="rgb(60, 60, 60)" stroke-width="1px" opacity="0.25"></line><line x1="0" y1="0" x2="1439.2299995422363" y2="0" fill="rgb(0, 0, 0)" stroke="rgb(60, 60, 60)" stroke-width="1px" opacity="0.25"></line></g></g></g><g><g><line x1="0" y1="343.59999916770244" x2="1439.2299995422363" y2="343.59999916770244" fill="rgb(0, 0, 0)" stroke="rgb(153, 153, 153)" stroke-width="1.5px"></line></g></g><g><g><line x1="119.93583329518636" y1="0" x2="119.93583329518636" y2="377.95999908447266" fill="rgb(0, 0, 0)" stroke="rgb(153, 153, 153)" stroke-width="1.5px"></line></g></g><g><g><g><g><g><path style="fill: none;" stroke="rgb(0, 119, 187)" stroke-width="2px" d="M119.93583329518636,81.34223325814696L131.929416624705,164.44103380730712L143.92299995422363,191.94721298062228L155.91658328374228,195.9409771147007L167.9101666132609,211.8343738026743L179.90374994277954,214.31508077466358L191.89733327229817,217.81908366566685L203.8909166018168,211.2991478873205L215.88449993133545,217.94622657519375L227.87808326085408,225.03175152981066L239.8716665903727,225.92299854524947L251.86524991989134,228.42809400554026L263.85883324941,219.68896232639892L275.8524165789286,226.48355614460124L287.84599990844725,221.720102410237L299.83958323796594,228.1783137311887L311.83316656748457,235.3385743169371L323.8267498970032,238.21813826773112L335.8203332265218,236.45234535974595L347.81391655604045,228.14748050574357L359.8074998855591,228.02569956161196L371.80108321507777,231.45047688942358L383.79466654459634,222.31052961350588L395.788249874115,217.99607084725892L407.7818332036336,221.04213510259964L419.7754165331523,230.55285538296806L431.7689998626709,225.90983995558528L443.76258319218954,234.98066887438762L455.75616652170817,239.52625950294185L467.7497498512268,241.83258167019568L479.7433331807454,242.4595790231105L491.7369165102641,241.8770423274264L503.7304998397827,240.85358749752072L515.7240831693014,241.76593653373234L527.71766649882,245.57660539480094L539.7112498283386,248.46645958923267L551.7048331578573,246.70227439760123L563.6984164873759,251.01898246580785L575.6919998168945,250.64997036565302L587.6855831464131,253.2263060062818L599.6791664759319,246.67481438526L611.6727498054504,243.95983395215237L623.6663331349691,246.34077061788295L635.6599164644877,252.03855423499192L647.6534997940064,253.9454944971605L659.6470831235249,254.27587965978768L671.6406664530437,252.08063333807968L683.6342497825623,246.73814162404634L695.6278331120809,249.7587087086535L707.6214164415995,253.7317898869975L719.6149997711182,251.02030892824234L731.6085831006368,242.03461617766231L743.6021664301555,244.3979347564833L755.595749759674,250.3952862019287L767.5893330891927,248.02141736811674L779.5829164187113,252.6909741345126L791.57649974823,249.29190579375836L803.5700830777487,248.19577820982056L815.5636664072672,252.87220178269854L827.5572497367858,255.3673822015726L839.5508330663046,254.7897533799711L851.5444163958232,260.16934575468895L863.5379997253418,252.06820598382058L875.5315830548603,253.4560356050663L887.5251663843791,256.20072745193767L899.5187497138977,255.88526458317483L911.5123330434163,256.662012775319L923.5059163729351,255.582452485408L935.4994997024536,253.28172452886625L947.4930830319722,251.46240825418465L959.4866663614908,251.44281384941846L971.4802496910096,255.6725845331204L983.4738330205282,257.64585768568077L995.4674163500467,259.84805908805424L1007.4609996795654,256.0569211733752L1019.4545830090841,239.06113564734028L1031.4481663386027,249.02695125492397L1043.4417496681212,255.58524310532627L1055.43533299764,260.2398268932384L1067.4289163271587,257.3863799470583L1079.4224996566772,259.6249338515373L1091.4160829861958,253.00710703529916L1103.4096663157145,260.82083600875444L1115.4032496452332,265.0944603167875L1127.3968329747518,255.00696483692872L1139.3904163042703,258.61520028663784L1151.383999633789,260.75490488436145L1163.3775829633078,260.1055263674421L1175.3711662928263,255.96503550566644L1187.364749622345,257.6401608101593L1199.3583329518638,262.31796538971935L1211.3519162813823,262.4919599373983L1223.3454996109008,259.06378321601017L1235.3390829404195,262.6206978356538L1247.3326662699383,260.2428762622625L1259.3262495994568,254.30369584911384L1271.3198329289753,256.7121191396459L1283.313416258494,259.7485836278029L1295.3069995880128,260.5609979966414L1307.3005829175313,263.59903499305665L1319.2941662470498,260.7866475076289" fill="none"></path></g><g><path style="fill: none;" stroke="rgb(255, 112, 67)" stroke-width="2px" d="M119.93583329518636,97.25423918054486L131.929416624705,103.1135797819224L143.92299995422363,171.43152022714474L155.91658328374228,223.54813770782823L167.9101666132609,254.48573216752513L179.90374994277954,267.7408256227037L191.89733327229817,273.6613285401223L203.8909166018168,288.1507663993963L215.88449993133545,295.60046387679L227.87808326085408,286.8475767382722L239.8716665903727,292.3751837088928L251.86524991989134,300.6730584961313L263.85883324941,307.65738284824437L275.8524165789286,308.670331671176L287.84599990844725,310.46528209124915L299.83958323796594,306.91775480042503L311.83316656748457,311.39716804365145L323.8267498970032,312.25267279840045L335.8203332265218,316.2496590031223L347.81391655604045,319.8305330115857L359.8074998855591,317.78534954792656L371.80108321507777,320.79348832658184L383.79466654459634,321.76495732840687L395.788249874115,313.66276911574687L407.7818332036336,318.5517414177985L419.7754165331523,321.6902589348266L431.7689998626709,324.2811244504929L443.76258319218954,325.7497219959997L455.75616652170817,326.1140220613478L467.7497498512268,324.27391132875033L479.7433331807454,325.53288105044544L491.7369165102641,325.99620613020295L503.7304998397827,329.0958173273738L515.7240831693014,312.5646347918836L527.71766649882,316.3468070605334L539.7112498283386,318.5598027509165L551.7048331578573,325.44871163620695L563.6984164873759,326.42847356326826L575.6919998168945,325.51301047053397L587.6855831464131,323.9365235156965L599.6791664759319,325.98304452483114L611.6727498054504,329.4358460662159L623.6663331349691,329.9266103155684L635.6599164644877,331.37781175043165L647.6534997940064,333.00033097396584L659.6470831235249,329.3198205212117L671.6406664530437,329.1988043782641L683.6342497825623,330.9673722276073L695.6278331120809,330.49111179444947L707.6214164415995,330.6961592705673L719.6149997711182,332.2131554871444L731.6085831006368,332.7091356640552L743.6021664301555,329.4783564322162L755.595749759674,331.3019159297195L767.5893330891927,330.3822260589523L779.5829164187113,331.4787850039289L791.57649974823,333.4663688922169L803.5700830777487,333.7819256695028L815.5636664072672,334.6443720596142L827.5572497367858,335.08504026908133L839.5508330663046,334.5794478135618L851.5444163958232,333.9205645139676L863.5379997253418,335.2262679624999L875.5315830548603,335.3934949411341L887.5251663843791,335.8490469522222L899.5187497138977,336.23121450733873L911.5123330434163,336.71453313399775L923.5059163729351,337.04031578243826L935.4994997024536,336.6470650501558L947.4930830319722,335.9577533997948L959.4866663614908,335.72568107127023L971.4802496910096,334.83798365691365L983.4738330205282,335.7393063634786L995.4674163500467,336.3741802235576L1007.4609996795654,337.24567739385196L1019.4545830090841,337.39995449007915L1031.4481663386027,333.493682468606L1043.4417496681212,330.03182242475435L1055.43533299764,331.0884992129154L1067.4289163271587,334.23515641214533L1079.4224996566772,335.397475767836L1091.4160829861958,336.1468072966177L1103.4096663157145,335.16134217016037L1115.4032496452332,336.41768307839357L1127.3968329747518,336.4389679673842L1139.3904163042703,334.635328914242L1151.383999633789,334.75764201100003L1163.3775829633078,336.45303373576957L1175.3711662928263,337.5625854733472L1187.364749622345,336.8887603991751L1199.3583329518638,337.8239379507548L1211.3519162813823,338.29259097794534L1223.3454996109008,338.02873960538375L1235.3390829404195,337.88582153901666L1247.3326662699383,338.09707135996933L1259.3262495994568,336.0060299706846L1271.3198329289753,337.22707470194297L1283.313416258494,337.5272843291325L1295.3069995880128,337.5920610674078L1307.3005829175313,337.967954635831L1319.2941662470498,338.45191802403644" fill="none"></path></g></g></g></g><g opacity="0.2"><g><g><g><path style="fill: none;" stroke="rgb(0, 119, 187)" stroke-width="2px" d="M119.93583329518636,81.34223325814696L131.929416624705,214.30031413680328L143.92299995422363,218.35314498700487L155.91658328374228,200.6376437363769L167.9101666132609,232.58479251849263L179.90374994277954,217.74679157143473L191.89733327229817,222.82986386384772L203.8909166018168,201.79301893110807L215.88449993133545,227.74937651124253L227.87808326085408,235.55293031199648L239.8716665903727,227.2517855235734L251.86524991989134,232.1721045771066L263.85883324941,206.6087995888936L275.8524165789286,236.66213555528134L287.84599990844725,214.5805210697421L299.83958323796594,237.86107588163082L311.83316656748457,246.07593521324787L323.8267498970032,242.53675307294696L335.8203332265218,233.80392499854509L347.81391655604045,215.69094232228326L359.8074998855591,227.84303482417084L371.80108321507777,236.5875301873843L383.79466654459634,208.6007891519443L395.788249874115,211.52443380676576L407.7818332036336,225.61120983548977L419.7754165331523,244.81889524464313L431.7689998626709,218.94532869471504L443.76258319218954,248.58689832673204L455.75616652170817,246.34464125864181L467.7497498512268,245.2920636464072L479.7433331807454,243.40007484456362L491.7369165102641,241.00323739980556L503.7304998397827,239.3184053748421L515.7240831693014,243.13446002270013L527.71766649882,251.29260852263354L539.7112498283386,252.8012408063623L551.7048331578573,244.0559966374489L563.6984164873759,257.49404452804583L575.6919998168945,250.09645221747607L587.6855831464131,257.0908094586152L599.6791664759319,236.84757696686378L611.6727498054504,239.8873633057573L623.6663331349691,249.91217561476014L635.6599164644877,260.5852296581876L647.6534997940064,256.8059048899179L659.6470831235249,254.7714574036769L671.6406664530437,248.78776385572309L683.6342497825623,238.7244040532962L695.6278331120809,254.28955933546246L707.6214164415995,259.6914116544332L719.6149997711182,246.9530874901425L731.6085831006368,228.55607705185764L743.6021664301555,247.9429126247044L755.595749759674,259.3913133700811L767.5893330891927,244.46061411740249L779.5829164187113,259.695309284102L791.57649974823,244.1933032826289L803.5700830777487,246.55158683391423L815.5636664072672,259.8868371420146L827.5572497367858,259.1101528298834L839.5508330663046,253.92331014756883L851.5444163958232,268.2387343167655L863.5379997253418,239.91649632751825L875.5315830548603,255.53778003693483L887.5251663843791,260.3177652222448L899.5187497138977,255.4120702800305L911.5123330434163,257.82713506353537L923.5059163729351,253.96311205054144L935.4994997024536,249.83063259405358L947.4930830319722,248.7334338421623L959.4866663614908,251.41342224226918L971.4802496910096,262.01724055867334L983.4738330205282,260.60576741452127L995.4674163500467,263.15136119161446L1007.4609996795654,250.37021430135664L1019.4545830090841,213.56745735828784L1031.4481663386027,263.9756746662995L1043.4417496681212,265.42268088092976L1055.43533299764,267.2217025751065L1067.4289163271587,253.10620952778822L1079.4224996566772,262.98276470825584L1091.4160829861958,243.08036681094188L1103.4096663157145,272.5414294689374L1115.4032496452332,271.504896778837L1127.3968329747518,239.8757216171406L1139.3904163042703,264.02755346120153L1151.383999633789,263.96446178094686L1163.3775829633078,259.13145859206315L1175.3711662928263,249.75429921300292L1187.364749622345,260.15284876689856L1199.3583329518638,269.33467225905946L1211.3519162813823,262.75295175891665L1223.3454996109008,253.92151813392803L1235.3390829404195,267.9560697651192L1247.3326662699383,256.6761439021755L1259.3262495994568,245.39492522939094L1271.3198329289753,260.32475407544405L1283.313416258494,264.30328036003834L1295.3069995880128,261.7796195498991L1307.3005829175313,268.15609048767953L1319.2941662470498,256.5680662794872" fill="none"></path></g><g><path style="fill: none;" stroke="rgb(255, 112, 67)" stroke-width="2px" d="M119.93583329518636,97.25423918054486L131.929416624705,106.6291841427489L143.92299995422363,237.01674305455828L155.91658328374228,284.837279865112L167.9101666132609,294.87785549410546L179.90374994277954,286.07739170485956L191.89733327229817,282.12774244007755L203.8909166018168,309.2765058968212L215.88449993133545,306.58732062670765L227.87808326085408,273.8505594340519L239.8716665903727,300.61645917643193L251.86524991989134,313.0747140088312L263.85883324941,318.1110643455961L275.8524165789286,310.18777043337883L287.84599990844725,313.1555978245199L299.83958323796594,301.5989658552857L311.83316656748457,318.11439237092907L323.8267498970032,313.5357127179594L335.8203332265218,322.2445294095864L347.81391655604045,325.2015167182126L359.8074998855591,314.71768651515947L371.80108321507777,325.30559751047696L383.79466654459634,323.22214165118356L395.788249874115,301.50958277490054L407.7818332036336,325.8851651221532L419.7754165331523,326.3980218260252L431.7689998626709,328.16741609467755L443.76258319218954,327.95261605961684L455.75616652170817,326.660471823798L467.7497498512268,321.51374624685536L479.7433331807454,327.4213352155001L491.7369165102641,326.691193657653L503.7304998397827,333.7452337530988L515.7240831693014,287.767862172743L527.71766649882,322.02006530096264L539.7112498283386,321.87929622942664L551.7048331578573,335.78207485755996L563.6984164873759,327.8981164447651L575.6919998168945,324.1398158365315L587.6855831464131,321.57179308870866L599.6791664759319,329.05282603442964L611.6727498054504,334.61504837413906L623.6663331349691,330.6627566892429L635.6599164644877,333.55461390209797L647.6534997940064,335.43410980884545L659.6470831235249,323.79905484265436L671.6406664530437,329.017280163854L683.6342497825623,333.6202240015229L695.6278331120809,329.7767211447287L707.6214164415995,331.0037304847399L719.6149997711182,334.48864981199154L731.6085831006368,333.4531059294179L743.6021664301555,324.63218758447175L755.595749759674,334.0372551759697L767.5893330891927,329.002691252803L779.5829164187113,333.1236234213928L791.57649974823,336.44774472464775L803.5700830777487,334.2552608354316L815.5636664072672,335.9380416447812L827.5572497367858,335.74604258328185L839.5508330663046,333.82105913028255L851.5444163958232,332.9322395645763L863.5379997253418,337.1848231352983L875.5315830548603,335.6443354090855L887.5251663843791,336.53237496885424L899.5187497138977,336.80446584001356L911.5123330434163,337.4395110739862L923.5059163729351,337.5289897550991L935.4994997024536,336.0571889517321L947.4930830319722,334.92378592425337L959.4866663614908,335.3775725784833L971.4802496910096,333.50643753537884L983.4738330205282,337.09129042332603L995.4674163500467,337.326491013676L1007.4609996795654,338.5529231492935L1019.4545830090841,337.6313701344199L1031.4481663386027,327.63427443639625L1043.4417496681212,324.8390323589769L1055.43533299764,332.67351439515693L1067.4289163271587,338.9551422109903L1079.4224996566772,337.14095480137195L1091.4160829861958,337.27080458979026L1103.4096663157145,333.6831444804744L1115.4032496452332,338.30219444074334L1127.3968329747518,336.4708953008702L1139.3904163042703,331.9298703345286L1151.383999633789,334.9411116561371L1163.3775829633078,338.99612132292384L1175.3711662928263,339.2269130797137L1187.364749622345,335.8780227879169L1199.3583329518638,339.2267042781243L1211.3519162813823,338.99557051873114L1223.3454996109008,337.63296254654136L1235.3390829404195,337.67144443946603L1247.3326662699383,338.4139460913983L1259.3262495994568,332.8694678867575L1271.3198329289753,339.05864179883054L1283.313416258494,337.9775987699168L1295.3069995880128,337.6892261748208L1307.3005829175313,338.5317949884657L1319.2941662470498,339.1778631063447" fill="none"></path></g></g></g></g></g></g><g transform="translate(61, 377)" clip-path="url(#clip_1)"><clipPath id="clip_1"><rect width="1439" height="22"></rect></clipPath><g><g><line x1="0" y1="0" x2="0" y2="5" style="visibility: inherit;" fill="rgb(0, 0, 0)" stroke="rgb(204, 204, 204)" stroke-width="1px"></line><line x1="119.93583329518636" y1="0" x2="119.93583329518636" y2="5" style="visibility: inherit;" fill="rgb(0, 0, 0)" stroke="rgb(204, 204, 204)" stroke-width="1px"></line><line x1="239.8716665903727" y1="0" x2="239.8716665903727" y2="5" style="visibility: inherit;" fill="rgb(0, 0, 0)" stroke="rgb(204, 204, 204)" stroke-width="1px"></line><line x1="359.8074998855591" y1="0" x2="359.8074998855591" y2="5" style="visibility: inherit;" fill="rgb(0, 0, 0)" stroke="rgb(204, 204, 204)" stroke-width="1px"></line><line x1="479.7433331807454" y1="0" x2="479.7433331807454" y2="5" style="visibility: inherit;" fill="rgb(0, 0, 0)" stroke="rgb(204, 204, 204)" stroke-width="1px"></line><line x1="599.6791664759319" y1="0" x2="599.6791664759319" y2="5" style="visibility: inherit;" fill="rgb(0, 0, 0)" stroke="rgb(204, 204, 204)" stroke-width="1px"></line><line x1="719.6149997711182" y1="0" x2="719.6149997711182" y2="5" style="visibility: inherit;" fill="rgb(0, 0, 0)" stroke="rgb(204, 204, 204)" stroke-width="1px"></line><line x1="839.5508330663046" y1="0" x2="839.5508330663046" y2="5" style="visibility: inherit;" fill="rgb(0, 0, 0)" stroke="rgb(204, 204, 204)" stroke-width="1px"></line><line x1="959.4866663614908" y1="0" x2="959.4866663614908" y2="5" style="visibility: inherit;" fill="rgb(0, 0, 0)" stroke="rgb(204, 204, 204)" stroke-width="1px"></line><line x1="1079.4224996566772" y1="0" x2="1079.4224996566772" y2="5" style="visibility: inherit;" fill="rgb(0, 0, 0)" stroke="rgb(204, 204, 204)" stroke-width="1px"></line><line x1="1199.3583329518638" y1="0" x2="1199.3583329518638" y2="5" style="visibility: inherit;" fill="rgb(0, 0, 0)" stroke="rgb(204, 204, 204)" stroke-width="1px"></line><line x1="1319.2941662470498" y1="0" x2="1319.2941662470498" y2="5" style="visibility: inherit;" fill="rgb(0, 0, 0)" stroke="rgb(204, 204, 204)" stroke-width="1px"></line><line x1="1439.2299995422363" y1="0" x2="1439.2299995422363" y2="5" style="visibility: inherit;" fill="rgb(0, 0, 0)" stroke="rgb(204, 204, 204)" stroke-width="1px"></line></g><g transform="translate(0, 8)"><text style="text-anchor: middle; visibility: hidden; font-family: &quot;Helvetica Neue&quot;, sans-serif; font-size: 12px; font-weight: 200;" x="0" y="0" dx="0em" dy="0.95em" fill="rgb(50, 49, 63)" stroke="none" stroke-width="1px">-10</text><text style="text-anchor: middle; visibility: inherit; font-family: &quot;Helvetica Neue&quot;, sans-serif; font-size: 12px; font-weight: 200;" x="119.93583329518636" y="0" dx="0em" dy="0.95em" fill="rgb(50, 49, 63)" stroke="none" stroke-width="1px">0</text><text style="text-anchor: middle; visibility: inherit; font-family: &quot;Helvetica Neue&quot;, sans-serif; font-size: 12px; font-weight: 200;" x="239.8716665903727" y="0" dx="0em" dy="0.95em" fill="rgb(50, 49, 63)" stroke="none" stroke-width="1px">10</text><text style="text-anchor: middle; visibility: inherit; font-family: &quot;Helvetica Neue&quot;, sans-serif; font-size: 12px; font-weight: 200;" x="359.8074998855591" y="0" dx="0em" dy="0.95em" fill="rgb(50, 49, 63)" stroke="none" stroke-width="1px">20</text><text style="text-anchor: middle; visibility: inherit; font-family: &quot;Helvetica Neue&quot;, sans-serif; font-size: 12px; font-weight: 200;" x="479.7433331807454" y="0" dx="0em" dy="0.95em" fill="rgb(50, 49, 63)" stroke="none" stroke-width="1px">30</text><text style="text-anchor: middle; visibility: inherit; font-family: &quot;Helvetica Neue&quot;, sans-serif; font-size: 12px; font-weight: 200;" x="599.6791664759319" y="0" dx="0em" dy="0.95em" fill="rgb(50, 49, 63)" stroke="none" stroke-width="1px">40</text><text style="text-anchor: middle; visibility: inherit; font-family: &quot;Helvetica Neue&quot;, sans-serif; font-size: 12px; font-weight: 200;" x="719.6149997711182" y="0" dx="0em" dy="0.95em" fill="rgb(50, 49, 63)" stroke="none" stroke-width="1px">50</text><text style="text-anchor: middle; visibility: inherit; font-family: &quot;Helvetica Neue&quot;, sans-serif; font-size: 12px; font-weight: 200;" x="839.5508330663046" y="0" dx="0em" dy="0.95em" fill="rgb(50, 49, 63)" stroke="none" stroke-width="1px">60</text><text style="text-anchor: middle; visibility: inherit; font-family: &quot;Helvetica Neue&quot;, sans-serif; font-size: 12px; font-weight: 200;" x="959.4866663614908" y="0" dx="0em" dy="0.95em" fill="rgb(50, 49, 63)" stroke="none" stroke-width="1px">70</text><text style="text-anchor: middle; visibility: inherit; font-family: &quot;Helvetica Neue&quot;, sans-serif; font-size: 12px; font-weight: 200;" x="1079.4224996566772" y="0" dx="0em" dy="0.95em" fill="rgb(50, 49, 63)" stroke="none" stroke-width="1px">80</text><text style="text-anchor: middle; visibility: inherit; font-family: &quot;Helvetica Neue&quot;, sans-serif; font-size: 12px; font-weight: 200;" x="1199.3583329518638" y="0" dx="0em" dy="0.95em" fill="rgb(50, 49, 63)" stroke="none" stroke-width="1px">90</text><text style="text-anchor: middle; visibility: inherit; font-family: &quot;Helvetica Neue&quot;, sans-serif; font-size: 12px; font-weight: 200;" x="1319.2941662470498" y="0" dx="0em" dy="0.95em" fill="rgb(50, 49, 63)" stroke="none" stroke-width="1px">100</text><text style="text-anchor: middle; visibility: hidden; font-family: &quot;Helvetica Neue&quot;, sans-serif; font-size: 12px; font-weight: 200;" x="1439.2299995422363" y="0" dx="0em" dy="0.95em" fill="rgb(50, 49, 63)" stroke="none" stroke-width="1px">110</text></g><line x1="0" y1="0" x2="1439.2299995422363" y2="0" fill="rgb(0, 0, 0)" stroke="rgb(204, 204, 204)" stroke-width="1px"></line></g></g></g></g></svg>