<svg viewBox="0 0 330 200" xmlns="http://www.w3.org/2000/svg"><g><g><g><g><g><line x1="61.77000045776367" y1="177.95999908447266" x2="56.77000045776367" y2="177.95999908447266" style="visibility: inherit;" fill="rgb(0, 0, 0)" stroke="rgb(204, 204, 204)" stroke-width="1px"></line><line x1="61.77000045776367" y1="158.1866658528646" x2="56.77000045776367" y2="158.1866658528646" style="visibility: inherit;" fill="rgb(0, 0, 0)" stroke="rgb(204, 204, 204)" stroke-width="1px"></line><line x1="61.77000045776367" y1="138.4133326212565" x2="56.77000045776367" y2="138.4133326212565" style="visibility: inherit;" fill="rgb(0, 0, 0)" stroke="rgb(204, 204, 204)" stroke-width="1px"></line><line x1="61.77000045776367" y1="118.63999938964844" x2="56.77000045776367" y2="118.63999938964844" style="visibility: inherit;" fill="rgb(0, 0, 0)" stroke="rgb(204, 204, 204)" stroke-width="1px"></line><line x1="61.77000045776367" y1="98.86666615804036" x2="56.77000045776367" y2="98.86666615804036" style="visibility: inherit;" fill="rgb(0, 0, 0)" stroke="rgb(204, 204, 204)" stroke-width="1px"></line><line x1="61.77000045776367" y1="79.09333292643228" x2="56.77000045776367" y2="79.09333292643228" style="visibility: inherit;" fill="rgb(0, 0, 0)" stroke="rgb(204, 204, 204)" stroke-width="1px"></line><line x1="61.77000045776367" y1="59.319999694824205" x2="56.77000045776367" y2="59.319999694824205" style="visibility: inherit;" fill="rgb(0, 0, 0)" stroke="rgb(204, 204, 204)" stroke-width="1px"></line><line x1="61.77000045776367" y1="39.546666463216155" x2="56.77000045776367" y2="39.546666463216155" style="visibility: inherit;" fill="rgb(0, 0, 0)" stroke="rgb(204, 204, 204)" stroke-width="1px"></line><line x1="61.77000045776367" y1="19.773333231608063" x2="56.77000045776367" y2="19.773333231608063" style="visibility: inherit;" fill="rgb(0, 0, 0)" stroke="rgb(204, 204, 204)" stroke-width="1px"></line><line x1="61.77000045776367" y1="0" x2="56.77000045776367" y2="0" style="visibility: inherit;" fill="rgb(0, 0, 0)" stroke="rgb(204, 204, 204)" stroke-width="1px"></line></g><g transform="translate(51.77000045776367, 0)"><text style="text-anchor: end; visibility: hidden; font-family: &quot;Helvetica Neue&quot;, sans-serif; font-size: 12px; font-weight: 200;" x="0" y="177.95999908447266" dx="0em" dy="0.3em" fill="rgb(50, 49, 63)" stroke="none" stroke-width="1px">-0.01</text><text style="text-anchor: end; visibility: inherit; font-family: &quot;Helvetica Neue&quot;, sans-serif; font-size: 12px; font-weight: 200;" x="0" y="158.1866658528646" dx="0em" dy="0.3em" fill="rgb(50, 49, 63)" stroke="none" stroke-width="1px">0</text><text style="text-anchor: end; visibility: hidden; font-family: &quot;Helvetica Neue&quot;, sans-serif; font-size: 12px; font-weight: 200;" x="0" y="138.4133326212565" dx="0em" dy="0.3em" fill="rgb(50, 49, 63)" stroke="none" stroke-width="1px">0.01</text><text style="text-anchor: end; visibility: inherit; font-family: &quot;Helvetica Neue&quot;, sans-serif; font-size: 12px; font-weight: 200;" x="0" y="118.63999938964844" dx="0em" dy="0.3em" fill="rgb(50, 49, 63)" stroke="none" stroke-width="1px">0.02</text><text style="text-anchor: end; visibility: hidden; font-family: &quot;Helvetica Neue&quot;, sans-serif; font-size: 12px; font-weight: 200;" x="0" y="98.86666615804036" dx="0em" dy="0.3em" fill="rgb(50, 49, 63)" stroke="none" stroke-width="1px">0.03</text><text style="text-anchor: end; visibility: inherit; font-family: &quot;Helvetica Neue&quot;, sans-serif; font-size: 12px; font-weight: 200;" x="0" y="79.09333292643228" dx="0em" dy="0.3em" fill="rgb(50, 49, 63)" stroke="none" stroke-width="1px">0.04</text><text style="text-anchor: end; visibility: hidden; font-family: &quot;Helvetica Neue&quot;, sans-serif; font-size: 12px; font-weight: 200;" x="0" y="59.319999694824205" dx="0em" dy="0.3em" fill="rgb(50, 49, 63)" stroke="none" stroke-width="1px">0.05</text><text style="text-anchor: end; visibility: inherit; font-family: &quot;Helvetica Neue&quot;, sans-serif; font-size: 12px; font-weight: 200;" x="0" y="39.546666463216155" dx="0em" dy="0.3em" fill="rgb(50, 49, 63)" stroke="none" stroke-width="1px">0.06</text><text style="text-anchor: end; visibility: hidden; font-family: &quot;Helvetica Neue&quot;, sans-serif; font-size: 12px; font-weight: 200;" x="0" y="19.773333231608063" dx="0em" dy="0.3em" fill="rgb(50, 49, 63)" stroke="none" stroke-width="1px">0.07</text><text style="text-anchor: end; visibility: hidden; font-family: &quot;Helvetica Neue&quot;, sans-serif; font-size: 12px; font-weight: 200;" x="0" y="0" dx="0em" dy="0.3em" fill="rgb(50, 49, 63)" stroke="none" stroke-width="1px">0.08</text></g><line x1="61.77000045776367" y1="0" x2="61.77000045776367" y2="177.95999908447266" fill="rgb(0, 0, 0)" stroke="rgb(204, 204, 204)" stroke-width="1px"></line></g></g><g transform="translate(61, 0)" clip-path="url(#clip_0)"><clipPath id="clip_0"><rect width="268" height="177"></rect></clipPath><g><g><g><line x1="0" y1="0" x2="0" y2="177.95999908447266" fill="rgb(0, 0, 0)" stroke="rgb(60, 60, 60)" stroke-width="1px" opacity="0.25"></line><line x1="22.352499961853027" y1="0" x2="22.352499961853027" y2="177.95999908447266" fill="rgb(0, 0, 0)" stroke="rgb(60, 60, 60)" stroke-width="1px" opacity="0.25"></line><line x1="44.704999923706055" y1="0" x2="44.704999923706055" y2="177.95999908447266" fill="rgb(0, 0, 0)" stroke="rgb(60, 60, 60)" stroke-width="1px" opacity="0.25"></line><line x1="67.05749988555908" y1="0" x2="67.05749988555908" y2="177.95999908447266" fill="rgb(0, 0, 0)" stroke="rgb(60, 60, 60)" stroke-width="1px" opacity="0.25"></line><line x1="89.40999984741211" y1="0" x2="89.40999984741211" y2="177.95999908447266" fill="rgb(0, 0, 0)" stroke="rgb(60, 60, 60)" stroke-width="1px" opacity="0.25"></line><line x1="111.76249980926514" y1="0" x2="111.76249980926514" y2="177.95999908447266" fill="rgb(0, 0, 0)" stroke="rgb(60, 60, 60)" stroke-width="1px" opacity="0.25"></line><line x1="134.11499977111816" y1="0" x2="134.11499977111816" y2="177.95999908447266" fill="rgb(0, 0, 0)" stroke="rgb(60, 60, 60)" stroke-width="1px" opacity="0.25"></line><line x1="156.4674997329712" y1="0" x2="156.4674997329712" y2="177.95999908447266" fill="rgb(0, 0, 0)" stroke="rgb(60, 60, 60)" stroke-width="1px" opacity="0.25"></line><line x1="178.81999969482422" y1="0" x2="178.81999969482422" y2="177.95999908447266" fill="rgb(0, 0, 0)" stroke="rgb(60, 60, 60)" stroke-width="1px" opacity="0.25"></line><line x1="201.17249965667725" y1="0" x2="201.17249965667725" y2="177.95999908447266" fill="rgb(0, 0, 0)" stroke="rgb(60, 60, 60)" stroke-width="1px" opacity="0.25"></line><line x1="223.52499961853027" y1="0" x2="223.52499961853027" y2="177.95999908447266" fill="rgb(0, 0, 0)" stroke="rgb(60, 60, 60)" stroke-width="1px" opacity="0.25"></line><line x1="245.8774995803833" y1="0" x2="245.8774995803833" y2="177.95999908447266" fill="rgb(0, 0, 0)" stroke="rgb(60, 60, 60)" stroke-width="1px" opacity="0.25"></line><line x1="268.2299995422363" y1="0" x2="268.2299995422363" y2="177.95999908447266" fill="rgb(0, 0, 0)" stroke="rgb(60, 60, 60)" stroke-width="1px" opacity="0.25"></line></g><g><line x1="0" y1="177.95999908447266" x2="268.2299995422363" y2="177.95999908447266" fill="rgb(0, 0, 0)" stroke="rgb(60, 60, 60)" stroke-width="1px" opacity="0.25"></line><line x1="0" y1="158.1866658528646" x2="268.2299995422363" y2="158.1866658528646" fill="rgb(0, 0, 0)" stroke="rgb(60, 60, 60)" stroke-width="1px" opacity="0.25"></line><line x1="0" y1="138.4133326212565" x2="268.2299995422363" y2="138.4133326212565" fill="rgb(0, 0, 0)" stroke="rgb(60, 60, 60)" stroke-width="1px" opacity="0.25"></line><line x1="0" y1="118.63999938964844" x2="268.2299995422363" y2="118.63999938964844" fill="rgb(0, 0, 0)" stroke="rgb(60, 60, 60)" stroke-width="1px" opacity="0.25"></line><line x1="0" y1="98.86666615804036" x2="268.2299995422363" y2="98.86666615804036" fill="rgb(0, 0, 0)" stroke="rgb(60, 60, 60)" stroke-width="1px" opacity="0.25"></line><line x1="0" y1="79.09333292643228" x2="268.2299995422363" y2="79.09333292643228" fill="rgb(0, 0, 0)" stroke="rgb(60, 60, 60)" stroke-width="1px" opacity="0.25"></line><line x1="0" y1="59.319999694824205" x2="268.2299995422363" y2="59.319999694824205" fill="rgb(0, 0, 0)" stroke="rgb(60, 60, 60)" stroke-width="1px" opacity="0.25"></line><line x1="0" y1="39.546666463216155" x2="268.2299995422363" y2="39.546666463216155" fill="rgb(0, 0, 0)" stroke="rgb(60, 60, 60)" stroke-width="1px" opacity="0.25"></line><line x1="0" y1="19.773333231608063" x2="268.2299995422363" y2="19.773333231608063" fill="rgb(0, 0, 0)" stroke="rgb(60, 60, 60)" stroke-width="1px" opacity="0.25"></line><line x1="0" y1="0" x2="268.2299995422363" y2="0" fill="rgb(0, 0, 0)" stroke="rgb(60, 60, 60)" stroke-width="1px" opacity="0.25"></line></g></g></g><g><g><line x1="0" y1="158.1866658528646" x2="268.2299995422363" y2="158.1866658528646" fill="rgb(0, 0, 0)" stroke="rgb(153, 153, 153)" stroke-width="1.5px"></line></g></g><g><g><line x1="22.352499961853027" y1="0" x2="22.352499961853027" y2="177.95999908447266" fill="rgb(0, 0, 0)" stroke="rgb(153, 153, 153)" stroke-width="1.5px"></line></g></g><g><g><g><g><g><path style="fill: none;" stroke="rgb(0, 119, 187)" stroke-width="2px" d="M26.822999954223633,-38.67610373109599L29.058249950408936,9.831710396931385L31.29349994659424,29.774893551959593L33.52874994277954,43.93704223227479L35.763999938964844,54.03054424232428L37.99924993515015,56.201556482896336L40.23449993133545,52.55743003621791L42.46974992752075,57.657908655713655L44.704999923706055,62.846940418340026L46.94024991989136,67.55476590262089L49.17549991607666,69.91423587700976L51.41074991226196,69.51553159299995L53.645999908447266,71.84655000499974L55.88124990463257,71.49818259169228L58.11649990081787,70.5904283292765L60.351749897003174,70.00710660363707L62.58699989318848,69.02680125884667L64.82224988937378,69.59870968721147L67.05749988555908,69.46911628167742L69.29274988174438,72.23471209294706L71.52799987792969,72.48642167158765L73.76324987411499,76.23559307773489L75.9984998703003,75.5546545772104L78.2337498664856,72.79575063919698L80.4689998626709,73.20016016191218L82.7042498588562,69.43246698205641L84.9394998550415,69.27289762541064L87.1747498512268,74.07650397317494L89.40999984741211,71.16544127185324L91.64524984359741,72.40031438381843L93.88049983978271,75.05983800454902L96.11574983596802,76.7267325880349L98.35099983215332,77.22660227669978L100.58624982833862,78.49351568085184L102.82149982452393,77.83767638282637L105.05674982070923,76.99370383989522L107.29199981689453,73.78174863681186L109.52724981307983,77.47276635492325L111.76249980926514,75.01549361455973L113.99774980545044,77.94507733820488L116.23299980163574,74.9266514400685L118.46824979782104,77.05806928774474L120.70349979400635,77.44537536849116L122.93874979019165,78.30343605693295L125.17399978637695,74.07593049695755L127.40924978256226,76.05045169253806L129.64449977874756,72.63004479782589L131.87974977493286,73.84834058959296L134.11499977111816,76.84159539390843L136.35024976730347,73.91274361129494L138.58549976348877,73.07034846030457L140.82074975967407,77.16517227531637L143.05599975585938,77.90942118548092L145.29124975204468,77.50455958474214L147.52649974822998,75.14206806454699L149.76174974441528,74.96440953487833L151.9969997406006,75.46294287111297L154.2322497367859,76.7827300529889L156.4674997329712,73.84757680485569L158.7027497291565,75.35207473800052L160.9379997253418,74.72797290108083L163.1732497215271,73.0220848236937L165.4084997177124,76.953250945534L167.6437497138977,77.92322096209261L169.878999710083,72.58299678743128L172.1142497062683,72.09351493412491L174.3494997024536,75.6270574102861L176.58474969863892,71.10660710397767L178.81999969482422,71.55686860167285L181.05524969100952,71.67244261915769L183.29049968719482,70.82789942431206L185.52574968338013,71.59112267281182L187.76099967956543,71.019164087232L189.99624967575073,72.40808681893974L192.23149967193604,70.85102174604303L194.46674966812134,68.78722039177788L196.70199966430664,71.4849071891179L198.93724966049194,73.36039132411514L201.17249965667725,75.57173968898769L203.40774965286255,74.02203248187448L205.64299964904785,75.89793577203912L207.87824964523315,75.0322272493452L210.11349964141846,72.94971003718952L212.34874963760376,75.14849639803788L214.58399963378906,76.77095561706338L216.81924962997437,75.14738924499213L219.05449962615967,71.16060102366946L221.28974962234497,71.9221997783876L223.52499961853027,71.46197139487268L225.76024961471558,72.33813153177941L227.99549961090088,72.71133082382204L230.23074960708618,77.00708205347034L232.46599960327148,74.41768307948108L234.7012495994568,72.80582761233724L236.9364995956421,72.66148867051399L239.1717495918274,72.6779759169833L241.4069995880127,64.68762371438919L243.642249584198,69.51553084419959L245.8774995803833,75.44154447991842" fill="none"></path></g><g><path style="fill: none;" stroke="rgb(255, 112, 67)" stroke-width="2px" d="M31.29349994659424,-21.456180015418084L33.52874994277954,15.719446645580575L35.763999938964844,29.674243167271044L37.99924993515015,40.111049797836046L40.23449993133545,40.38188837996398L42.46974992752075,50.710637851821275L44.704999923706055,66.60711479711041L46.94024991989136,61.8131282671509L49.17549991607666,70.01531602218078L51.41074991226196,72.51312288651377L53.645999908447266,76.93752525513331L55.88124990463257,76.20867784019384L58.11649990081787,83.6241814805219L60.351749897003174,81.75202814138184L62.58699989318848,79.76315980306002L64.82224988937378,84.14766181536949L67.05749988555908,81.7758576120512L69.29274988174438,81.16373096886414L71.52799987792969,85.54566950379544L73.76324987411499,88.68226336425793L75.9984998703003,90.77167958293946L78.2337498664856,92.73297711903429L80.4689998626709,94.84186147110813L82.7042498588562,97.84085716338056L84.9394998550415,102.40820404546443L87.1747498512268,104.15006716360632L89.40999984741211,106.43454106251137L91.64524984359741,97.86808117515552L93.88049983978271,102.03321811289744L96.11574983596802,103.83141331896917L98.35099983215332,101.15258061514936L100.58624982833862,104.64509301392256L102.82149982452393,82.30976356812668L105.05674982070923,89.17648879167764L107.29199981689453,100.57052593764075L109.52724981307983,108.2599458236444L111.76249980926514,113.46122130654501L113.99774980545044,113.62200904618345L116.23299980163574,115.66802509893725L118.46824979782104,114.01436881618724L120.70349979400635,113.30473872868693L122.93874979019165,114.35490249165912L125.17399978637695,111.14830661683854L127.40924978256226,110.991574626629L129.64449977874756,113.20405527573273L131.87974977493286,117.69957196083146L134.11499977111816,117.67004277727975L136.35024976730347,117.40935311795309L138.58549976348877,118.37834712956254L140.82074975967407,116.12183914652348L143.05599975585938,118.06426167041423L145.29124975204468,116.23811332371946L147.52649974822998,122.24904109407541L149.76174974441528,126.04171803198042L151.9969997406006,126.3737164223978L154.2322497367859,122.66987007575038L156.4674997329712,123.05913903997057L158.7027497291565,121.81926456421719L160.9379997253418,123.51429556462847L163.1732497215271,124.56134739351546L165.4084997177124,127.38684815567268L167.6437497138977,128.25005316013102L169.878999710083,127.52651480973164L172.1142497062683,125.15191758339752L174.3494997024536,120.53809325428324L176.58474969863892,123.52395223549446L178.81999969482422,125.0012413233332L181.05524969100952,124.67595388155792L183.29049968719482,129.10070770777452L185.52574968338013,130.29426428561703L187.76099967956543,125.28135140741921L189.99624967575073,127.43706496758179L192.23149967193604,126.73565824284846L194.46674966812134,123.81259221336828L196.70199966430664,125.53078446221015L198.93724966049194,126.407720953916L201.17249965667725,126.7491886580762L203.40774965286255,126.62206553585028L205.64299964904785,126.21749750622176L207.87824964523315,126.0094099604978L210.11349964141846,127.52008963193964L212.34874963760376,129.99560693363745L214.58399963378906,129.61562266660465L216.81924962997437,128.57048549937517L219.05449962615967,130.17857386732626L221.28974962234497,127.86645410893266L223.52499961853027,126.87609348353129L225.76024961471558,126.96247020001223L227.99549961090088,123.88816064935043L230.23074960708618,128.3451005160949L232.46599960327148,128.6267986737348L234.7012495994568,129.7895578213239L236.9364995956421,125.9803093975913L239.1717495918274,127.03790463716354L241.4069995880127,130.26653144664294L243.642249584198,132.2297357903018L245.8774995803833,134.33629596186242" fill="none"></path></g></g></g></g><g opacity="0.2"><g><g><g><path style="fill: none;" stroke="rgb(0, 119, 187)" stroke-width="2px" d="M22.352499961853027,-462.43307660619575L24.58774995803833,52.46909701573722L26.822999954223633,59.18928605583996L29.058249950408936,66.87689981149151L31.29349994659424,55.81271347916439L33.52874994277954,63.52839223067565L35.763999938964844,68.46441361272721L37.99924993515015,59.366913171367884L40.23449993133545,47.183051362488186L42.46974992752075,65.23152497548463L44.704999923706055,70.5834239261053L46.94024991989136,74.59088435065428L49.17549991607666,73.44573675974921L51.41074991226196,68.9182562701837L53.645999908447266,75.3403375983592L55.88124990463257,70.97587716742137L58.11649990081787,69.22918106683433L60.351749897003174,69.13227212050086L62.58699989318848,67.55649258131359L64.82224988937378,70.45652005506295L67.05749988555908,69.2747332805867L69.29274988174438,76.38301480674336L71.52799987792969,72.86398106998195L73.76324987411499,81.8593057744462L75.9984998703003,74.53325166624312L78.2337498664856,68.65740649764183L80.4689998626709,73.80677341121182L82.7042498588562,63.78093299656928L84.9394998550415,69.03354373742793L87.1747498512268,81.28191083994112L89.40999984741211,66.79884818521076L91.64524984359741,74.25262380606783L93.88049983978271,79.04912311815116L96.11574983596802,79.22707434386749L98.35099983215332,77.97640678821426L100.58624982833862,80.39388575441124L102.82149982452393,76.85391744593504L105.05674982070923,75.72774503333304L107.29199981689453,68.96381585007671L109.52724981307983,83.00929291975542L111.76249980926514,71.32958450894162L113.99774980545044,82.3394529201481L116.23299980163574,70.39901259504278L118.46824979782104,80.25519605833595L120.70349979400635,78.0263344895101L122.93874979019165,79.59052708946187L125.17399978637695,67.73467215738991L127.40924978256226,79.01223348579803L129.64449977874756,67.4994344558728L131.87974977493286,75.675784277219L134.11499977111816,81.33147760034535L136.35024976730347,69.51946593739599L138.58549976348877,71.80675573382271L140.82074975967407,83.30740799782336L143.05599975585938,79.02579455072657L145.29124975204468,76.89726718363438L147.52649974822998,71.59833078425555L149.76174974441528,74.69792174037543L151.9969997406006,76.2107428754648L154.2322497367859,78.76241082580262L156.4674997329712,69.4448469326561L158.7027497291565,77.6088216377177L160.9379997253418,73.79182014570127L163.1732497215271,70.46325270761302L165.4084997177124,82.85000012829441L167.6437497138977,79.3781759869306L169.878999710083,64.57266052543925L172.1142497062683,71.35929215416532L174.3494997024536,80.92737112452794L176.58474969863892,64.32593164451501L178.81999969482422,72.23226084821559L181.05524969100952,71.84580364538502L183.29049968719482,69.56108463204362L185.52574968338013,72.73595754556146L187.76099967956543,70.16122620886229L189.99624967575073,74.4914709165013L192.23149967193604,68.51542413669797L194.46674966812134,65.69151836038019L196.70199966430664,75.5314373851279L198.93724966049194,76.173617526611L201.17249965667725,78.88876223629654L203.40774965286255,71.69747167120464L205.64299964904785,78.71179070728608L207.87824964523315,73.73366446530427L210.11349964141846,69.82593421895604L212.34874963760376,78.44667593931042L214.58399963378906,79.20464444560164L216.81924962997437,72.71203968688522L219.05449962615967,65.18041869168547L221.28974962234497,73.06459791046476L223.52499961853027,70.77162881960027L225.76024961471558,73.65237173713948L227.99549961090088,73.27112976188597L230.23074960708618,83.45070889794279L232.46599960327148,70.53358461849719L234.7012495994568,70.38804441162148L236.9364995956421,72.44498025777912L239.1717495918274,72.70270678668724L241.4069995880127,52.702095410498075L243.642249584198,76.75739153891514L245.8774995803833,84.33056493349669" fill="none"></path></g><g><path style="fill: none;" stroke="rgb(255, 112, 67)" stroke-width="2px" d="M24.58774995803833,-472.29162460063617L26.822999954223633,62.888547155777204L29.058249950408936,61.306241215977934L31.29349994659424,60.954743716651365L33.52874994277954,67.14672154333971L35.763999938964844,49.62982547003273L37.99924993515015,55.32801405854349L40.23449993133545,40.781322680916475L42.46974992752075,66.0476270637509L44.704999923706055,90.30765033913106L46.94024991989136,54.64823713520528L49.17549991607666,82.29181608859304L51.41074991226196,76.25493971933837L53.645999908447266,83.56892808916396L55.88124990463257,75.11592075745044L58.11649990081787,94.74429894839571L60.351749897003174,78.94427347220174L62.58699989318848,76.78016027965069L64.82224988937378,90.72401407298275L67.05749988555908,78.21828138245307L69.29274988174438,80.24556114637153L71.52799987792969,92.11849079245997L73.76324987411499,93.38711699900716L75.9984998703003,93.90578906028554L78.2337498664856,95.67491505913843L80.4689998626709,98.00518260316188L82.7042498588562,102.33934609762436L84.9394998550415,109.25922016141827L87.1747498512268,106.76286087811792L89.40999984741211,109.86125115331255L91.64524984359741,85.01839304856055L93.88049983978271,108.28092302227662L96.11574983596802,106.5287059992757L98.35099983215332,97.13433167454721L100.58624982833862,109.8838615220242L102.82149982452393,48.80676974499701L105.05674982070923,99.47657656326041L107.29199981689453,117.661581593123L109.52724981307983,119.79407562695283L111.76249980926514,121.2631345204667L113.99774980545044,113.86319065544765L116.23299980163574,118.73704917659104L118.46824979782104,111.53388439277845L120.70349979400635,112.24029359762082L122.93874979019165,115.93014813595363L125.17399978637695,106.33841280490768L127.40924978256226,110.7564766413235L129.64449977874756,116.52277624931378L131.87974977493286,124.44284698838874L134.11499977111816,117.6257490019525L136.35024976730347,117.018318628965L138.58549976348877,119.83183814697247L140.82074975967407,112.73707717197081L143.05599975585938,120.97789545624728L145.29124975204468,113.49889080367905L147.52649974822998,131.26543274960594L149.76174974441528,131.73073343883664L151.9969997406006,126.87171400802382L154.2322497367859,117.11410055577969L156.4674997329712,123.64304248630084L158.7027497291565,119.95945285058713L160.9379997253418,126.05684206524536L163.1732497215271,126.13192513684592L165.4084997177124,131.62509929890848L167.6437497138977,129.5448606668185L169.878999710083,126.44120728413259L172.1142497062683,121.59002174389633L174.3494997024536,113.61735676061184L176.58474969863892,128.00274070731126L178.81999969482422,127.21717495509132L181.05524969100952,124.18802271889497L183.29049968719482,135.73783844709948L185.52574968338013,132.08459915238078L187.76099967956543,117.76198209012247L189.99624967575073,130.67063530782565L192.23149967193604,125.68354815574847L194.46674966812134,119.42799316914798L196.70199966430664,128.10807283547297L198.93724966049194,127.72312569147476L201.17249965667725,127.26139021431652L203.40774965286255,126.43138085251135L205.64299964904785,125.610645461779L207.87824964523315,125.69727864191185L210.11349964141846,129.78610913910242L212.34874963760376,133.70888288618414L214.58399963378906,129.04564626605546L216.81924962997437,127.00277974853091L219.05449962615967,132.59070641925294L221.28974962234497,124.39827447134223L223.52499961853027,125.39055254542923L225.76024961471558,127.0920352747336L227.99549961090088,119.27669632335775L230.23074960708618,135.03051031621158L232.46599960327148,129.04934591019472L234.7012495994568,131.5336965427076L236.9364995956421,120.26643676199234L239.1717495918274,128.62429749652185L241.4069995880127,135.10947166086203L243.642249584198,135.17454230579008L245.8774995803833,137.49613621920335" fill="none"></path></g></g></g></g></g></g><g transform="translate(61, 177)" clip-path="url(#clip_1)"><clipPath id="clip_1"><rect width="268" height="22"></rect></clipPath><g><g><line x1="0" y1="0" x2="0" y2="5" style="visibility: inherit;" fill="rgb(0, 0, 0)" stroke="rgb(204, 204, 204)" stroke-width="1px"></line><line x1="22.352499961853027" y1="0" x2="22.352499961853027" y2="5" style="visibility: inherit;" fill="rgb(0, 0, 0)" stroke="rgb(204, 204, 204)" stroke-width="1px"></line><line x1="44.704999923706055" y1="0" x2="44.704999923706055" y2="5" style="visibility: inherit;" fill="rgb(0, 0, 0)" stroke="rgb(204, 204, 204)" stroke-width="1px"></line><line x1="67.05749988555908" y1="0" x2="67.05749988555908" y2="5" style="visibility: inherit;" fill="rgb(0, 0, 0)" stroke="rgb(204, 204, 204)" stroke-width="1px"></line><line x1="89.40999984741211" y1="0" x2="89.40999984741211" y2="5" style="visibility: inherit;" fill="rgb(0, 0, 0)" stroke="rgb(204, 204, 204)" stroke-width="1px"></line><line x1="111.76249980926514" y1="0" x2="111.76249980926514" y2="5" style="visibility: inherit;" fill="rgb(0, 0, 0)" stroke="rgb(204, 204, 204)" stroke-width="1px"></line><line x1="134.11499977111816" y1="0" x2="134.11499977111816" y2="5" style="visibility: inherit;" fill="rgb(0, 0, 0)" stroke="rgb(204, 204, 204)" stroke-width="1px"></line><line x1="156.4674997329712" y1="0" x2="156.4674997329712" y2="5" style="visibility: inherit;" fill="rgb(0, 0, 0)" stroke="rgb(204, 204, 204)" stroke-width="1px"></line><line x1="178.81999969482422" y1="0" x2="178.81999969482422" y2="5" style="visibility: inherit;" fill="rgb(0, 0, 0)" stroke="rgb(204, 204, 204)" stroke-width="1px"></line><line x1="201.17249965667725" y1="0" x2="201.17249965667725" y2="5" style="visibility: inherit;" fill="rgb(0, 0, 0)" stroke="rgb(204, 204, 204)" stroke-width="1px"></line><line x1="223.52499961853027" y1="0" x2="223.52499961853027" y2="5" style="visibility: inherit;" fill="rgb(0, 0, 0)" stroke="rgb(204, 204, 204)" stroke-width="1px"></line><line x1="245.8774995803833" y1="0" x2="245.8774995803833" y2="5" style="visibility: inherit;" fill="rgb(0, 0, 0)" stroke="rgb(204, 204, 204)" stroke-width="1px"></line><line x1="268.2299995422363" y1="0" x2="268.2299995422363" y2="5" style="visibility: inherit;" fill="rgb(0, 0, 0)" stroke="rgb(204, 204, 204)" stroke-width="1px"></line></g><g transform="translate(0, 8)"><text style="text-anchor: middle; visibility: hidden; font-family: &quot;Helvetica Neue&quot;, sans-serif; font-size: 12px; font-weight: 200;" x="0" y="0" dx="0em" dy="0.95em" fill="rgb(50, 49, 63)" stroke="none" stroke-width="1px">-10</text><text style="text-anchor: middle; visibility: inherit; font-family: &quot;Helvetica Neue&quot;, sans-serif; font-size: 12px; font-weight: 200;" x="22.352499961853027" y="0" dx="0em" dy="0.95em" fill="rgb(50, 49, 63)" stroke="none" stroke-width="1px">0</text><text style="text-anchor: middle; visibility: hidden; font-family: &quot;Helvetica Neue&quot;, sans-serif; font-size: 12px; font-weight: 200;" x="44.704999923706055" y="0" dx="0em" dy="0.95em" fill="rgb(50, 49, 63)" stroke="none" stroke-width="1px">10</text><text style="text-anchor: middle; visibility: inherit; font-family: &quot;Helvetica Neue&quot;, sans-serif; font-size: 12px; font-weight: 200;" x="67.05749988555908" y="0" dx="0em" dy="0.95em" fill="rgb(50, 49, 63)" stroke="none" stroke-width="1px">20</text><text style="text-anchor: middle; visibility: hidden; font-family: &quot;Helvetica Neue&quot;, sans-serif; font-size: 12px; font-weight: 200;" x="89.40999984741211" y="0" dx="0em" dy="0.95em" fill="rgb(50, 49, 63)" stroke="none" stroke-width="1px">30</text><text style="text-anchor: middle; visibility: inherit; font-family: &quot;Helvetica Neue&quot;, sans-serif; font-size: 12px; font-weight: 200;" x="111.76249980926514" y="0" dx="0em" dy="0.95em" fill="rgb(50, 49, 63)" stroke="none" stroke-width="1px">40</text><text style="text-anchor: middle; visibility: hidden; font-family: &quot;Helvetica Neue&quot;, sans-serif; font-size: 12px; font-weight: 200;" x="134.11499977111816" y="0" dx="0em" dy="0.95em" fill="rgb(50, 49, 63)" stroke="none" stroke-width="1px">50</text><text style="text-anchor: middle; visibility: inherit; font-family: &quot;Helvetica Neue&quot;, sans-serif; font-size: 12px; font-weight: 200;" x="156.4674997329712" y="0" dx="0em" dy="0.95em" fill="rgb(50, 49, 63)" stroke="none" stroke-width="1px">60</text><text style="text-anchor: middle; visibility: hidden; font-family: &quot;Helvetica Neue&quot;, sans-serif; font-size: 12px; font-weight: 200;" x="178.81999969482422" y="0" dx="0em" dy="0.95em" fill="rgb(50, 49, 63)" stroke="none" stroke-width="1px">70</text><text style="text-anchor: middle; visibility: inherit; font-family: &quot;Helvetica Neue&quot;, sans-serif; font-size: 12px; font-weight: 200;" x="201.17249965667725" y="0" dx="0em" dy="0.95em" fill="rgb(50, 49, 63)" stroke="none" stroke-width="1px">80</text><text style="text-anchor: middle; visibility: hidden; font-family: &quot;Helvetica Neue&quot;, sans-serif; font-size: 12px; font-weight: 200;" x="223.52499961853027" y="0" dx="0em" dy="0.95em" fill="rgb(50, 49, 63)" stroke="none" stroke-width="1px">90</text><text style="text-anchor: middle; visibility: inherit; font-family: &quot;Helvetica Neue&quot;, sans-serif; font-size: 12px; font-weight: 200;" x="245.8774995803833" y="0" dx="0em" dy="0.95em" fill="rgb(50, 49, 63)" stroke="none" stroke-width="1px">100</text><text style="text-anchor: middle; visibility: hidden; font-family: &quot;Helvetica Neue&quot;, sans-serif; font-size: 12px; font-weight: 200;" x="268.2299995422363" y="0" dx="0em" dy="0.95em" fill="rgb(50, 49, 63)" stroke="none" stroke-width="1px">110</text></g><line x1="0" y1="0" x2="268.2299995422363" y2="0" fill="rgb(0, 0, 0)" stroke="rgb(204, 204, 204)" stroke-width="1px"></line></g></g></g></g></svg>